M48
;Layer_Color=0
;FILE_FORMAT=2:5
INCH,LZ
;TYPE=PLATED
T1F00S00C0.01575
T2F00S00C0.03543
T3F00S00C0.03937
T4F00S00C0.05906
T5F00S00C0.06299
T6F00S00C0.06417
T9F00S00C0.12598
;TYPE=NON_PLATED
T10F00S00C0.13780
%
T01
X0115059Y0065771
X0111133Y0070669
X0119892Y0080905
Y0085236
Y0089567
X0144912Y0079518
X0144891Y007598
Y0072441
Y0068902
X0144813Y0065364
X0149046
X0153278
X015751
X0157461Y0079518
X0153278
X0149095
X0137707Y0051106
X0117815Y014915
X0060958Y0152953
X0054823Y0149902
X0051791Y0154724
X0048228
X0186713Y015439
X0182382Y0144685
X0182283Y0126303
X01687
X0164173Y0112425
X0165827Y0079518
X0161644
X017001Y0079518
X0170069Y007598
Y0072441
Y0068902
X0170207Y0065364
X0165975
X0161742
X0208081Y0060236
X0213386Y0064295
Y0072268
X0221467Y0076772
X0218908Y0101811
Y0106162
Y0110709
X0198928Y0097047
Y0092717
Y0088386
X019381Y0121653
X0196172Y0135433
X0203937Y0145276
X0213937
X0218937
X0228937
X0239764Y0131027
X024559
X0288148Y0150957
X0292479
X029681
X0290992Y0108071
X0285992
Y0101772
X0290992
X0307983Y0069492
X0277264Y0064768
X0285097Y0037303
X028865Y0032366
X0290117Y0176181
X025059Y0168406
X0246564
X0226437Y0168012
X0221437
X0211437
X0206437
X0202953Y0182285
X0198937
X0188878
X0193602Y019541
X0174165Y0195866
Y0191929
Y0187992
X0170276
X0168808Y0179571
X0160433Y0180165
X0174165Y0199803
Y0203776
X0170276Y0210583
X0166339
X0168307Y0213535
X0162402
X0166339Y0225346
X0167815Y0239035
Y0255059
X016898Y0269789
X0176673
X0180782
X0188607
X0189862Y0247047
X0194862
X0179862
X0186131Y0228453
X0197362Y0223744
X0204862
X0222681Y0219315
Y0229315
Y0209315
Y0201337
X0222835Y0196973
Y0192563
X025059Y0185728
X0238976Y0249315
X0229832Y0255548
X0215116Y0294291
X029617Y0249315
Y0239315
X0191535Y016189
Y015689
X0186713Y015939
X0175796Y0161122
X0146653Y0156988
X0148622Y0180165
X0144685
X0140954Y0178678
X0140795Y0182087
X0140166Y0188717
X0148622Y0189961
X0152559Y0180165
X0156496
X0159449Y0207677
X0157087Y0213535
X0152559
X0142824Y0224249
X0142717Y0236946
X0146457
X0138779
X0154527Y0235773
X0159504Y0235899
X0155709Y0231102
X0117803Y0228801
X0107803
X0097803
X0102597Y0221555
X0088996Y0203003
X0092853Y019439
X0109683Y0195289
X0113128Y0191844
X0113522Y0188006
X0125047Y0187992
X0128984Y0184055
X0126317Y0203838
X0140795Y0197835
X0078581Y02
X0058651Y0197333
X0055511
X0052371
Y0194193
Y0191053
X0055511
Y0194193
X0058651
Y0191053
X0058098Y0180413
X0069094Y0181299
X0065059Y0171748
X0057205Y0163977
X0053937Y0165551
X0042717Y0165158
X0037035Y0176279
Y0180413
X0039567Y0189272
X004252Y0192224
X0042717Y0186319
X0039567Y0200098
X004252Y0204035
X0042421Y0220371
X0050689
X0058956
X0067421
X0069508Y0223672
X0049713Y0248524
X0041634Y0243146
X0032981Y0241437
X0032095Y0235138
X0033473Y0248524
X0041634Y0253973
X0078642Y0264012
X0083965Y0260554
X0086515Y025641
X0086703Y0270509
X0083573
X0079528Y0275591
X0083573Y0280056
X0086703
X0100657Y0265587
X0110657
X0120657
X0133258Y0302569
Y0305581
Y0308593
Y0311605
X0136556
Y0308593
Y0305581
Y0302569
X0139853
Y0305581
Y0308593
Y0311605
X0033071Y0307713
X0037509Y0301083
X0028552
X0033071Y0294524
X002815Y0193209
X0023729Y0184613
X002815Y017228
X0081496Y0171296
X0087795Y0180709
X0109162Y0159528
X0073228Y034685
X006986
X0066491
X0063123
X0059754
X0056386
X0053017
X0191043Y0319882
X0215116Y0319882
T02
X0038011Y0084351
X0048011
X0058011
X0068011
X0073011Y0094351
X0063011
X0053011
X0043011
X0040609Y0135532
X003061
X0070413
X0080413
T03
X0283748Y0054232
X0293748
X015248Y0353751
X014248
X013248
X012248
X011248
X010248
X009248
X008248
X016248
X017248
X018248
X019248
X020248
X021248
X022248
X023248
T04
X0088748Y0015748
X0108748
X0128748
X0148748
X0168748
X0188748
X0208748
X0228748
X0258748Y0015748
X0278748
X0298748
X014748Y0377953
X012748
X010748
X008748
X005748Y0377953
X003748
X016748Y0377953
X018748
X020748
X022748
T05
X0231791Y0061811
X0246604
X0261417
T06
X0024409Y0104036
X0086613
T09
X0033011Y0119351
X0078011
T10
X0011811Y0011811
X030315Y0129921
X0011811Y038189
X030315
M30
