G04*
G04 #@! TF.GenerationSoftware,Altium Limited,Altium Designer,22.8.2 (66)*
G04*
G04 Layer_Color=32896*
%FSLAX25Y25*%
%MOIN*%
G70*
G04*
G04 #@! TF.SameCoordinates,13B3F834-8CED-449E-BEA1-CCB9478C9146*
G04*
G04*
G04 #@! TF.FilePolarity,Positive*
G04*
G01*
G75*
%ADD114C,0.01181*%
G36*
X117735Y260783D02*
X117828Y260777D01*
X117915Y260761D01*
X117997Y260745D01*
X118074Y260723D01*
X118145Y260701D01*
X118210Y260674D01*
X118270Y260646D01*
X118325Y260619D01*
X118369Y260592D01*
X118407Y260570D01*
X118440Y260548D01*
X118467Y260532D01*
X118483Y260515D01*
X118494Y260510D01*
X118500Y260505D01*
X118554Y260450D01*
X118604Y260390D01*
X118653Y260324D01*
X118691Y260259D01*
X118756Y260128D01*
X118800Y259997D01*
X118816Y259937D01*
X118833Y259877D01*
X118844Y259827D01*
X118855Y259784D01*
X118860Y259746D01*
Y259718D01*
X118866Y259702D01*
Y259696D01*
X118391Y259647D01*
X118380Y259773D01*
X118358Y259882D01*
X118325Y259980D01*
X118287Y260057D01*
X118254Y260122D01*
X118221Y260166D01*
X118200Y260193D01*
X118189Y260204D01*
X118107Y260270D01*
X118019Y260319D01*
X117927Y260357D01*
X117845Y260379D01*
X117768Y260395D01*
X117703Y260401D01*
X117681Y260406D01*
X117648D01*
X117533Y260401D01*
X117430Y260379D01*
X117342Y260346D01*
X117266Y260313D01*
X117206Y260275D01*
X117167Y260248D01*
X117140Y260226D01*
X117129Y260215D01*
X117064Y260139D01*
X117015Y260062D01*
X116976Y259986D01*
X116955Y259909D01*
X116938Y259849D01*
X116933Y259795D01*
X116927Y259762D01*
Y259756D01*
Y259751D01*
X116938Y259653D01*
X116960Y259549D01*
X116998Y259456D01*
X117036Y259369D01*
X117080Y259298D01*
X117118Y259238D01*
X117129Y259216D01*
X117140Y259200D01*
X117151Y259194D01*
Y259189D01*
X117195Y259128D01*
X117249Y259068D01*
X117309Y259003D01*
X117375Y258937D01*
X117511Y258806D01*
X117648Y258675D01*
X117719Y258615D01*
X117779Y258561D01*
X117839Y258512D01*
X117888Y258468D01*
X117927Y258435D01*
X117959Y258408D01*
X117981Y258391D01*
X117987Y258386D01*
X118123Y258271D01*
X118249Y258162D01*
X118352Y258064D01*
X118434Y257982D01*
X118505Y257911D01*
X118554Y257862D01*
X118582Y257829D01*
X118593Y257824D01*
Y257818D01*
X118669Y257725D01*
X118729Y257638D01*
X118784Y257551D01*
X118827Y257474D01*
X118860Y257409D01*
X118882Y257360D01*
X118893Y257327D01*
X118898Y257321D01*
Y257316D01*
X118920Y257256D01*
X118931Y257201D01*
X118942Y257147D01*
X118948Y257097D01*
X118953Y257054D01*
Y257021D01*
Y256999D01*
Y256994D01*
X116447D01*
Y257441D01*
X118309D01*
X118243Y257534D01*
X118210Y257572D01*
X118183Y257611D01*
X118156Y257643D01*
X118134Y257665D01*
X118118Y257682D01*
X118112Y257687D01*
X118085Y257714D01*
X118052Y257742D01*
X117976Y257813D01*
X117888Y257895D01*
X117795Y257977D01*
X117708Y258048D01*
X117670Y258080D01*
X117637Y258113D01*
X117610Y258135D01*
X117588Y258151D01*
X117577Y258162D01*
X117572Y258168D01*
X117484Y258244D01*
X117397Y258315D01*
X117320Y258386D01*
X117249Y258446D01*
X117184Y258506D01*
X117129Y258561D01*
X117075Y258610D01*
X117031Y258653D01*
X116987Y258697D01*
X116955Y258730D01*
X116927Y258757D01*
X116900Y258785D01*
X116873Y258817D01*
X116862Y258828D01*
X116785Y258921D01*
X116720Y259003D01*
X116665Y259085D01*
X116621Y259150D01*
X116589Y259210D01*
X116567Y259254D01*
X116556Y259281D01*
X116551Y259292D01*
X116518Y259374D01*
X116496Y259456D01*
X116474Y259533D01*
X116463Y259598D01*
X116458Y259658D01*
X116452Y259702D01*
Y259729D01*
Y259740D01*
X116458Y259822D01*
X116469Y259898D01*
X116480Y259975D01*
X116501Y260040D01*
X116556Y260171D01*
X116611Y260275D01*
X116643Y260324D01*
X116671Y260363D01*
X116698Y260401D01*
X116725Y260428D01*
X116747Y260450D01*
X116758Y260472D01*
X116769Y260477D01*
X116774Y260483D01*
X116834Y260537D01*
X116900Y260586D01*
X116971Y260625D01*
X117042Y260657D01*
X117184Y260712D01*
X117326Y260750D01*
X117386Y260761D01*
X117446Y260772D01*
X117501Y260777D01*
X117544Y260783D01*
X117582Y260788D01*
X117637D01*
X117735Y260783D01*
D02*
G37*
G36*
X115868Y258779D02*
X115431Y258719D01*
X115393Y258779D01*
X115344Y258828D01*
X115300Y258877D01*
X115257Y258916D01*
X115213Y258943D01*
X115180Y258970D01*
X115158Y258981D01*
X115153Y258987D01*
X115082Y259019D01*
X115011Y259047D01*
X114945Y259063D01*
X114880Y259079D01*
X114825Y259085D01*
X114781Y259090D01*
X114678D01*
X114612Y259079D01*
X114498Y259052D01*
X114399Y259014D01*
X114312Y258976D01*
X114246Y258932D01*
X114197Y258894D01*
X114170Y258867D01*
X114159Y258861D01*
Y258856D01*
X114083Y258763D01*
X114028Y258664D01*
X113990Y258561D01*
X113962Y258457D01*
X113946Y258370D01*
X113941Y258331D01*
Y258299D01*
X113935Y258271D01*
Y258249D01*
Y258239D01*
Y258233D01*
Y258157D01*
X113946Y258086D01*
X113973Y257949D01*
X114012Y257835D01*
X114050Y257742D01*
X114093Y257665D01*
X114132Y257605D01*
X114148Y257589D01*
X114159Y257572D01*
X114164Y257567D01*
X114170Y257561D01*
X114214Y257518D01*
X114257Y257480D01*
X114356Y257414D01*
X114448Y257370D01*
X114541Y257343D01*
X114618Y257321D01*
X114683Y257316D01*
X114705Y257310D01*
X114738D01*
X114842Y257316D01*
X114934Y257338D01*
X115016Y257365D01*
X115082Y257398D01*
X115142Y257431D01*
X115185Y257458D01*
X115207Y257480D01*
X115218Y257485D01*
X115284Y257561D01*
X115338Y257643D01*
X115382Y257736D01*
X115415Y257818D01*
X115437Y257900D01*
X115453Y257960D01*
X115459Y257987D01*
X115464Y258004D01*
Y258015D01*
Y258020D01*
X115950Y257982D01*
X115939Y257895D01*
X115923Y257813D01*
X115874Y257660D01*
X115813Y257529D01*
X115781Y257469D01*
X115748Y257420D01*
X115721Y257370D01*
X115688Y257327D01*
X115661Y257294D01*
X115633Y257267D01*
X115611Y257245D01*
X115601Y257223D01*
X115590Y257218D01*
X115584Y257212D01*
X115519Y257163D01*
X115453Y257119D01*
X115382Y257081D01*
X115311Y257048D01*
X115175Y256999D01*
X115038Y256966D01*
X114978Y256950D01*
X114918Y256944D01*
X114869Y256939D01*
X114825Y256934D01*
X114787Y256928D01*
X114738D01*
X114623Y256934D01*
X114514Y256950D01*
X114410Y256972D01*
X114317Y256999D01*
X114230Y257037D01*
X114148Y257076D01*
X114072Y257114D01*
X114006Y257157D01*
X113946Y257201D01*
X113891Y257239D01*
X113848Y257283D01*
X113810Y257316D01*
X113782Y257343D01*
X113760Y257365D01*
X113750Y257381D01*
X113744Y257387D01*
X113689Y257458D01*
X113646Y257534D01*
X113602Y257605D01*
X113569Y257682D01*
X113515Y257829D01*
X113482Y257971D01*
X113471Y258031D01*
X113460Y258091D01*
X113455Y258140D01*
X113449Y258184D01*
X113444Y258222D01*
Y258249D01*
Y258266D01*
Y258271D01*
X113449Y258370D01*
X113460Y258462D01*
X113477Y258555D01*
X113498Y258637D01*
X113526Y258714D01*
X113553Y258790D01*
X113586Y258856D01*
X113613Y258916D01*
X113646Y258970D01*
X113679Y259019D01*
X113706Y259058D01*
X113733Y259096D01*
X113755Y259123D01*
X113771Y259139D01*
X113782Y259150D01*
X113788Y259156D01*
X113853Y259216D01*
X113919Y259271D01*
X113990Y259314D01*
X114061Y259352D01*
X114132Y259391D01*
X114203Y259418D01*
X114334Y259456D01*
X114394Y259472D01*
X114448Y259483D01*
X114498Y259489D01*
X114541Y259494D01*
X114574Y259500D01*
X114694D01*
X114760Y259489D01*
X114891Y259462D01*
X115011Y259423D01*
X115120Y259380D01*
X115207Y259336D01*
X115246Y259314D01*
X115278Y259298D01*
X115306Y259281D01*
X115322Y259271D01*
X115333Y259265D01*
X115338Y259260D01*
X115136Y260281D01*
X113624D01*
Y260723D01*
X115502D01*
X115868Y258779D01*
D02*
G37*
G36*
X120018Y258168D02*
Y258053D01*
X120029Y257955D01*
X120034Y257873D01*
X120045Y257807D01*
X120056Y257758D01*
X120061Y257720D01*
X120072Y257698D01*
Y257693D01*
X120094Y257638D01*
X120121Y257594D01*
X120154Y257556D01*
X120181Y257518D01*
X120214Y257496D01*
X120236Y257474D01*
X120252Y257463D01*
X120258Y257458D01*
X120312Y257431D01*
X120367Y257409D01*
X120422Y257398D01*
X120471Y257387D01*
X120520Y257381D01*
X120553Y257376D01*
X120586D01*
X120673Y257381D01*
X120755Y257403D01*
X120820Y257425D01*
X120880Y257458D01*
X120924Y257485D01*
X120957Y257512D01*
X120979Y257529D01*
X120984Y257534D01*
X121011Y257567D01*
X121033Y257605D01*
X121066Y257693D01*
X121099Y257791D01*
X121115Y257889D01*
X121132Y257982D01*
Y258020D01*
X121137Y258053D01*
X121142Y258086D01*
Y258107D01*
Y258118D01*
Y258124D01*
X121596Y258058D01*
Y257955D01*
X121590Y257862D01*
X121574Y257769D01*
X121563Y257687D01*
X121541Y257611D01*
X121519Y257545D01*
X121497Y257480D01*
X121476Y257425D01*
X121448Y257376D01*
X121426Y257332D01*
X121405Y257294D01*
X121383Y257267D01*
X121366Y257245D01*
X121355Y257223D01*
X121350Y257218D01*
X121344Y257212D01*
X121290Y257163D01*
X121235Y257119D01*
X121175Y257081D01*
X121110Y257048D01*
X120984Y256999D01*
X120864Y256966D01*
X120749Y256944D01*
X120706Y256939D01*
X120662Y256934D01*
X120629Y256928D01*
X120580D01*
X120460Y256934D01*
X120351Y256950D01*
X120252Y256972D01*
X120165Y256999D01*
X120094Y257021D01*
X120045Y257043D01*
X120012Y257059D01*
X120001Y257065D01*
X119914Y257119D01*
X119837Y257185D01*
X119777Y257250D01*
X119723Y257310D01*
X119685Y257370D01*
X119657Y257414D01*
X119641Y257447D01*
X119635Y257452D01*
Y257458D01*
X119597Y257567D01*
X119564Y257682D01*
X119543Y257807D01*
X119532Y257927D01*
X119521Y258031D01*
Y258075D01*
X119515Y258118D01*
Y258151D01*
Y258173D01*
Y258189D01*
Y258195D01*
Y260772D01*
X120018D01*
Y258168D01*
D02*
G37*
D114*
X95557Y247518D02*
X94736Y246949D01*
X93929Y246359D01*
X93138Y245750D01*
X92361Y245120D01*
X91601Y244472D01*
X90857Y243804D01*
X90131Y243118D01*
X89422Y242414D01*
X88730Y241693D01*
X88058Y240954D01*
X87403Y240199D01*
X86768Y239427D01*
X86153Y238640D01*
X85557Y237838D01*
X84982Y237021D01*
X84428Y236189D01*
X83894Y235344D01*
X83382Y234486D01*
X82892Y233616D01*
X82423Y232733D01*
X81977Y231839D01*
X81554Y230934D01*
X81153Y230018D01*
X80776Y229093D01*
X80422Y228159D01*
X80091Y227216D01*
X79784Y226265D01*
X79501Y225307D01*
X79243Y224341D01*
X79008Y223370D01*
X78798Y222393D01*
X78613Y221411D01*
X78452Y220425D01*
X78316Y219435D01*
X78206Y218442D01*
X78119Y217446D01*
X78059Y216449D01*
X78023Y215450D01*
X78012Y214451D01*
X78026Y213452D01*
X78066Y212454D01*
X78130Y211456D01*
X78219Y210461D01*
X78334Y209468D01*
X78473Y208479D01*
X78637Y207493D01*
X78826Y206512D01*
X79039Y205536D01*
X79277Y204565D01*
X79539Y203601D01*
X79825Y202643D01*
X80135Y201694D01*
X80469Y200752D01*
X80826Y199819D01*
X81207Y198895D01*
X81611Y197981D01*
X82037Y197077D01*
X82486Y196184D01*
X82958Y195303D01*
X83451Y194434D01*
X83966Y193578D01*
X84503Y192735D01*
X85060Y191906D01*
X85638Y191091D01*
X86236Y190290D01*
X86854Y189505D01*
X87492Y188736D01*
X88149Y187983D01*
X88824Y187246D01*
X89518Y186527D01*
X90230Y185826D01*
X90959Y185142D01*
X91705Y184477D01*
X92467Y183831D01*
X93245Y183205D01*
X94039Y182598D01*
X94848Y182011D01*
X95671Y181445D01*
X96509Y180899D01*
X97359Y180375D01*
X98223Y179872D01*
X99099Y179392D01*
X99986Y178933D01*
X100885Y178496D01*
X101795Y178083D01*
X102715Y177692D01*
X103644Y177325D01*
X104582Y176981D01*
X105528Y176660D01*
X106483Y176364D01*
X107444Y176091D01*
X108412Y175843D01*
X109386Y175619D01*
X110365Y175420D01*
X111349Y175245D01*
X112337Y175095D01*
X113328Y174970D01*
X114322Y174870D01*
X115319Y174795D01*
X116317Y174745D01*
X117316Y174720D01*
X118315Y174720D01*
X119314Y174745D01*
X120312Y174795D01*
X121308Y174870D01*
X122302Y174970D01*
X123294Y175095D01*
X124282Y175245D01*
X125266Y175420D01*
X126245Y175619D01*
X127219Y175843D01*
X128187Y176092D01*
X129148Y176364D01*
X130102Y176661D01*
X131049Y176981D01*
X131987Y177325D01*
X132916Y177692D01*
X133836Y178083D01*
X134745Y178497D01*
X135644Y178933D01*
X136532Y179392D01*
X137408Y179873D01*
X138271Y180376D01*
X139122Y180900D01*
X139959Y181445D01*
X140782Y182011D01*
X141591Y182598D01*
X142385Y183205D01*
X143163Y183832D01*
X143926Y184478D01*
X144672Y185143D01*
X145401Y185826D01*
X146112Y186528D01*
X146806Y187247D01*
X147481Y187983D01*
X148138Y188736D01*
X148776Y189506D01*
X149394Y190291D01*
X149992Y191091D01*
X150570Y191906D01*
X151128Y192735D01*
X151664Y193579D01*
X152179Y194435D01*
X152672Y195304D01*
X153144Y196185D01*
X153593Y197077D01*
X154019Y197981D01*
X154423Y198895D01*
X154804Y199819D01*
X155161Y200752D01*
X155495Y201694D01*
X155805Y202644D01*
X156091Y203601D01*
X156353Y204566D01*
X156591Y205536D01*
X156804Y206512D01*
X156993Y207493D01*
X157157Y208479D01*
X157296Y209469D01*
X157411Y210461D01*
X157500Y211456D01*
X157564Y212454D01*
X157604Y213452D01*
X157618Y214451D01*
X157607Y215451D01*
X157571Y216449D01*
X157510Y217446D01*
X157424Y218442D01*
X157313Y219435D01*
X157178Y220425D01*
X157017Y221411D01*
X156832Y222393D01*
X156622Y223370D01*
X156387Y224341D01*
X156129Y225307D01*
X155846Y226265D01*
X155539Y227216D01*
X155208Y228159D01*
X154854Y229093D01*
X154477Y230018D01*
X154076Y230934D01*
X153653Y231839D01*
X153207Y232733D01*
X152738Y233616D01*
X152248Y234486D01*
X151736Y235344D01*
X151202Y236189D01*
X150648Y237021D01*
X150073Y237838D01*
X149477Y238640D01*
X148862Y239427D01*
X148227Y240199D01*
X147573Y240954D01*
X146899Y241693D01*
X146208Y242414D01*
X145499Y243118D01*
X144773Y243804D01*
X144029Y244472D01*
X143269Y245120D01*
X142493Y245750D01*
X141701Y246359D01*
X140894Y246949D01*
X140073Y247518D01*
X91465Y252244D02*
X90645Y251678D01*
X89836Y251094D01*
X89041Y250493D01*
X88258Y249875D01*
X87489Y249240D01*
X86734Y248589D01*
X85993Y247922D01*
X85267Y247239D01*
X84555Y246541D01*
X83858Y245827D01*
X83177Y245099D01*
X82512Y244357D01*
X81862Y243600D01*
X81230Y242829D01*
X80613Y242045D01*
X80014Y241248D01*
X79432Y240439D01*
X78868Y239617D01*
X78321Y238783D01*
X77793Y237938D01*
X77282Y237081D01*
X76790Y236214D01*
X76317Y235336D01*
X75863Y234449D01*
X75428Y233552D01*
X75012Y232645D01*
X74616Y231730D01*
X74239Y230807D01*
X73883Y229876D01*
X73546Y228937D01*
X73230Y227992D01*
X72934Y227040D01*
X72659Y226081D01*
X72404Y225117D01*
X72170Y224148D01*
X71957Y223174D01*
X71765Y222196D01*
X71593Y221213D01*
X71443Y220228D01*
X71315Y219239D01*
X71207Y218248D01*
X71121Y217254D01*
X71056Y216259D01*
X71012Y215263D01*
X70990Y214266D01*
X70989Y213269D01*
X71010Y212272D01*
X71052Y211276D01*
X71115Y210281D01*
X71200Y209288D01*
X71306Y208296D01*
X71433Y207307D01*
X71581Y206321D01*
X71751Y205339D01*
X71941Y204360D01*
X72153Y203386D01*
X72385Y202416D01*
X72638Y201452D01*
X72912Y200493D01*
X73207Y199540D01*
X73521Y198594D01*
X73856Y197655D01*
X74211Y196723D01*
X74586Y195800D01*
X74981Y194884D01*
X75395Y193977D01*
X75829Y193079D01*
X76282Y192191D01*
X76753Y191312D01*
X77244Y190444D01*
X77753Y189587D01*
X78280Y188741D01*
X78825Y187906D01*
X79388Y187083D01*
X156242D02*
X156805Y187906D01*
X157350Y188741D01*
X157877Y189587D01*
X158386Y190445D01*
X158877Y191313D01*
X159348Y192191D01*
X159801Y193079D01*
X160235Y193977D01*
X160649Y194884D01*
X161044Y195800D01*
X161419Y196724D01*
X161774Y197655D01*
X162109Y198595D01*
X162423Y199541D01*
X162718Y200493D01*
X162991Y201452D01*
X163245Y202416D01*
X163477Y203386D01*
X163689Y204361D01*
X163879Y205339D01*
X164049Y206322D01*
X164197Y207308D01*
X164324Y208297D01*
X164430Y209288D01*
X164515Y210282D01*
X164578Y211277D01*
X164620Y212273D01*
X164641Y213270D01*
X164640Y214267D01*
X164618Y215264D01*
X164574Y216260D01*
X164509Y217255D01*
X164423Y218248D01*
X164315Y219239D01*
X164187Y220228D01*
X164036Y221214D01*
X163865Y222196D01*
X163673Y223174D01*
X163460Y224148D01*
X163226Y225118D01*
X162971Y226082D01*
X162696Y227040D01*
X162400Y227992D01*
X162083Y228938D01*
X161747Y229876D01*
X161390Y230807D01*
X161014Y231731D01*
X160618Y232646D01*
X160202Y233552D01*
X159767Y234449D01*
X159313Y235337D01*
X158840Y236214D01*
X158348Y237082D01*
X157837Y237938D01*
X157309Y238784D01*
X156762Y239617D01*
X156197Y240439D01*
X155615Y241249D01*
X155016Y242046D01*
X154400Y242830D01*
X153767Y243600D01*
X153118Y244357D01*
X152453Y245099D01*
X151771Y245828D01*
X151075Y246541D01*
X150363Y247239D01*
X149636Y247922D01*
X148896Y248589D01*
X148140Y249240D01*
X147371Y249875D01*
X146589Y250493D01*
X145793Y251094D01*
X144985Y251678D01*
X144165Y252244D01*
X137500Y155445D02*
X156201Y187059D01*
X79429Y187058D02*
X98130Y155445D01*
X125886Y247532D02*
X139665D01*
X95965D02*
X109744D01*
X91465Y252244D02*
X95965Y247532D01*
X139665D02*
X144164Y252245D01*
X125984Y155445D02*
X137500D01*
X98130D02*
X109646D01*
M02*
