G04*
G04 #@! TF.GenerationSoftware,Altium Limited,Altium Designer,22.8.2 (66)*
G04*
G04 Layer_Physical_Order=1*
G04 Layer_Color=255*
%FSLAX25Y25*%
%MOIN*%
G70*
G04*
G04 #@! TF.SameCoordinates,5F49627D-DEE9-4624-BC3F-D8BBA2157F25*
G04*
G04*
G04 #@! TF.FilePolarity,Positive*
G04*
G01*
G75*
%ADD10C,0.01000*%
%ADD12C,0.00984*%
%ADD14C,0.00394*%
%ADD16C,0.00500*%
%ADD17R,0.01968X0.03937*%
%ADD18R,0.02913X0.10984*%
%ADD19R,0.03937X0.01968*%
%ADD20R,0.04803X0.03583*%
%ADD21R,0.08937X0.06299*%
%ADD22R,0.02756X0.03150*%
%ADD23R,0.02362X0.03150*%
%ADD24C,0.03937*%
%ADD25R,0.11811X0.06299*%
%ADD26R,0.26378X0.26378*%
%ADD27R,0.03740X0.03543*%
%ADD28R,0.08661X0.06102*%
%ADD29R,0.01181X0.05807*%
%ADD30R,0.05807X0.01181*%
%ADD31R,0.03150X0.02362*%
%ADD32R,0.02756X0.02953*%
%ADD33R,0.03150X0.02756*%
%ADD34R,0.02559X0.07284*%
%ADD35R,0.02559X0.06004*%
%ADD36R,0.05512X0.04724*%
%ADD37R,0.02362X0.04921*%
%ADD38R,0.03543X0.03937*%
%ADD39R,0.03937X0.03543*%
%ADD40R,0.14173X0.05906*%
%ADD41R,0.29134X0.18110*%
%ADD42R,0.01181X0.06496*%
%ADD43R,0.04724X0.05512*%
%ADD44R,0.10236X0.10236*%
%ADD45R,0.01181X0.03347*%
%ADD46R,0.03347X0.01181*%
%ADD47R,0.02953X0.02756*%
%ADD48R,0.02362X0.04528*%
%ADD49R,0.05000X0.10000*%
%ADD50R,0.13386X0.06299*%
%ADD51R,0.03937X0.08268*%
%ADD52R,0.07874X0.04724*%
%ADD53R,0.07087X0.05118*%
%ADD54R,0.05118X0.07087*%
%ADD55R,0.08000X0.08000*%
%ADD56R,0.01181X0.05709*%
%ADD57R,0.25984X0.12992*%
%ADD114C,0.02362*%
%ADD115C,0.03543*%
%ADD116C,0.01181*%
%ADD117C,0.02000*%
%ADD118C,0.04724*%
%ADD119C,0.05118*%
%ADD120C,0.02756*%
%ADD121C,0.05512*%
%ADD122C,0.12598*%
%ADD123C,0.09843*%
%ADD124C,0.09449*%
%ADD125C,0.13780*%
%ADD126C,0.05906*%
%ADD127O,0.21260X0.10236*%
%ADD128O,0.18110X0.09055*%
%ADD129C,0.02756*%
G36*
X237480Y356871D02*
X237148Y356579D01*
X234276D01*
X233772Y356870D01*
X232921Y357098D01*
X232040D01*
X231189Y356870D01*
X230426Y356429D01*
X229802Y355806D01*
X229362Y355043D01*
X229134Y354192D01*
Y353311D01*
X229362Y352460D01*
X229802Y351696D01*
X230426Y351073D01*
X231189Y350633D01*
X232040Y350405D01*
X232921D01*
X233733Y350622D01*
X235914D01*
X237480Y349056D01*
Y341732D01*
X225630D01*
Y346850D01*
X223484D01*
Y350555D01*
X223772Y350633D01*
X224535Y351073D01*
X225158Y351696D01*
X225599Y352460D01*
X225827Y353311D01*
Y354192D01*
X225599Y355043D01*
X225158Y355806D01*
X224535Y356429D01*
X223772Y356870D01*
X223484Y356947D01*
Y372537D01*
X224489Y373542D01*
X225429Y373000D01*
X226781Y372638D01*
X228180D01*
X229532Y373000D01*
X230744Y373700D01*
X231733Y374689D01*
X232433Y375901D01*
X232795Y377253D01*
Y378653D01*
X232433Y380004D01*
X231733Y381216D01*
X230744Y382206D01*
X229532Y382906D01*
X228180Y383268D01*
X226781D01*
X225429Y382906D01*
X224217Y382206D01*
X223227Y381216D01*
X222528Y380004D01*
X222165Y378653D01*
Y377253D01*
X222528Y375901D01*
X223070Y374962D01*
X221771Y373662D01*
X221553Y373337D01*
X221477Y372953D01*
Y356947D01*
X221189Y356870D01*
X220426Y356429D01*
X219802Y355806D01*
X219362Y355043D01*
X219134Y354192D01*
Y353311D01*
X219362Y352460D01*
X219802Y351696D01*
X220426Y351073D01*
X221189Y350633D01*
X221477Y350555D01*
Y346850D01*
X219331D01*
Y341732D01*
X205630D01*
Y346850D01*
X203484D01*
Y350555D01*
X203772Y350633D01*
X204535Y351073D01*
X205158Y351696D01*
X205599Y352460D01*
X205827Y353311D01*
Y354192D01*
X205599Y355043D01*
X205158Y355806D01*
X204535Y356429D01*
X203772Y356870D01*
X203484Y356947D01*
Y372537D01*
X204489Y373542D01*
X205429Y373000D01*
X206781Y372638D01*
X208180D01*
X209532Y373000D01*
X210744Y373700D01*
X211733Y374689D01*
X212433Y375901D01*
X212795Y377253D01*
Y378653D01*
X212433Y380004D01*
X211733Y381216D01*
X210744Y382206D01*
X209532Y382906D01*
X208180Y383268D01*
X206781D01*
X205429Y382906D01*
X204217Y382206D01*
X203227Y381216D01*
X202527Y380004D01*
X202165Y378653D01*
Y377253D01*
X202527Y375901D01*
X203070Y374962D01*
X201771Y373662D01*
X201553Y373337D01*
X201477Y372953D01*
Y356947D01*
X201189Y356870D01*
X200426Y356429D01*
X199802Y355806D01*
X199362Y355043D01*
X199134Y354192D01*
Y353311D01*
X199362Y352460D01*
X199802Y351696D01*
X200426Y351073D01*
X201189Y350633D01*
X201477Y350555D01*
Y346850D01*
X199331D01*
Y341732D01*
X185630D01*
Y346850D01*
X183484D01*
Y350555D01*
X183772Y350633D01*
X184535Y351073D01*
X185158Y351696D01*
X185599Y352460D01*
X185827Y353311D01*
Y354192D01*
X185599Y355043D01*
X185158Y355806D01*
X184535Y356429D01*
X183772Y356870D01*
X183484Y356947D01*
Y372537D01*
X184489Y373542D01*
X185429Y373000D01*
X186781Y372638D01*
X188180D01*
X189532Y373000D01*
X190744Y373700D01*
X191733Y374689D01*
X192433Y375901D01*
X192795Y377253D01*
Y378653D01*
X192433Y380004D01*
X191733Y381216D01*
X190744Y382206D01*
X189532Y382906D01*
X188180Y383268D01*
X186781D01*
X185429Y382906D01*
X184217Y382206D01*
X183227Y381216D01*
X182527Y380004D01*
X182165Y378653D01*
Y377253D01*
X182527Y375901D01*
X183070Y374962D01*
X181771Y373662D01*
X181553Y373337D01*
X181477Y372953D01*
Y356947D01*
X181189Y356870D01*
X180426Y356429D01*
X179803Y355806D01*
X179362Y355043D01*
X179134Y354192D01*
Y353311D01*
X179362Y352460D01*
X179803Y351696D01*
X180426Y351073D01*
X181189Y350633D01*
X181477Y350555D01*
Y346850D01*
X179331D01*
Y341732D01*
X165630D01*
Y346850D01*
X163484D01*
Y350555D01*
X163772Y350633D01*
X164535Y351073D01*
X165158Y351696D01*
X165599Y352460D01*
X165827Y353311D01*
Y354192D01*
X165599Y355043D01*
X165158Y355806D01*
X164535Y356429D01*
X163772Y356870D01*
X163484Y356947D01*
Y372537D01*
X164489Y373542D01*
X165429Y373000D01*
X166781Y372638D01*
X168180D01*
X169532Y373000D01*
X170744Y373700D01*
X171733Y374689D01*
X172433Y375901D01*
X172795Y377253D01*
Y378653D01*
X172433Y380004D01*
X171733Y381216D01*
X170744Y382206D01*
X169532Y382906D01*
X168180Y383268D01*
X166781D01*
X165429Y382906D01*
X164217Y382206D01*
X163227Y381216D01*
X162528Y380004D01*
X162165Y378653D01*
Y377253D01*
X162528Y375901D01*
X163070Y374962D01*
X161771Y373662D01*
X161553Y373337D01*
X161477Y372953D01*
Y356947D01*
X161189Y356870D01*
X160425Y356429D01*
X159802Y355806D01*
X159362Y355043D01*
X159134Y354192D01*
Y353311D01*
X159362Y352460D01*
X159802Y351696D01*
X160425Y351073D01*
X161189Y350633D01*
X161477Y350555D01*
Y346850D01*
X159331D01*
Y341732D01*
X145630D01*
Y346850D01*
X143484D01*
Y350555D01*
X143772Y350633D01*
X144535Y351073D01*
X145158Y351696D01*
X145599Y352460D01*
X145827Y353311D01*
Y354192D01*
X145599Y355043D01*
X145158Y355806D01*
X144535Y356429D01*
X143772Y356870D01*
X143484Y356947D01*
Y372537D01*
X144489Y373542D01*
X145429Y373000D01*
X146781Y372638D01*
X148180D01*
X149532Y373000D01*
X150744Y373700D01*
X151733Y374689D01*
X152433Y375901D01*
X152795Y377253D01*
Y378653D01*
X152433Y380004D01*
X151733Y381216D01*
X150744Y382206D01*
X149532Y382906D01*
X148180Y383268D01*
X146781D01*
X145429Y382906D01*
X144217Y382206D01*
X143227Y381216D01*
X142527Y380004D01*
X142165Y378653D01*
Y377253D01*
X142527Y375901D01*
X143070Y374962D01*
X141771Y373662D01*
X141553Y373337D01*
X141477Y372953D01*
Y356947D01*
X141189Y356870D01*
X140426Y356429D01*
X139803Y355806D01*
X139362Y355043D01*
X139134Y354192D01*
Y353311D01*
X139362Y352460D01*
X139803Y351696D01*
X140426Y351073D01*
X141189Y350633D01*
X141477Y350555D01*
Y346850D01*
X139331D01*
Y341732D01*
X125630D01*
Y346850D01*
X123484D01*
Y350555D01*
X123772Y350633D01*
X124535Y351073D01*
X125158Y351696D01*
X125599Y352460D01*
X125827Y353311D01*
Y354192D01*
X125599Y355043D01*
X125158Y355806D01*
X124535Y356429D01*
X123772Y356870D01*
X123484Y356947D01*
Y372537D01*
X124489Y373542D01*
X125429Y373000D01*
X126781Y372638D01*
X128180D01*
X129532Y373000D01*
X130744Y373700D01*
X131733Y374689D01*
X132433Y375901D01*
X132795Y377253D01*
Y378653D01*
X132433Y380004D01*
X131733Y381216D01*
X130744Y382206D01*
X129532Y382906D01*
X128180Y383268D01*
X126781D01*
X125429Y382906D01*
X124217Y382206D01*
X123227Y381216D01*
X122528Y380004D01*
X122165Y378653D01*
Y377253D01*
X122528Y375901D01*
X123070Y374962D01*
X121771Y373662D01*
X121553Y373337D01*
X121477Y372953D01*
Y356947D01*
X121189Y356870D01*
X120425Y356429D01*
X119802Y355806D01*
X119362Y355043D01*
X119134Y354192D01*
Y353311D01*
X119362Y352460D01*
X119802Y351696D01*
X120425Y351073D01*
X121189Y350633D01*
X121477Y350555D01*
Y346850D01*
X119331D01*
Y341732D01*
X105630D01*
Y346850D01*
X103484D01*
Y350555D01*
X103772Y350633D01*
X104535Y351073D01*
X105158Y351696D01*
X105599Y352460D01*
X105827Y353311D01*
Y354192D01*
X105599Y355043D01*
X105158Y355806D01*
X104535Y356429D01*
X103772Y356870D01*
X103484Y356947D01*
Y372537D01*
X104489Y373542D01*
X105429Y373000D01*
X106781Y372638D01*
X108180D01*
X109532Y373000D01*
X110744Y373700D01*
X111733Y374689D01*
X112433Y375901D01*
X112795Y377253D01*
Y378653D01*
X112433Y380004D01*
X111733Y381216D01*
X110744Y382206D01*
X109532Y382906D01*
X108180Y383268D01*
X106781D01*
X105429Y382906D01*
X104217Y382206D01*
X103227Y381216D01*
X102527Y380004D01*
X102165Y378653D01*
Y377253D01*
X102527Y375901D01*
X103070Y374962D01*
X101771Y373662D01*
X101553Y373337D01*
X101477Y372953D01*
Y356947D01*
X101189Y356870D01*
X100426Y356429D01*
X99803Y355806D01*
X99362Y355043D01*
X99134Y354192D01*
Y353311D01*
X99362Y352460D01*
X99803Y351696D01*
X100426Y351073D01*
X101189Y350633D01*
X101477Y350555D01*
Y346850D01*
X99331D01*
Y341732D01*
X85630D01*
Y346850D01*
X83484D01*
Y350555D01*
X83772Y350633D01*
X84535Y351073D01*
X85158Y351696D01*
X85599Y352460D01*
X85827Y353311D01*
Y354192D01*
X85599Y355043D01*
X85158Y355806D01*
X84535Y356429D01*
X83772Y356870D01*
X83484Y356947D01*
Y372537D01*
X84489Y373542D01*
X85429Y373000D01*
X86781Y372638D01*
X88180D01*
X89532Y373000D01*
X90744Y373700D01*
X91733Y374689D01*
X92433Y375901D01*
X92795Y377253D01*
Y378653D01*
X92433Y380004D01*
X91733Y381216D01*
X90744Y382206D01*
X89532Y382906D01*
X88180Y383268D01*
X86781D01*
X85429Y382906D01*
X84217Y382206D01*
X83227Y381216D01*
X82528Y380004D01*
X82165Y378653D01*
Y377253D01*
X82528Y375901D01*
X83070Y374962D01*
X81771Y373662D01*
X81553Y373337D01*
X81477Y372953D01*
Y356947D01*
X81189Y356870D01*
X80426Y356429D01*
X79803Y355806D01*
X79362Y355043D01*
X79134Y354192D01*
Y353311D01*
X79362Y352460D01*
X79803Y351696D01*
X80426Y351073D01*
X81189Y350633D01*
X81477Y350555D01*
Y346850D01*
X79331D01*
Y341732D01*
X77728D01*
Y348917D01*
X77573Y349698D01*
X77480Y349836D01*
Y350065D01*
X77573Y350204D01*
X77728Y350984D01*
Y377953D01*
X77573Y378733D01*
X77480Y378872D01*
Y380118D01*
X62367D01*
X61733Y381216D01*
X60744Y382206D01*
X59532Y382906D01*
X58180Y383268D01*
X56781D01*
X55429Y382906D01*
X54217Y382206D01*
X53227Y381216D01*
X52593Y380118D01*
X48114D01*
Y348721D01*
X36890D01*
Y348693D01*
X28839D01*
X28058Y348537D01*
X27397Y348095D01*
X26955Y347434D01*
X26799Y346654D01*
Y342323D01*
X26673D01*
Y321457D01*
X39469D01*
X39469Y336122D01*
X78445D01*
Y333661D01*
X93602D01*
X113976Y313287D01*
Y304035D01*
X106988Y297047D01*
X75858D01*
Y319783D01*
X75703Y320564D01*
X75534Y320817D01*
X75703Y321070D01*
X75858Y321850D01*
Y328445D01*
X75703Y329225D01*
X75261Y329887D01*
X74599Y330329D01*
X73819Y330484D01*
X50295D01*
X49515Y330329D01*
X48853Y329887D01*
X48411Y329225D01*
X48256Y328445D01*
Y313287D01*
X48114D01*
X17519Y313287D01*
Y123681D01*
X16339D01*
Y119744D01*
X16339D01*
Y118957D01*
X16339D01*
Y115020D01*
X17519D01*
Y41142D01*
X88617D01*
X89535Y40945D01*
Y34646D01*
X91288D01*
Y21701D01*
X90395Y20809D01*
X89448Y21063D01*
X88048D01*
X86696Y20701D01*
X85485Y20001D01*
X84495Y19012D01*
X83795Y17799D01*
X83433Y16448D01*
Y15048D01*
X83795Y13697D01*
X84495Y12485D01*
X85485Y11495D01*
X86696Y10795D01*
X88048Y10433D01*
X89448D01*
X90799Y10795D01*
X92011Y11495D01*
X93001Y12485D01*
X93701Y13697D01*
X94063Y15048D01*
Y16448D01*
X93701Y17799D01*
X93001Y19012D01*
X92219Y19794D01*
X93001Y20576D01*
X93218Y20902D01*
X93295Y21286D01*
Y34646D01*
X95047D01*
Y39201D01*
X95257Y39341D01*
X97057Y41142D01*
X108617D01*
X109535Y40945D01*
Y34646D01*
X111288D01*
Y21701D01*
X110396Y20809D01*
X109448Y21063D01*
X108048D01*
X106696Y20701D01*
X105485Y20001D01*
X104495Y19012D01*
X103795Y17799D01*
X103433Y16448D01*
Y15048D01*
X103795Y13697D01*
X104495Y12485D01*
X105485Y11495D01*
X106696Y10795D01*
X108048Y10433D01*
X109448D01*
X110800Y10795D01*
X112012Y11495D01*
X113001Y12485D01*
X113701Y13697D01*
X114063Y15048D01*
Y16448D01*
X113701Y17799D01*
X113001Y19012D01*
X112219Y19794D01*
X113001Y20576D01*
X113218Y20902D01*
X113295Y21286D01*
Y34646D01*
X115047D01*
Y39201D01*
X115257Y39341D01*
X117057Y41142D01*
X128617D01*
X129535Y40945D01*
Y34646D01*
X131288D01*
Y21701D01*
X130395Y20809D01*
X129448Y21063D01*
X128048D01*
X126697Y20701D01*
X125485Y20001D01*
X124495Y19012D01*
X123795Y17799D01*
X123433Y16448D01*
Y15048D01*
X123795Y13697D01*
X124495Y12485D01*
X125485Y11495D01*
X126697Y10795D01*
X128048Y10433D01*
X129448D01*
X130799Y10795D01*
X132011Y11495D01*
X133001Y12485D01*
X133701Y13697D01*
X134063Y15048D01*
Y16448D01*
X133701Y17799D01*
X133001Y19012D01*
X132219Y19794D01*
X133001Y20576D01*
X133219Y20902D01*
X133295Y21286D01*
Y34646D01*
X135047D01*
Y39201D01*
X135257Y39341D01*
X137057Y41142D01*
X148617D01*
X149535Y40945D01*
Y34646D01*
X151288D01*
Y21701D01*
X150396Y20809D01*
X149448Y21063D01*
X148048D01*
X146696Y20701D01*
X145485Y20001D01*
X144495Y19012D01*
X143795Y17799D01*
X143433Y16448D01*
Y15048D01*
X143795Y13697D01*
X144495Y12485D01*
X145485Y11495D01*
X146696Y10795D01*
X148048Y10433D01*
X149448D01*
X150800Y10795D01*
X152012Y11495D01*
X153001Y12485D01*
X153701Y13697D01*
X154063Y15048D01*
Y16448D01*
X153701Y17799D01*
X153001Y19012D01*
X152219Y19794D01*
X153001Y20576D01*
X153218Y20902D01*
X153295Y21286D01*
Y34646D01*
X155047D01*
Y39048D01*
X158949D01*
X159333Y39124D01*
X159658Y39341D01*
X161459Y41142D01*
X167919D01*
X169535Y39525D01*
Y34646D01*
X171288D01*
Y21701D01*
X170396Y20809D01*
X169448Y21063D01*
X168048D01*
X166697Y20701D01*
X165485Y20001D01*
X164495Y19012D01*
X163795Y17799D01*
X163433Y16448D01*
Y15048D01*
X163795Y13697D01*
X164495Y12485D01*
X165485Y11495D01*
X166697Y10795D01*
X168048Y10433D01*
X169448D01*
X170800Y10795D01*
X172011Y11495D01*
X173001Y12485D01*
X173701Y13697D01*
X174063Y15048D01*
Y16448D01*
X173701Y17799D01*
X173001Y19012D01*
X172219Y19794D01*
X173001Y20576D01*
X173219Y20902D01*
X173295Y21286D01*
Y34646D01*
X175047D01*
Y40945D01*
X175966Y41142D01*
X187919D01*
X189535Y39525D01*
Y34646D01*
X191288D01*
Y21701D01*
X190395Y20809D01*
X189448Y21063D01*
X188048D01*
X186697Y20701D01*
X185485Y20001D01*
X184495Y19012D01*
X183795Y17799D01*
X183433Y16448D01*
Y15048D01*
X183795Y13697D01*
X184495Y12485D01*
X185485Y11495D01*
X186697Y10795D01*
X188048Y10433D01*
X189448D01*
X190799Y10795D01*
X192011Y11495D01*
X193001Y12485D01*
X193701Y13697D01*
X194063Y15048D01*
Y16448D01*
X193701Y17799D01*
X193001Y19012D01*
X192219Y19794D01*
X193001Y20576D01*
X193219Y20902D01*
X193295Y21286D01*
Y34646D01*
X195047D01*
Y40945D01*
X195966Y41142D01*
X207919D01*
X209535Y39525D01*
Y34646D01*
X211288D01*
Y21568D01*
X211218Y21444D01*
X210304Y20833D01*
X209448Y21063D01*
X208048D01*
X206697Y20701D01*
X205485Y20001D01*
X204495Y19012D01*
X203795Y17799D01*
X203433Y16448D01*
Y15048D01*
X203795Y13697D01*
X204495Y12485D01*
X205485Y11495D01*
X206697Y10795D01*
X208048Y10433D01*
X209448D01*
X210800Y10795D01*
X212012Y11495D01*
X213001Y12485D01*
X213701Y13697D01*
X214063Y15048D01*
Y16448D01*
X213701Y17799D01*
X213001Y19012D01*
X212633Y19380D01*
X213001Y19748D01*
X213218Y20073D01*
X213295Y20457D01*
Y34646D01*
X215047D01*
Y40945D01*
X215966Y41142D01*
X227919D01*
X229535Y39525D01*
Y34646D01*
X231288D01*
Y21701D01*
X230395Y20809D01*
X229448Y21063D01*
X228048D01*
X226696Y20701D01*
X225485Y20001D01*
X224495Y19012D01*
X223795Y17799D01*
X223433Y16448D01*
Y15048D01*
X223795Y13697D01*
X224495Y12485D01*
X225485Y11495D01*
X226696Y10795D01*
X228048Y10433D01*
X229448D01*
X230800Y10795D01*
X232012Y11495D01*
X233001Y12485D01*
X233701Y13697D01*
X234063Y15048D01*
Y16448D01*
X233701Y17799D01*
X233001Y19012D01*
X232219Y19794D01*
X233001Y20576D01*
X233219Y20902D01*
X233295Y21286D01*
Y34646D01*
X235047D01*
Y40945D01*
X235966Y41142D01*
X238158D01*
Y911D01*
X911D01*
Y313287D01*
Y392790D01*
X237480D01*
Y356871D01*
D02*
G37*
G36*
X75689Y350984D02*
X61909D01*
Y361811D01*
X50197D01*
Y377953D01*
X75689D01*
Y350984D01*
D02*
G37*
G36*
X59842Y348917D02*
X75689D01*
Y338583D01*
X50197D01*
Y359744D01*
X59842D01*
Y348917D01*
D02*
G37*
G36*
X44783Y338189D02*
X37303D01*
Y323622D01*
X28839D01*
Y346654D01*
X44783D01*
Y338189D01*
D02*
G37*
G36*
X314049Y911D02*
X240197D01*
Y41142D01*
X240041Y41922D01*
X239599Y42584D01*
X238938Y43026D01*
X238158Y43181D01*
X238035D01*
Y56622D01*
X241358D01*
X241620Y56674D01*
X241886Y56692D01*
X242007Y56751D01*
X242139Y56778D01*
X242360Y56926D01*
X242600Y57044D01*
X242688Y57145D01*
X242800Y57219D01*
X242948Y57441D01*
X243124Y57642D01*
X243702Y58642D01*
X243787Y58894D01*
X243905Y59134D01*
X243914Y59268D01*
X243957Y59395D01*
X243940Y59661D01*
X243957Y59927D01*
X243914Y60055D01*
X243905Y60189D01*
X243787Y60428D01*
X243525Y61406D01*
Y62216D01*
X243735Y62999D01*
X244141Y63701D01*
X244714Y64275D01*
X245416Y64680D01*
X246199Y64890D01*
X247010D01*
X247793Y64680D01*
X248495Y64275D01*
X249068Y63701D01*
X249473Y62999D01*
X249683Y62216D01*
Y61406D01*
X249421Y60428D01*
X249304Y60189D01*
X249295Y60055D01*
X249251Y59927D01*
X249269Y59661D01*
X249251Y59395D01*
X249295Y59268D01*
X249304Y59134D01*
X249421Y58894D01*
X249507Y58642D01*
X250084Y57642D01*
X250260Y57441D01*
X250409Y57219D01*
X250520Y57145D01*
X250609Y57044D01*
X250848Y56926D01*
X251070Y56778D01*
X251202Y56751D01*
X251323Y56692D01*
X251589Y56674D01*
X251851Y56622D01*
X256171D01*
X256433Y56674D01*
X256699Y56692D01*
X256820Y56751D01*
X256951Y56778D01*
X257173Y56926D01*
X257413Y57044D01*
X257469Y57108D01*
X257546Y57175D01*
X257613Y57219D01*
X258107Y57590D01*
X258920Y57343D01*
X259442Y57042D01*
X260743Y56693D01*
X262091D01*
X263393Y57042D01*
X264560Y57715D01*
X265646Y57760D01*
X265721Y57722D01*
X265781Y57664D01*
X265907Y57581D01*
X265961Y57559D01*
X266005Y57521D01*
X266328Y57411D01*
X266645Y57283D01*
X266703Y57284D01*
X266758Y57265D01*
X267227Y57203D01*
X267361Y57212D01*
X267493Y57186D01*
X267754Y57238D01*
X268021Y57255D01*
X268141Y57315D01*
X268273Y57341D01*
X268495Y57489D01*
X268734Y57607D01*
X268823Y57708D01*
X268935Y57783D01*
X269745Y58594D01*
X270669Y58211D01*
Y55020D01*
X275652D01*
X276050Y54107D01*
X275523Y53445D01*
X270669D01*
Y47933D01*
X276969D01*
Y52156D01*
X278133Y53321D01*
X280528D01*
X280630Y52941D01*
X281070Y52178D01*
X281693Y51554D01*
X282456Y51114D01*
X283308Y50886D01*
X283418D01*
Y48032D01*
X283335D01*
Y42323D01*
X285503D01*
X285591Y42305D01*
X287907D01*
X289131Y41082D01*
X288748Y40158D01*
X287075D01*
Y38909D01*
X285850D01*
X285449Y39075D01*
X284744D01*
X284093Y38805D01*
X283595Y38307D01*
X283325Y37656D01*
Y36951D01*
X283595Y36300D01*
X284093Y35801D01*
X284744Y35532D01*
X285449D01*
X285850Y35698D01*
X287044D01*
Y33119D01*
X286878Y32719D01*
Y32014D01*
X287148Y31363D01*
X287646Y30864D01*
X288297Y30594D01*
X289002D01*
X289653Y30864D01*
X290152Y31363D01*
X290421Y32014D01*
Y32719D01*
X290255Y33119D01*
Y37303D01*
X290224Y37458D01*
Y38681D01*
X291148Y39064D01*
X292199Y38013D01*
Y30488D01*
X281822Y20110D01*
X280800Y20701D01*
X279448Y21063D01*
X278048D01*
X276696Y20701D01*
X275485Y20001D01*
X274495Y19012D01*
X273795Y17799D01*
X273433Y16448D01*
Y15048D01*
X273795Y13697D01*
X274495Y12485D01*
X275485Y11495D01*
X276696Y10795D01*
X278048Y10433D01*
X279448D01*
X280800Y10795D01*
X282012Y11495D01*
X283001Y12485D01*
X283701Y13697D01*
X284063Y15048D01*
Y16448D01*
X283701Y17799D01*
X283110Y18822D01*
X293755Y29466D01*
X293952Y29761D01*
X294022Y30110D01*
Y38391D01*
X293952Y38739D01*
X293755Y39035D01*
X291633Y41157D01*
X292001Y42101D01*
X292805Y42194D01*
X295690Y39309D01*
X295986Y39111D01*
X296335Y39042D01*
X296555D01*
Y36910D01*
X297626D01*
Y20950D01*
X296696Y20701D01*
X295485Y20001D01*
X294495Y19012D01*
X293795Y17799D01*
X293433Y16448D01*
Y15048D01*
X293795Y13697D01*
X294495Y12485D01*
X295485Y11495D01*
X296696Y10795D01*
X298048Y10433D01*
X299448D01*
X300799Y10795D01*
X302011Y11495D01*
X303001Y12485D01*
X303701Y13697D01*
X304063Y15048D01*
Y16448D01*
X303701Y17799D01*
X303001Y19012D01*
X302011Y20001D01*
X300799Y20701D01*
X299449Y21063D01*
Y36910D01*
X300098D01*
Y39558D01*
X304483Y43942D01*
X304680Y44238D01*
X304750Y44587D01*
Y47933D01*
X306988D01*
Y53445D01*
X300689D01*
Y47933D01*
X302927D01*
Y44964D01*
X301022Y43059D01*
X300098Y43442D01*
Y45571D01*
X299238D01*
Y49654D01*
X299169Y50002D01*
X298971Y50298D01*
X296670Y52600D01*
X296866Y52941D01*
X297094Y53792D01*
Y54673D01*
X296866Y55524D01*
X296670Y55864D01*
X297191Y56864D01*
X300689D01*
Y55020D01*
X306988D01*
Y60421D01*
X307396Y61031D01*
X307551Y61811D01*
Y66339D01*
X307461Y66790D01*
X308006Y67577D01*
X308197Y67720D01*
X308335D01*
X308986Y67990D01*
X309485Y68488D01*
X309755Y69140D01*
Y69844D01*
X309485Y70495D01*
X308986Y70994D01*
X308335Y71264D01*
X307631D01*
X307230Y71098D01*
X306263D01*
X305569Y71394D01*
X305289Y72386D01*
X306954Y74050D01*
X307396Y74712D01*
X307551Y75492D01*
Y82874D01*
X307396Y83654D01*
X306954Y84316D01*
X306292Y84758D01*
X305610Y84894D01*
Y88090D01*
X302067D01*
Y87033D01*
X297665D01*
Y89517D01*
X297665D01*
X297764Y90157D01*
X297764Y90157D01*
X297764Y90477D01*
Y94094D01*
X297764D01*
Y94882D01*
X297764D01*
Y98819D01*
X298256Y99606D01*
X298256D01*
Y103937D01*
X298968Y104633D01*
X299304Y104857D01*
X299746Y105519D01*
X299901Y106299D01*
Y109843D01*
X299746Y110623D01*
X299304Y111284D01*
X298643Y111726D01*
X297862Y111882D01*
X279134D01*
X278354Y111726D01*
X277692Y111284D01*
X277502Y111000D01*
X276502Y111303D01*
Y123031D01*
Y132268D01*
X276663Y132378D01*
X277889Y132318D01*
X278550Y131876D01*
X279331Y131721D01*
X281988D01*
X282769Y131876D01*
X283430Y132318D01*
X283872Y132980D01*
X284027Y133760D01*
Y148917D01*
X283872Y149698D01*
X283430Y150359D01*
X283430Y150359D01*
X280773Y153017D01*
X280111Y153459D01*
X279331Y153614D01*
X202410Y153614D01*
X201842Y154614D01*
X202065Y154989D01*
X302067D01*
X302067Y154989D01*
X302681Y155111D01*
X303202Y155459D01*
X311667Y163924D01*
X312015Y164445D01*
X312137Y165059D01*
X312137Y165059D01*
Y227264D01*
X312137Y227264D01*
X312015Y227878D01*
X311667Y228399D01*
X311667Y228399D01*
X310191Y229875D01*
X309670Y230224D01*
X309055Y230346D01*
X309055Y230346D01*
X306917D01*
Y233709D01*
X298130D01*
Y224921D01*
X306917D01*
Y227134D01*
X308390D01*
X308926Y226599D01*
Y165724D01*
X301402Y158200D01*
X282196D01*
Y170146D01*
X284941D01*
Y169488D01*
X288090D01*
Y171302D01*
X288121Y171457D01*
Y171752D01*
X288090Y171907D01*
Y173425D01*
X284941D01*
Y173358D01*
X282264D01*
Y178248D01*
X278917D01*
Y170177D01*
X278985D01*
Y158200D01*
X235543D01*
Y170146D01*
X238189D01*
Y169488D01*
X241338D01*
Y171302D01*
X241369Y171457D01*
Y171752D01*
X241338Y171907D01*
Y173425D01*
X238189D01*
Y173358D01*
X235610D01*
Y178248D01*
X232264D01*
Y170177D01*
X232331D01*
Y158200D01*
X202160D01*
X201212Y158445D01*
X201090Y159059D01*
X200742Y159580D01*
X196682Y163640D01*
X197096Y164640D01*
X212638D01*
X212986Y164709D01*
X213282Y164907D01*
X218552Y170177D01*
X219683D01*
X220097Y169177D01*
X219935Y169015D01*
X219665Y168364D01*
Y167659D01*
X219935Y167008D01*
X220433Y166510D01*
X221085Y166240D01*
X221789D01*
X222441Y166510D01*
X222939Y167008D01*
X223209Y167659D01*
Y168364D01*
X223170Y168457D01*
X224057Y169343D01*
X224822Y168743D01*
X224665Y168364D01*
Y167659D01*
X224935Y167008D01*
X225433Y166510D01*
X226085Y166240D01*
X226789D01*
X227441Y166510D01*
X227939Y167008D01*
X228209Y167659D01*
Y168364D01*
X228170Y168457D01*
X229057Y169343D01*
X229254Y169639D01*
X229324Y169987D01*
Y170177D01*
X230610D01*
Y178248D01*
X227264D01*
Y170669D01*
X226911Y170011D01*
X226437Y169788D01*
X225962Y170011D01*
X225610Y170669D01*
Y178248D01*
X222264D01*
Y170669D01*
X221912Y170011D01*
X221437Y169788D01*
X220963Y170011D01*
X220610Y170669D01*
Y178248D01*
X217264D01*
Y171466D01*
X216610Y170812D01*
X215610Y171227D01*
Y178248D01*
X212264D01*
Y170669D01*
X211912Y170011D01*
X211437Y169788D01*
X210963Y170011D01*
X210610Y170669D01*
Y178248D01*
X207264D01*
Y170669D01*
X206911Y170011D01*
X206437Y169788D01*
X205962Y170011D01*
X205610Y170669D01*
Y178248D01*
X202264D01*
Y171663D01*
X200607Y170006D01*
X196933D01*
X193558Y173380D01*
X193262Y173578D01*
X192913Y173647D01*
X182366D01*
X176253Y179760D01*
X176483Y180944D01*
X176774Y181102D01*
X183368D01*
Y183071D01*
X183368Y185039D01*
X184338Y185112D01*
X186909D01*
Y184252D01*
X186925D01*
X187376Y183288D01*
X187106Y182637D01*
Y181932D01*
X187376Y181281D01*
X187874Y180783D01*
X188525Y180513D01*
X189230D01*
X189882Y180783D01*
X190380Y181281D01*
X190650Y181932D01*
Y181979D01*
X192922Y184252D01*
X195571D01*
Y184252D01*
X196260D01*
Y184252D01*
X200197D01*
Y187795D01*
X199139D01*
Y190059D01*
X200590D01*
Y192815D01*
X195866D01*
Y190059D01*
X197317D01*
Y187795D01*
X196260D01*
Y187795D01*
X195571D01*
Y187795D01*
X191846D01*
X191634Y187795D01*
Y187795D01*
X190846D01*
Y187795D01*
X189789D01*
Y189862D01*
X190846D01*
Y193012D01*
X186909D01*
Y189862D01*
X187967D01*
Y187795D01*
X186909D01*
Y186935D01*
X184075D01*
X183368Y187642D01*
X183368Y188976D01*
X183368Y189976D01*
Y192913D01*
X183368Y194882D01*
X183368Y195882D01*
X183368Y198819D01*
X184338Y198892D01*
X203756D01*
X210309Y192339D01*
Y187008D01*
X210379Y186659D01*
X210576Y186364D01*
X216875Y180064D01*
X217171Y179867D01*
X217520Y179797D01*
X260832D01*
X261309Y179192D01*
X260892Y178248D01*
X258917D01*
Y170177D01*
X262264D01*
Y177160D01*
X263142Y177524D01*
X263900Y176903D01*
Y174992D01*
X263917Y174904D01*
Y170177D01*
X267264D01*
Y177278D01*
X268142Y177642D01*
X268900Y177021D01*
Y174992D01*
X268917Y174904D01*
Y170177D01*
X272264D01*
Y177101D01*
X273142Y177464D01*
X273900Y176844D01*
Y174992D01*
X273917Y174904D01*
Y170177D01*
X277264D01*
Y178248D01*
X275108D01*
X264325Y189030D01*
X264320Y189034D01*
X264623Y190034D01*
X294153D01*
X294502Y190103D01*
X294798Y190301D01*
X299419Y194921D01*
X306917D01*
Y203709D01*
X300485D01*
X299951Y204709D01*
X300093Y204921D01*
X306917D01*
Y213709D01*
X298130D01*
Y206210D01*
X286335Y194415D01*
X237708D01*
X236917Y194921D01*
X236917Y195415D01*
Y203709D01*
X228130D01*
Y202248D01*
X224221D01*
X224183Y202341D01*
X223685Y202839D01*
X223033Y203109D01*
X222329D01*
X221677Y202839D01*
X221179Y202341D01*
X220910Y201689D01*
Y200985D01*
X221179Y200333D01*
X221677Y199835D01*
X222090Y199664D01*
X222214Y198787D01*
X222190Y198623D01*
X221831Y198475D01*
X221333Y197976D01*
X221063Y197325D01*
Y196620D01*
X221333Y195969D01*
X221831Y195471D01*
X222321Y195268D01*
X222343Y195140D01*
Y194396D01*
X222321Y194268D01*
X221831Y194065D01*
X221399Y193633D01*
X221082Y193663D01*
X220399Y193927D01*
Y194390D01*
X220330Y194738D01*
X220132Y195034D01*
X208814Y206353D01*
X208518Y206551D01*
X208169Y206620D01*
X199283D01*
X198869Y207620D01*
X201825Y210576D01*
X202023Y210872D01*
X202092Y211221D01*
Y223425D01*
X204773Y226106D01*
X206240D01*
Y230830D01*
X205220D01*
X205220Y230833D01*
X205022Y231129D01*
X204001Y232150D01*
X204415Y233150D01*
X206713D01*
Y244921D01*
X203012D01*
Y235428D01*
X202012Y234896D01*
X201713Y235098D01*
Y244921D01*
X198012D01*
Y235428D01*
X197012Y234896D01*
X196713Y235098D01*
Y244921D01*
X193012D01*
Y233150D01*
X195424D01*
X196451Y232122D01*
Y230830D01*
X195984D01*
Y228395D01*
X194862D01*
X194513Y228326D01*
X194218Y228128D01*
X192240Y226150D01*
X191240Y226565D01*
Y230830D01*
X190773D01*
Y233150D01*
X191713D01*
Y244921D01*
X188012D01*
Y233150D01*
X188951D01*
Y230830D01*
X188484D01*
Y228072D01*
X188467Y227984D01*
Y227354D01*
X187516Y226403D01*
X178232D01*
X175152Y229483D01*
X174857Y229680D01*
X174508Y229750D01*
X164370D01*
X164021Y229680D01*
X163726Y229483D01*
X159789Y225546D01*
X159591Y225250D01*
X159522Y224902D01*
Y223708D01*
X159449Y222738D01*
X158449Y222738D01*
X156839D01*
X156424Y223738D01*
X165437Y232751D01*
X166437Y232336D01*
Y231949D01*
X169193D01*
Y233400D01*
X173012D01*
Y233150D01*
X176713D01*
Y244921D01*
X173012D01*
Y235222D01*
X169193D01*
Y236673D01*
X166437D01*
Y235763D01*
X165474Y235385D01*
X164691Y235934D01*
Y244937D01*
X167726Y247972D01*
X169193D01*
Y249423D01*
X173012D01*
Y249173D01*
X176713D01*
Y260945D01*
X173012D01*
Y251246D01*
X169193D01*
Y252697D01*
X166437D01*
Y249261D01*
X163135Y245959D01*
X162938Y245664D01*
X162868Y245315D01*
Y235023D01*
X155255Y227409D01*
X154331Y227792D01*
Y229724D01*
X150787Y229724D01*
X150517Y230613D01*
Y237402D01*
X151378D01*
Y241126D01*
X151378Y241339D01*
Y242126D01*
X151378Y242339D01*
Y246063D01*
X150517D01*
Y247816D01*
X151225Y248524D01*
X151870D01*
X152909Y248524D01*
X153616Y247816D01*
Y246063D01*
X152756D01*
Y242339D01*
X152756Y242126D01*
Y241339D01*
X152756Y241126D01*
Y237402D01*
X152756D01*
X152870Y236402D01*
X152756Y236126D01*
Y235421D01*
X153025Y234770D01*
X153524Y234272D01*
X154175Y234002D01*
X154880D01*
X155531Y234272D01*
X156029Y234770D01*
X156299Y235421D01*
Y236126D01*
X156185Y236402D01*
X156299Y237402D01*
X156299Y237402D01*
Y241126D01*
X156299Y241339D01*
Y242126D01*
X156299Y242339D01*
Y246063D01*
X155439D01*
Y247816D01*
X156146Y248524D01*
X156791D01*
X157830Y248524D01*
X158537Y247816D01*
Y246063D01*
X157677D01*
Y242339D01*
X157677Y242126D01*
Y241339D01*
X157677Y241126D01*
Y237402D01*
X157677Y237402D01*
X157794Y236402D01*
X157732Y236252D01*
Y235547D01*
X158002Y234896D01*
X158500Y234397D01*
X159151Y234128D01*
X159856D01*
X160507Y234397D01*
X161006Y234896D01*
X161275Y235547D01*
Y236252D01*
X161213Y236402D01*
X161220Y237402D01*
X161220Y237402D01*
X161220Y237402D01*
Y241126D01*
X161220Y241339D01*
Y242126D01*
X161220Y242339D01*
Y246063D01*
X160360D01*
Y248524D01*
X161712D01*
Y252854D01*
X157791D01*
X157185Y252854D01*
X156185Y252854D01*
X152870D01*
X152264Y252854D01*
X151264Y252854D01*
X147342D01*
Y248524D01*
X148695D01*
Y246063D01*
X147835D01*
Y242339D01*
X147835Y242126D01*
Y241339D01*
X147835Y241126D01*
Y237402D01*
X148695D01*
Y230531D01*
X148228Y229724D01*
X145291D01*
X145079Y229724D01*
X144291D01*
X144079Y229724D01*
X141142D01*
Y229725D01*
X140354D01*
Y229724D01*
X137205D01*
Y229362D01*
X134511D01*
X130696Y233176D01*
Y241693D01*
X130011D01*
Y245963D01*
X130146Y246288D01*
X130240Y247008D01*
X130146Y247727D01*
X130011Y248053D01*
Y252401D01*
X130696D01*
Y254780D01*
X157480D01*
X157694Y254823D01*
X161712D01*
Y257734D01*
X166301Y262323D01*
X195355D01*
X198012Y259666D01*
Y255490D01*
X197981Y255335D01*
X198012Y255179D01*
Y249173D01*
X201713D01*
Y260945D01*
X199572D01*
X196480Y264036D01*
X196154Y264254D01*
X195770Y264330D01*
X190964D01*
X190879Y264440D01*
X190596Y265330D01*
X193655Y268390D01*
X194003Y268911D01*
X194125Y269525D01*
X194125Y269525D01*
Y274117D01*
X194095Y274272D01*
Y276086D01*
X194095D01*
Y276873D01*
X194095D01*
Y280810D01*
X190945D01*
Y280810D01*
X190518D01*
X189518Y281147D01*
Y282653D01*
X189449Y283001D01*
X189252Y283297D01*
X183515Y289034D01*
X183722Y289792D01*
X183894Y290034D01*
X184055D01*
X184404Y290103D01*
X184699Y290301D01*
X186722Y292323D01*
X187294D01*
X189078Y290539D01*
Y289368D01*
X188549Y288838D01*
X188189Y287970D01*
Y287030D01*
X188549Y286162D01*
X189213Y285497D01*
X190081Y285138D01*
X191021D01*
X191889Y285497D01*
X192554Y286162D01*
X192913Y287030D01*
Y287970D01*
X192554Y288838D01*
X191889Y289503D01*
X191021Y289862D01*
X190900D01*
Y290916D01*
X190831Y291265D01*
X190633Y291561D01*
X188583Y293612D01*
Y294971D01*
X191195Y297584D01*
X191393Y297880D01*
X191462Y298228D01*
Y305709D01*
X191393Y306057D01*
X191195Y306353D01*
X188779Y308769D01*
Y311417D01*
X186167D01*
X185753Y312417D01*
X186525Y313189D01*
X188779D01*
Y316913D01*
X188779Y317126D01*
X188901Y318075D01*
X191043D01*
X191218Y318110D01*
X191396D01*
X191560Y318178D01*
X191691Y318204D01*
X191746Y318209D01*
X192303Y318003D01*
X192515Y317847D01*
X192691Y317647D01*
Y308432D01*
X192761Y308083D01*
X192958Y307787D01*
X195276Y305470D01*
Y298885D01*
X195276D01*
Y298228D01*
X195276D01*
Y290354D01*
X201181D01*
Y298228D01*
X201181D01*
Y298885D01*
X201181D01*
Y306415D01*
X201181Y306758D01*
X201181D01*
Y307415D01*
X201181D01*
Y315289D01*
X201181D01*
Y315945D01*
X201181D01*
Y323819D01*
X196257D01*
X196169Y323836D01*
X195563D01*
X193056Y326343D01*
X193470Y327343D01*
X213425D01*
X213809Y327419D01*
X214135Y327637D01*
X220750Y334252D01*
X225630D01*
Y336004D01*
X229331D01*
Y334252D01*
X235220D01*
X235598Y333351D01*
X234982Y332604D01*
X223995D01*
X223225Y332503D01*
X222506Y332205D01*
X221890Y331732D01*
X218891Y328734D01*
X218418Y328117D01*
X218121Y327399D01*
X218019Y326628D01*
Y316535D01*
X216766Y315281D01*
X213324D01*
X212598Y315945D01*
X212598Y316289D01*
Y318075D01*
X215116D01*
X215291Y318110D01*
X215469D01*
X215633Y318178D01*
X215808Y318213D01*
X215955Y318312D01*
X216120Y318380D01*
X216246Y318506D01*
X216393Y318605D01*
X216492Y318753D01*
X216618Y318878D01*
X216686Y319043D01*
X216785Y319191D01*
X216820Y319365D01*
X216888Y319530D01*
Y319707D01*
X216923Y319882D01*
X216888Y320056D01*
Y320234D01*
X216820Y320399D01*
X216785Y320573D01*
X216686Y320721D01*
X216618Y320885D01*
X216492Y321011D01*
X216393Y321159D01*
X216246Y321258D01*
X216120Y321384D01*
X215955Y321452D01*
X215808Y321551D01*
X215633Y321585D01*
X215469Y321654D01*
X215291D01*
X215116Y321688D01*
X212598D01*
Y323819D01*
X206693D01*
Y316289D01*
X206693Y315289D01*
X206693Y314945D01*
Y312497D01*
X206667Y312303D01*
Y302821D01*
X206693Y302628D01*
Y299228D01*
X206693Y298228D01*
X206693Y297884D01*
Y290354D01*
X212598D01*
Y292485D01*
X215116D01*
X215291Y292520D01*
X215469D01*
X215633Y292588D01*
X215808Y292622D01*
X215955Y292721D01*
X216120Y292789D01*
X216246Y292915D01*
X216393Y293014D01*
X216492Y293162D01*
X216618Y293288D01*
X216686Y293452D01*
X216785Y293600D01*
X216820Y293775D01*
X216888Y293939D01*
Y294117D01*
X216923Y294291D01*
X216888Y294466D01*
Y294644D01*
X216820Y294808D01*
X216785Y294983D01*
X216686Y295130D01*
X216618Y295295D01*
X216492Y295421D01*
X216393Y295569D01*
X216246Y295668D01*
X216120Y295793D01*
X215955Y295861D01*
X215808Y295960D01*
X215633Y295995D01*
X215469Y296063D01*
X215291D01*
X215116Y296098D01*
X212598D01*
X212598Y298885D01*
X212598Y299228D01*
Y302628D01*
X212624Y302821D01*
Y309325D01*
X217999D01*
X218770Y309426D01*
X219488Y309724D01*
X220105Y310197D01*
X223103Y313195D01*
X223577Y313812D01*
X223874Y314530D01*
X223976Y315301D01*
Y325394D01*
X225229Y326648D01*
X236221D01*
X236991Y326749D01*
X237710Y327047D01*
X238326Y327520D01*
X244035Y333229D01*
X244035Y333229D01*
X244508Y333845D01*
X244806Y334564D01*
X244907Y335335D01*
Y348819D01*
X244806Y349590D01*
X244508Y350308D01*
X244035Y350925D01*
X239253Y355706D01*
X239232Y355868D01*
X239309Y355969D01*
X239327Y356034D01*
X239364Y356090D01*
X239429Y356416D01*
X239515Y356737D01*
X239506Y356804D01*
X239520Y356871D01*
Y392790D01*
X314049D01*
Y911D01*
D02*
G37*
G36*
X73819Y297047D02*
X58957D01*
Y319783D01*
X73819D01*
Y297047D01*
D02*
G37*
G36*
X143868Y321457D02*
X144291D01*
Y313583D01*
X170374Y313583D01*
Y312929D01*
X170836Y313121D01*
X176476Y307480D01*
Y302264D01*
X178937Y299803D01*
Y296949D01*
X180020Y295866D01*
X182874D01*
Y292717D01*
X179626D01*
X176476Y295866D01*
Y299410D01*
X173819D01*
Y292717D01*
X170669D01*
Y300394D01*
X170374Y300689D01*
X126398D01*
X120460Y295104D01*
X117618D01*
X117269Y295035D01*
X116974Y294837D01*
X101664Y279528D01*
X98524D01*
Y275197D01*
X99182D01*
X99212Y275119D01*
Y273622D01*
X147244D01*
X149508Y275886D01*
X159449D01*
X169450Y265884D01*
X169068Y264961D01*
X161516Y264961D01*
X157776Y268701D01*
X92815D01*
Y281717D01*
X93273Y282023D01*
X93715Y282684D01*
X93870Y283465D01*
Y294685D01*
X108661D01*
X115957Y301980D01*
Y303740D01*
X116016Y304035D01*
Y313287D01*
X116258Y313583D01*
X139173Y313583D01*
D01*
X115957D01*
X115860Y314068D01*
X115418Y314729D01*
X107548Y322600D01*
X107931Y323524D01*
X141801D01*
X143868Y321457D01*
D02*
G37*
G36*
X73819Y321850D02*
X56791D01*
Y294685D01*
X91831D01*
Y283465D01*
X50295D01*
Y328445D01*
X73819D01*
Y321850D01*
D02*
G37*
G36*
X48256Y310307D02*
Y283465D01*
X48411Y282684D01*
X48853Y282023D01*
X49515Y281581D01*
X50295Y281425D01*
X90776D01*
Y268701D01*
X90931Y267920D01*
X91373Y267259D01*
X92035Y266817D01*
X92815Y266662D01*
X156931D01*
X160074Y263519D01*
X160735Y263077D01*
X161516Y262921D01*
X162754D01*
X163137Y261998D01*
X160293Y259154D01*
X157694D01*
X157480Y259196D01*
X130696D01*
Y263189D01*
X124909D01*
Y252401D01*
X125595D01*
Y249787D01*
X89501D01*
X89311Y250709D01*
X89311Y250788D01*
Y255079D01*
X88964D01*
X88287Y256057D01*
Y256762D01*
X88017Y257413D01*
X87519Y257912D01*
X86868Y258181D01*
X86163D01*
X85512Y257912D01*
X85014Y257413D01*
X84744Y256762D01*
Y256057D01*
X84067Y255079D01*
X83720D01*
Y250788D01*
X83720Y250709D01*
X83530Y249787D01*
X81398D01*
Y253051D01*
X74335D01*
Y258169D01*
X74312Y258350D01*
Y261319D01*
X68800D01*
Y258350D01*
X68776Y258169D01*
Y253051D01*
X54233D01*
Y227832D01*
X54198Y227658D01*
Y226044D01*
X53976Y225822D01*
X50118D01*
X49885Y226077D01*
X49471Y226822D01*
X49579Y227362D01*
Y233465D01*
X49423Y234245D01*
X48981Y234907D01*
X48320Y235349D01*
X47539Y235504D01*
X35827D01*
X35827Y235504D01*
X35046Y235349D01*
X34385Y234907D01*
X33506Y234027D01*
X26350Y234027D01*
Y244122D01*
X30807Y244122D01*
X31587Y244278D01*
X32249Y244720D01*
X32691Y245381D01*
X32846Y246161D01*
Y250041D01*
X36481Y253676D01*
X36923Y254338D01*
X37079Y255118D01*
Y265453D01*
X36923Y266233D01*
X36481Y266895D01*
X35820Y267337D01*
X35039Y267492D01*
X20558Y267492D01*
X19558Y268276D01*
Y311248D01*
X47256Y311248D01*
X48256Y310307D01*
D02*
G37*
G36*
X35039Y255118D02*
X30807Y250886D01*
Y246161D01*
X24311Y246161D01*
Y231988D01*
X34350Y231988D01*
X35827Y233465D01*
X47539D01*
Y227362D01*
X20079D01*
Y265453D01*
X35039Y265453D01*
Y255118D01*
D02*
G37*
G36*
X203467Y230107D02*
Y228952D01*
X203484Y228864D01*
Y227395D01*
X200537Y224447D01*
X200339Y224151D01*
X200270Y223803D01*
Y211598D01*
X197260Y208588D01*
X183368D01*
Y208661D01*
X176774D01*
Y205724D01*
X176774Y204724D01*
X176774D01*
Y204724D01*
X176774D01*
Y200749D01*
X175774Y200550D01*
X175667Y200807D01*
X175169Y201305D01*
X174518Y201575D01*
X173813D01*
X173162Y201305D01*
X172663Y200807D01*
X172394Y200155D01*
Y199451D01*
X172663Y198800D01*
X173056Y198407D01*
X173114Y197835D01*
X173056Y197263D01*
X172663Y196870D01*
X172394Y196219D01*
Y195514D01*
X172663Y194863D01*
X173056Y194470D01*
X173114Y193898D01*
X173056Y193325D01*
X172663Y192933D01*
X172394Y192281D01*
Y191577D01*
X172663Y190926D01*
X173056Y190533D01*
X173114Y189961D01*
X173065Y189476D01*
X172190Y189060D01*
X171639Y189135D01*
X171279Y189494D01*
X170628Y189764D01*
X169923D01*
X169272Y189494D01*
X168774Y188996D01*
X168548Y188451D01*
X168504Y188345D01*
X167913Y187722D01*
X150262D01*
X149889Y188722D01*
X150124Y188957D01*
X150394Y189608D01*
Y190313D01*
X150355Y190405D01*
X160093Y200143D01*
X160291Y200439D01*
X160360Y200787D01*
Y206137D01*
X160452Y206175D01*
X160951Y206674D01*
X161221Y207325D01*
Y208030D01*
X161931Y208927D01*
X162095Y208959D01*
X164316Y206738D01*
X164612Y206540D01*
X164961Y206471D01*
X170866D01*
X171215Y206540D01*
X171511Y206738D01*
X175476Y210703D01*
X176774D01*
Y210630D01*
X183368D01*
Y210703D01*
X186909D01*
Y210039D01*
X190846D01*
Y213189D01*
X186909D01*
Y212525D01*
X183368D01*
Y212598D01*
X176774D01*
Y212525D01*
X175098D01*
X174750Y212456D01*
X174454Y212259D01*
X173555Y211359D01*
X173459Y211327D01*
X172335Y211546D01*
X172200Y211792D01*
X172269Y212140D01*
Y214370D01*
X172200Y214719D01*
X172003Y215014D01*
X171873Y215144D01*
X172287Y216144D01*
X173228D01*
Y220933D01*
X176470D01*
X176818Y221003D01*
X177114Y221200D01*
X177334Y221420D01*
X178068Y220779D01*
X177709Y219911D01*
Y218971D01*
X178068Y218103D01*
X178733Y217438D01*
X179601Y217079D01*
X180541D01*
X181409Y217438D01*
X182073Y218103D01*
X182433Y218971D01*
Y219911D01*
X182073Y220779D01*
X181634Y221219D01*
X181952Y222219D01*
X190508D01*
X190857Y222288D01*
X191153Y222486D01*
X194984Y226317D01*
X195984Y226106D01*
Y226106D01*
X198740D01*
Y230830D01*
X198273D01*
Y232150D01*
X198273Y232500D01*
X199114Y233150D01*
X200424D01*
X203467Y230107D01*
D02*
G37*
G36*
X144079Y225787D02*
X144291Y225787D01*
X145079D01*
X145742Y224974D01*
Y222738D01*
X145669D01*
Y216384D01*
X144792Y215847D01*
X143701Y216938D01*
Y222738D01*
X141732D01*
Y220213D01*
X140808Y219831D01*
X139691Y220948D01*
Y225062D01*
X140354Y225787D01*
X141142D01*
Y225787D01*
X144079D01*
D02*
G37*
G36*
X52918Y215846D02*
X52953Y215672D01*
Y215068D01*
X50975Y213090D01*
X49114D01*
Y213091D01*
X48425D01*
Y213090D01*
X45193D01*
X44193Y213805D01*
X44193Y214091D01*
Y217815D01*
X43332D01*
Y218831D01*
X43425Y218869D01*
X43923Y219368D01*
X44193Y220019D01*
Y220724D01*
X43992Y221209D01*
X44246Y221840D01*
X44503Y222209D01*
X52918D01*
Y215846D01*
D02*
G37*
G36*
X78347Y206988D02*
Y205235D01*
X77639Y204527D01*
X74213Y204528D01*
Y203909D01*
X73213Y203528D01*
X72900Y203658D01*
X72196D01*
X71544Y203388D01*
X71046Y202889D01*
X70776Y202238D01*
Y201534D01*
X70780Y201525D01*
X70112Y200525D01*
X69398D01*
X69049Y200456D01*
X68753Y200258D01*
X67609Y199114D01*
X63188D01*
Y205609D01*
X66142Y208563D01*
X70276Y208563D01*
Y212697D01*
X72638D01*
X78347Y206988D01*
D02*
G37*
G36*
X61121Y198130D02*
X61121Y196161D01*
X61121Y195161D01*
X61121Y192599D01*
X60817Y191927D01*
X60410Y191528D01*
X60074Y191304D01*
X59632Y190643D01*
X59477Y189862D01*
Y188583D01*
X57480D01*
Y188583D01*
X56480Y188583D01*
X54542D01*
X53543Y188583D01*
Y188583D01*
X53543D01*
Y188583D01*
X52337D01*
X52032Y189040D01*
X51370Y189482D01*
X50590Y189638D01*
X49901D01*
Y191225D01*
X49901Y192225D01*
X49901D01*
Y192225D01*
X49901D01*
Y195161D01*
X49901Y196161D01*
X49901D01*
Y196161D01*
X49901D01*
Y199221D01*
X49901Y199803D01*
X50483Y199803D01*
X52543D01*
X53543Y199803D01*
Y199803D01*
X53543D01*
Y199803D01*
X56480D01*
X57480Y199803D01*
Y199803D01*
X57480D01*
Y199803D01*
X61121D01*
Y198130D01*
D02*
G37*
G36*
X71814Y224120D02*
X71814Y224120D01*
X71936Y223505D01*
X72284Y222985D01*
X74806Y220463D01*
Y219901D01*
X75165Y219033D01*
X75830Y218369D01*
X76698Y218009D01*
X77259D01*
X113847Y181421D01*
Y175000D01*
X113847Y175000D01*
X113969Y174385D01*
X114317Y173865D01*
X123471Y164711D01*
X123471Y164711D01*
X137961Y150221D01*
Y148228D01*
X134705D01*
Y141142D01*
X142158D01*
X145951Y137349D01*
X145951Y137349D01*
X146472Y137001D01*
X147087Y136879D01*
X147087Y136879D01*
X183071D01*
X183071Y136879D01*
X183685Y137001D01*
X184206Y137349D01*
X187982Y141124D01*
X188906Y140742D01*
Y138583D01*
X189061Y137802D01*
X189503Y137141D01*
X190164Y136699D01*
X190945Y136544D01*
X191437D01*
Y135588D01*
X191406Y135433D01*
X191437Y135278D01*
Y133465D01*
X194587D01*
Y133465D01*
X195587Y133758D01*
X195819Y133661D01*
X196524D01*
X197264Y133366D01*
Y133366D01*
X199561D01*
X199975Y132366D01*
X199032Y131423D01*
X190240D01*
X188636Y133026D01*
X188341Y133224D01*
X187992Y133293D01*
X170965D01*
X170616Y133224D01*
X170320Y133026D01*
X163529Y126234D01*
X163331Y125939D01*
X163262Y125590D01*
Y124347D01*
X163227Y124310D01*
X162562Y123845D01*
X161614Y123721D01*
Y123721D01*
X158071D01*
Y119783D01*
X158071D01*
Y118996D01*
X158071D01*
Y115059D01*
X158931D01*
Y103625D01*
X157820Y102514D01*
X157623Y102219D01*
X157553Y101870D01*
Y94882D01*
X155512D01*
X155439Y95852D01*
Y119685D01*
X155369Y120034D01*
X155172Y120329D01*
X144275Y131226D01*
X144275Y131226D01*
X143110Y132391D01*
Y135236D01*
X140659D01*
X137062Y138833D01*
X136766Y139031D01*
X136417Y139100D01*
X111502D01*
X111153Y139031D01*
X110857Y138833D01*
X107260Y135236D01*
X104809D01*
Y131512D01*
X104809Y131299D01*
Y130512D01*
X104809Y130299D01*
Y126575D01*
X105669D01*
Y125292D01*
X104317D01*
X104317Y121914D01*
X103684Y121529D01*
X103051Y121914D01*
Y125292D01*
X101699D01*
Y126575D01*
X102559D01*
Y130512D01*
X102559Y130512D01*
Y131299D01*
X102559D01*
X102559Y131512D01*
Y135236D01*
X99016D01*
Y132391D01*
X96206Y129581D01*
X96008Y129286D01*
X95939Y128937D01*
Y121260D01*
X96008Y120911D01*
X96206Y120616D01*
X97489Y119333D01*
X97784Y119135D01*
X97785Y119135D01*
X98133Y119066D01*
X98524Y118993D01*
Y114662D01*
X103051D01*
Y115916D01*
X104317D01*
Y114662D01*
X107555D01*
X122468Y99749D01*
X122764Y99552D01*
X123113Y99483D01*
X129544D01*
X138431Y90596D01*
X138726Y90398D01*
X139075Y90329D01*
X139764D01*
Y87624D01*
X132759D01*
X131102Y89281D01*
Y91141D01*
X127165D01*
Y91142D01*
X126378D01*
Y91141D01*
X124565D01*
X124409Y91172D01*
X120646D01*
X120245Y91338D01*
X119540D01*
X118889Y91069D01*
X118391Y90570D01*
X118121Y89919D01*
Y89214D01*
X118287Y88814D01*
Y85989D01*
X118121Y85588D01*
Y84884D01*
X118287Y84483D01*
Y82436D01*
X116077D01*
X116077Y82436D01*
X115462Y82313D01*
X114941Y81965D01*
X114941Y81965D01*
X113924Y80948D01*
X113576Y80427D01*
X113453Y79812D01*
X113453Y79812D01*
Y75394D01*
X113484Y75239D01*
Y73638D01*
X113484Y73425D01*
Y72638D01*
X113121Y72275D01*
X111886D01*
X111485Y72441D01*
X110780D01*
X110129Y72171D01*
X109631Y71673D01*
X109361Y71022D01*
Y70317D01*
X109631Y69666D01*
X110129Y69167D01*
X110780Y68898D01*
X111485D01*
X111886Y69064D01*
X113453D01*
Y66525D01*
X113287Y66124D01*
Y65419D01*
X113557Y64768D01*
X114056Y64270D01*
X114707Y64000D01*
X115411D01*
X116063Y64270D01*
X116561Y64768D01*
X116831Y65419D01*
Y66124D01*
X116665Y66525D01*
Y70669D01*
X116634Y70824D01*
Y72425D01*
X116634Y72638D01*
Y73425D01*
X116634Y73638D01*
Y75239D01*
X116665Y75394D01*
Y79147D01*
X116742Y79224D01*
X119321D01*
X119540Y79134D01*
X120245D01*
X120465Y78996D01*
X120609Y77725D01*
X120246Y77362D01*
X119095D01*
Y76211D01*
X119069Y76185D01*
X118626Y75523D01*
X118471Y74743D01*
X118626Y73962D01*
X118626Y73962D01*
X118792Y73563D01*
X119095Y72638D01*
X119095Y72638D01*
X119095Y72638D01*
Y68701D01*
X118602Y67913D01*
X118602D01*
Y63583D01*
X123130D01*
Y67913D01*
X123130D01*
X122638Y68701D01*
Y71780D01*
X125000D01*
Y68701D01*
X124508Y67913D01*
X124508D01*
Y63583D01*
X129035D01*
Y67913D01*
X129035D01*
X128543Y68701D01*
Y71780D01*
X130905D01*
Y68701D01*
X130413Y67913D01*
X130413D01*
Y63583D01*
X134941D01*
Y67913D01*
X134941D01*
X134449Y68701D01*
Y71780D01*
X140748D01*
X141528Y71935D01*
X142520Y71395D01*
Y62992D01*
X148478D01*
X148892Y61992D01*
X146323Y59422D01*
X145669Y59216D01*
X145016Y59422D01*
X143558Y60881D01*
X143262Y61078D01*
X142913Y61147D01*
X134941D01*
Y61614D01*
X130413D01*
Y59346D01*
X129413Y58841D01*
X129035Y59120D01*
Y61614D01*
X124508D01*
Y59346D01*
X123508Y58841D01*
X123130Y59120D01*
Y61614D01*
X118602D01*
Y57284D01*
X121841D01*
X126127Y52997D01*
X126423Y52800D01*
X126772Y52731D01*
X135463D01*
X135565Y52645D01*
X136048Y51731D01*
X135936Y51459D01*
Y50754D01*
X136205Y50103D01*
X136704Y49604D01*
X137355Y49334D01*
X138060D01*
X138152Y49373D01*
X138868Y48657D01*
X138453Y47657D01*
X101150D01*
X100766Y47581D01*
X100440Y47363D01*
X95752Y42675D01*
X95615Y42584D01*
X95615Y42584D01*
X94069Y41038D01*
X93770Y40978D01*
X93719Y40945D01*
X92466D01*
X91541Y41313D01*
X91461Y41513D01*
X91419Y41725D01*
X91316Y41879D01*
X91248Y42052D01*
X91097Y42207D01*
X90977Y42387D01*
X90823Y42490D01*
X90694Y42623D01*
X90495Y42709D01*
X90316Y42829D01*
X90134Y42865D01*
X89963Y42939D01*
X89045Y43136D01*
X88829Y43139D01*
X88617Y43181D01*
X19558D01*
Y71878D01*
X92913D01*
X93694Y72033D01*
X94355Y72475D01*
X94797Y73137D01*
X94953Y73917D01*
Y113033D01*
X95832Y113912D01*
X96274Y114574D01*
X96429Y115354D01*
X96429Y117857D01*
X96274Y118638D01*
X95832Y119299D01*
X95832Y119299D01*
X95125Y120007D01*
X94463Y120449D01*
X93683Y120604D01*
X84679D01*
X84589Y120586D01*
X84447Y121303D01*
X83942Y122521D01*
X83210Y123617D01*
X82278Y124549D01*
X81181Y125282D01*
X79963Y125786D01*
X78670Y126043D01*
X77352D01*
X76059Y125786D01*
X74841Y125282D01*
X73745Y124549D01*
X72812Y123617D01*
X72080Y122521D01*
X71575Y121303D01*
X71433Y120586D01*
X71343Y120604D01*
X67982D01*
X67600Y121528D01*
X76038Y129966D01*
X76236Y130262D01*
X76305Y130610D01*
Y134829D01*
X77305Y134961D01*
X77478Y134316D01*
X77892Y133598D01*
X78479Y133011D01*
X79197Y132597D01*
X79998Y132382D01*
X80827D01*
X81628Y132597D01*
X82346Y133011D01*
X82933Y133598D01*
X83348Y134316D01*
X83562Y135117D01*
Y135946D01*
X83348Y136747D01*
X83190Y137020D01*
X92180Y146010D01*
X92377Y146306D01*
X92447Y146654D01*
Y182480D01*
X92377Y182829D01*
X92180Y183125D01*
X88841Y186463D01*
X88546Y186661D01*
X88197Y186730D01*
X79462D01*
X78740Y187402D01*
Y190551D01*
X77388D01*
Y191634D01*
X78347D01*
Y195177D01*
X74606D01*
Y194317D01*
X71047D01*
X69542Y195822D01*
X69246Y196019D01*
X68898Y196088D01*
X68575D01*
X68514Y196235D01*
X68389Y197230D01*
X69051Y197672D01*
X69865Y198486D01*
X70112D01*
X70309Y198525D01*
X70509D01*
X70695Y198602D01*
X70892Y198642D01*
X70984Y198703D01*
X79921D01*
Y195571D01*
X83661D01*
Y199114D01*
X82702D01*
Y200295D01*
X83465D01*
Y203445D01*
X80759D01*
X80594Y203593D01*
X80224Y204445D01*
X80230Y204454D01*
X80386Y205235D01*
Y206988D01*
X80230Y207769D01*
X79788Y208430D01*
X74080Y214139D01*
X73418Y214581D01*
X72638Y214736D01*
X70276D01*
X70193Y214720D01*
X69193Y215490D01*
Y217815D01*
X68332D01*
Y218831D01*
X68425Y218869D01*
X68923Y219368D01*
X69193Y220019D01*
Y220724D01*
X68923Y221375D01*
X68425Y221873D01*
X67774Y222143D01*
X67069D01*
X66418Y221873D01*
X65995Y221451D01*
X65645Y221488D01*
X64995Y221757D01*
Y223031D01*
X64995Y223031D01*
Y225886D01*
X71814D01*
Y224120D01*
D02*
G37*
G36*
X125595Y241693D02*
X124909D01*
Y230906D01*
X128426D01*
X132711Y226621D01*
X132711Y226621D01*
X133232Y226273D01*
X133846Y226150D01*
X133846Y226150D01*
X137205D01*
Y225787D01*
X137868D01*
Y220571D01*
X137938Y220222D01*
X138135Y219927D01*
X141732Y216330D01*
Y216144D01*
X141918D01*
X148076Y209986D01*
X148372Y209788D01*
X148721Y209719D01*
X157571D01*
X157985Y208719D01*
X157947Y208681D01*
X157677Y208030D01*
Y207325D01*
X157947Y206674D01*
X158445Y206175D01*
X158538Y206137D01*
Y201165D01*
X149067Y191694D01*
X148974Y191732D01*
X148270D01*
X147618Y191463D01*
X147120Y190964D01*
X147049Y190792D01*
X145926Y190500D01*
X141885Y194542D01*
X141589Y194739D01*
X141355Y194786D01*
X141122Y195115D01*
X140855Y195809D01*
X141035Y196063D01*
X141148D01*
X141799Y196333D01*
X142297Y196831D01*
X142567Y197482D01*
Y198187D01*
X142297Y198838D01*
X141799Y199337D01*
X141148Y199606D01*
X140443D01*
X139792Y199337D01*
X139293Y198838D01*
X139187Y198582D01*
X138187Y198780D01*
X138187Y199819D01*
Y202756D01*
X138187Y204724D01*
X138187Y205724D01*
Y207661D01*
X138187Y208661D01*
X138187D01*
Y208661D01*
X138187D01*
Y212598D01*
X135893D01*
Y217669D01*
X135817Y218053D01*
X135599Y218379D01*
X127973Y226005D01*
X127648Y226222D01*
X127264Y226299D01*
X119004D01*
X118805Y227299D01*
X118806Y227299D01*
X119305Y227798D01*
X119574Y228449D01*
Y229154D01*
X119305Y229805D01*
X119204Y229906D01*
X119618Y230906D01*
X120696D01*
Y241693D01*
X114909D01*
Y230906D01*
X115987D01*
X116401Y229906D01*
X116301Y229805D01*
X116031Y229154D01*
Y228449D01*
X116301Y227798D01*
X116799Y227299D01*
X116801Y227299D01*
X116602Y226299D01*
X109004D01*
X108805Y227299D01*
X108806Y227299D01*
X109305Y227798D01*
X109574Y228449D01*
Y229154D01*
X109305Y229805D01*
X109204Y229906D01*
X109618Y230906D01*
X110696D01*
Y241693D01*
X104909D01*
Y230906D01*
X105987D01*
X106401Y229906D01*
X106301Y229805D01*
X106031Y229154D01*
Y228449D01*
X106301Y227798D01*
X106799Y227299D01*
X106801Y227299D01*
X106602Y226299D01*
X99004D01*
X98805Y227299D01*
X98806Y227299D01*
X99305Y227798D01*
X99575Y228449D01*
Y229154D01*
X99305Y229805D01*
X99204Y229906D01*
X99619Y230906D01*
X100697D01*
Y241693D01*
X94909D01*
Y230906D01*
X95987D01*
X96401Y229906D01*
X96301Y229805D01*
X96031Y229154D01*
Y228449D01*
X96301Y227798D01*
X96799Y227299D01*
X96801Y227299D01*
X96602Y226299D01*
X94904D01*
X87519Y233684D01*
Y237835D01*
X89311D01*
Y242205D01*
X83720D01*
Y237835D01*
X85512D01*
Y233268D01*
X85588Y232884D01*
X85806Y232558D01*
X93779Y224586D01*
X94104Y224368D01*
X94488Y224292D01*
X126456D01*
X126804Y223835D01*
X126308Y222835D01*
X123917D01*
Y219685D01*
X123990D01*
Y217717D01*
X121260D01*
Y214961D01*
X124539D01*
X125066Y214299D01*
X124668Y213386D01*
X121260D01*
Y212722D01*
X118701D01*
Y213779D01*
X115551D01*
Y209842D01*
X118701D01*
Y210900D01*
X121260D01*
Y210630D01*
X124696D01*
X129674Y205651D01*
X129260Y204651D01*
X128248D01*
X127899Y204582D01*
X127604Y204384D01*
X126890Y203670D01*
X123603D01*
X123443Y203830D01*
Y204539D01*
X123425Y204627D01*
Y207287D01*
X119882D01*
Y206328D01*
X118701D01*
Y207483D01*
X115551D01*
Y203547D01*
X118701D01*
Y204505D01*
X119882D01*
Y203547D01*
X121620D01*
Y203453D01*
X121690Y203104D01*
X121887Y202808D01*
X122581Y202115D01*
X122877Y201917D01*
X123225Y201848D01*
X123819D01*
Y198400D01*
X123819Y198231D01*
X123819D01*
X123917Y197441D01*
X123917D01*
Y194291D01*
X123917D01*
X123917Y193504D01*
X123917D01*
Y190567D01*
X123917Y190354D01*
Y189567D01*
X123917Y189354D01*
Y186417D01*
X124280D01*
Y184327D01*
X123646Y183692D01*
X116118D01*
X79530Y220280D01*
Y220841D01*
X79171Y221709D01*
X78506Y222374D01*
X77638Y222733D01*
X77077D01*
X75025Y224785D01*
Y225886D01*
X81398D01*
Y244228D01*
X125595D01*
Y241693D01*
D02*
G37*
G36*
X131593Y181102D02*
X138187D01*
Y181175D01*
X139255D01*
X139293Y181083D01*
X139792Y180585D01*
X140443Y180315D01*
X141148D01*
X141799Y180585D01*
X141990Y180775D01*
X142236Y180707D01*
X142913Y180285D01*
Y179813D01*
X143183Y179162D01*
X143682Y178663D01*
X144333Y178394D01*
X145037D01*
X145689Y178663D01*
X146081Y179056D01*
X146653Y179114D01*
X147106Y179068D01*
X147562Y178557D01*
X147169Y177557D01*
X145669D01*
Y170963D01*
X145742D01*
Y167815D01*
X145079D01*
Y167452D01*
X125271D01*
X117058Y175665D01*
Y180481D01*
X124311D01*
X124311Y180481D01*
X124925Y180603D01*
X125446Y180951D01*
X126807Y182312D01*
X127981Y182553D01*
X128632Y182283D01*
X129337D01*
X129988Y182553D01*
X130486Y183052D01*
X130524Y183144D01*
X131593D01*
Y181102D01*
D02*
G37*
G36*
X68799Y185827D02*
Y180413D01*
X67716D01*
X61516Y186614D01*
Y189862D01*
X64764D01*
X68799Y185827D01*
D02*
G37*
G36*
X90624Y182103D02*
Y175433D01*
X89624Y175334D01*
X89621Y175349D01*
X89424Y175644D01*
X85388Y179680D01*
X85093Y179877D01*
X84744Y179947D01*
X79465D01*
X78740Y180610D01*
X78740Y180947D01*
Y184153D01*
X79334Y184908D01*
X87819D01*
X90624Y182103D01*
D02*
G37*
G36*
X35039Y190354D02*
X41437Y183957D01*
X43799Y183957D01*
X47441Y187598D01*
X50590D01*
Y185236D01*
X48720D01*
X46358Y182874D01*
X42717D01*
X42224Y182382D01*
Y178740D01*
X38386Y174902D01*
X31299D01*
Y190354D01*
X35039Y190354D01*
D02*
G37*
G36*
X87868Y174623D02*
Y150771D01*
X79625Y142528D01*
X78914Y142803D01*
X78679Y142996D01*
Y148130D01*
X79744D01*
Y151673D01*
X75807D01*
Y148130D01*
X76872D01*
Y143269D01*
X71908Y138305D01*
X71628Y138467D01*
X70827Y138681D01*
X69998D01*
X69197Y138467D01*
X68479Y138052D01*
X67892Y137466D01*
X67478Y136747D01*
X67263Y135946D01*
Y135117D01*
X67478Y134316D01*
X67892Y133598D01*
X68479Y133011D01*
X69197Y132597D01*
X69998Y132382D01*
X70827D01*
X71628Y132597D01*
X72347Y133011D01*
X72933Y133598D01*
X73348Y134316D01*
X73483Y134819D01*
X74483Y134688D01*
Y130988D01*
X64464Y120969D01*
X64266Y120674D01*
X64197Y120325D01*
Y119437D01*
X64135Y119345D01*
X63980Y118564D01*
Y106422D01*
X58032Y100474D01*
X57590Y99812D01*
X57435Y99032D01*
Y96524D01*
X57461Y96392D01*
X57452Y96258D01*
X57538Y96005D01*
X57590Y95743D01*
X57652Y95651D01*
Y93050D01*
X57590Y92958D01*
X57538Y92696D01*
X52422Y87580D01*
X51980Y86919D01*
X51825Y86138D01*
Y85969D01*
X50825Y85776D01*
X50531Y86285D01*
X49945Y86871D01*
X49227Y87286D01*
X48667Y87435D01*
Y97542D01*
X58558Y107433D01*
X58679Y107614D01*
X58792Y107727D01*
X58934Y107939D01*
X58984Y108191D01*
Y109055D01*
X58962Y109166D01*
Y147338D01*
X58990Y148327D01*
X62927D01*
Y151476D01*
X62927D01*
X62679Y152476D01*
X62730Y152600D01*
Y153305D01*
X62460Y153956D01*
X61962Y154455D01*
X61581Y154613D01*
X61289Y155412D01*
X61278Y155724D01*
X61685Y156130D01*
X61827Y156343D01*
X61877Y156595D01*
Y164313D01*
X61827Y164564D01*
X61685Y164777D01*
X60237Y166225D01*
X60443Y166980D01*
X60616Y167225D01*
X60847D01*
Y172540D01*
X60105D01*
X59881Y172917D01*
X60452Y173917D01*
X62090D01*
X62303Y173917D01*
X63091D01*
X63309Y173917D01*
X63723Y172917D01*
X63557Y172751D01*
X63287Y172100D01*
Y171395D01*
X63557Y170744D01*
X64056Y170246D01*
X64707Y169976D01*
X65412D01*
X66063Y170246D01*
X66561Y170744D01*
X66831Y171395D01*
Y172100D01*
X66561Y172751D01*
X66395Y172917D01*
X66809Y173917D01*
X67028D01*
Y176135D01*
X68028Y176549D01*
X69532Y175045D01*
X69828Y174847D01*
X70177Y174778D01*
X74803D01*
Y173917D01*
X78740D01*
Y177461D01*
X79465Y178124D01*
X84367D01*
X87868Y174623D01*
D02*
G37*
G36*
X56135Y172977D02*
X56185Y172726D01*
X56327Y172513D01*
X56791Y172050D01*
Y166635D01*
X56811Y166337D01*
X56325Y165563D01*
X56259Y165503D01*
X56201Y165478D01*
X55703Y164980D01*
X55433Y164329D01*
Y163624D01*
X55290Y163300D01*
X55213Y163170D01*
X54976Y162870D01*
X53914Y162807D01*
X52772Y163948D01*
X52639Y164038D01*
X51148Y165528D01*
Y167225D01*
X53366D01*
Y172540D01*
X50955D01*
X50668Y172917D01*
X51164Y173917D01*
X52248D01*
X52461Y173917D01*
Y173917D01*
X53248D01*
Y173917D01*
X56135D01*
Y172977D01*
D02*
G37*
G36*
X151648Y160138D02*
X151717Y159789D01*
X151915Y159494D01*
X162249Y149159D01*
X162545Y148961D01*
X162894Y148892D01*
X169806D01*
X170531Y148228D01*
X170531Y147892D01*
Y141142D01*
X180256D01*
Y142891D01*
X181256Y143306D01*
X181378Y143183D01*
X182029Y142913D01*
X182734D01*
X183385Y143183D01*
X183884Y143682D01*
X184153Y144333D01*
Y145037D01*
X183884Y145689D01*
X183385Y146187D01*
X182734Y146457D01*
X182029D01*
X181378Y146187D01*
X181256Y146065D01*
X180256Y146479D01*
X180256Y148228D01*
X180981Y148892D01*
X182126D01*
X182475Y148961D01*
X182770Y149159D01*
X186268Y152656D01*
X186360Y152618D01*
X187065D01*
X187716Y152888D01*
X188215Y153386D01*
X188484Y154037D01*
Y154742D01*
X188386Y154979D01*
X188909Y155930D01*
X188972Y155979D01*
X189995D01*
X190033Y155886D01*
X190532Y155388D01*
X191183Y155118D01*
X191888D01*
X192539Y155388D01*
X193037Y155886D01*
X193307Y156537D01*
Y157242D01*
X193037Y157893D01*
X192539Y158392D01*
X191888Y158661D01*
X191183D01*
X190532Y158392D01*
X190033Y157893D01*
X189995Y157801D01*
X188972D01*
X188909Y157850D01*
X188386Y158801D01*
X188484Y159037D01*
Y159742D01*
X188386Y159978D01*
X188909Y160930D01*
X188972Y160978D01*
X189995D01*
X190033Y160886D01*
X190532Y160388D01*
X191183Y160118D01*
X191888D01*
X192539Y160388D01*
X193037Y160886D01*
X193167Y161199D01*
X194085Y161501D01*
X194288Y161492D01*
X198001Y157780D01*
Y155685D01*
X182406Y140090D01*
X147752D01*
X144429Y143412D01*
Y148228D01*
X141173D01*
Y150886D01*
X141173Y150886D01*
X141050Y151500D01*
X140702Y152021D01*
X129406Y163317D01*
X129789Y164241D01*
X145079D01*
Y163878D01*
X148228D01*
Y165691D01*
X148259Y165847D01*
X148228Y166002D01*
Y167815D01*
X147565D01*
Y170963D01*
X148606D01*
X149606Y170963D01*
Y170963D01*
X149606D01*
Y170963D01*
X151648D01*
Y160138D01*
D02*
G37*
G36*
X131593Y190983D02*
Y190945D01*
X138187D01*
Y191018D01*
X140272D01*
X147289Y184001D01*
X147584Y183804D01*
X147933Y183735D01*
X166719D01*
X171973Y178481D01*
X171590Y177557D01*
X171260D01*
Y170963D01*
X171333D01*
Y168540D01*
X170669Y167815D01*
X170218D01*
X169218Y168540D01*
Y170963D01*
X169291D01*
Y177557D01*
X166354D01*
X165354Y177557D01*
Y177557D01*
X165354D01*
Y177557D01*
X161379D01*
X161180Y178557D01*
X161437Y178663D01*
X161935Y179162D01*
X162205Y179813D01*
Y180518D01*
X161935Y181169D01*
X161437Y181667D01*
X160785Y181937D01*
X160081D01*
X159430Y181667D01*
X159037Y181274D01*
X158465Y181216D01*
X157893Y181274D01*
X157500Y181667D01*
X156849Y181937D01*
X156144D01*
X155492Y181667D01*
X155100Y181274D01*
X154527Y181216D01*
X153955Y181274D01*
X153563Y181667D01*
X152911Y181937D01*
X152207D01*
X151556Y181667D01*
X151163Y181274D01*
X150591Y181216D01*
X150018Y181274D01*
X149626Y181667D01*
X148974Y181937D01*
X148270D01*
X147618Y181667D01*
X147226Y181274D01*
X146653Y181216D01*
X146081Y181274D01*
X145689Y181667D01*
X145596Y181705D01*
Y183760D01*
X145527Y184109D01*
X145329Y184404D01*
X143066Y186668D01*
X142770Y186865D01*
X142421Y186935D01*
X138187D01*
Y188976D01*
X131593D01*
Y188903D01*
X128769D01*
X128662Y189157D01*
X129325Y190157D01*
X129337D01*
X129988Y190427D01*
X130486Y190926D01*
X130593Y191182D01*
X131593Y190983D01*
D02*
G37*
G36*
X32201Y224323D02*
X26872Y218994D01*
X26481Y218408D01*
X26343Y217717D01*
Y207480D01*
X26181D01*
Y203937D01*
X25566Y203192D01*
X25333Y203145D01*
X24746Y202754D01*
X23132Y201139D01*
X22741Y200553D01*
X22603Y199862D01*
Y190591D01*
X22741Y189900D01*
X23132Y189313D01*
X24746Y187699D01*
X25333Y187308D01*
X26024Y187170D01*
X28150D01*
X28260Y187192D01*
X29260Y187174D01*
Y174902D01*
X29415Y174121D01*
X29857Y173460D01*
X30519Y173018D01*
X31299Y172862D01*
X38386D01*
X39166Y173018D01*
X39828Y173460D01*
X39828Y173460D01*
X43666Y177298D01*
X43666Y177298D01*
X44108Y177960D01*
X44244Y178642D01*
X46096D01*
Y174002D01*
X46146Y173750D01*
X46288Y173537D01*
X47728Y172097D01*
X47728Y172097D01*
X48655Y171171D01*
Y167950D01*
X48228Y167126D01*
X47655Y167126D01*
X45079D01*
Y166607D01*
X44739Y166431D01*
X44079Y166301D01*
X43720Y166660D01*
X43069Y166929D01*
X42364D01*
X41713Y166660D01*
X41214Y166161D01*
X40945Y165510D01*
Y164805D01*
X41214Y164154D01*
X41713Y163656D01*
X42364Y163386D01*
X43069D01*
X43720Y163656D01*
X44079Y164014D01*
X44739Y163884D01*
X45079Y163708D01*
Y163189D01*
X48228D01*
Y163602D01*
X49228Y164017D01*
X50022Y163223D01*
X50217Y162303D01*
X50217D01*
Y157641D01*
X48928Y156352D01*
X48581Y156496D01*
X47876D01*
X47225Y156226D01*
X46726Y155728D01*
X46457Y155077D01*
Y154372D01*
X46726Y153721D01*
X47225Y153223D01*
X47876Y152953D01*
X48581D01*
X49232Y153223D01*
X49360Y153351D01*
X50010Y153610D01*
X50659Y153351D01*
X50788Y153223D01*
X51439Y152953D01*
X52144D01*
X52795Y153223D01*
X53293Y153721D01*
X53563Y154372D01*
Y155077D01*
X53419Y155424D01*
X54080Y156085D01*
X54223Y156298D01*
X54273Y156549D01*
Y156988D01*
X56697D01*
X57106Y156988D01*
Y156988D01*
X57697D01*
X58227Y156208D01*
X58286Y156064D01*
X56775Y154554D01*
X56633Y154341D01*
X56583Y154090D01*
Y153225D01*
X56605Y153114D01*
Y152039D01*
X56322Y151808D01*
X55605Y151495D01*
X55175Y151673D01*
X54470D01*
X54177Y151552D01*
X53209Y151476D01*
X53209Y151476D01*
X49272D01*
Y148327D01*
X53209D01*
Y148327D01*
X54177Y148251D01*
X54470Y148130D01*
X55175D01*
X55605Y148308D01*
X56322Y147995D01*
X56605Y147764D01*
Y108873D01*
X44728Y96996D01*
X44227Y97285D01*
X43426Y97500D01*
X42596D01*
X41795Y97285D01*
X41077Y96871D01*
X40491Y96285D01*
X40120Y95643D01*
X40029Y95619D01*
X39120Y96126D01*
Y109474D01*
X43936Y114290D01*
X44378Y114951D01*
X44534Y115732D01*
Y118564D01*
X44378Y119345D01*
X44317Y119437D01*
Y122736D01*
X44247Y123084D01*
X44050Y123380D01*
X33387Y134043D01*
X33544Y134316D01*
X33759Y135117D01*
Y135946D01*
X33544Y136747D01*
X33130Y137466D01*
X32543Y138052D01*
X31825Y138467D01*
X31024Y138681D01*
X30195D01*
X29394Y138467D01*
X28676Y138052D01*
X28089Y137466D01*
X27674Y136747D01*
X27460Y135946D01*
Y135117D01*
X27674Y134316D01*
X28089Y133598D01*
X28676Y133011D01*
X29394Y132597D01*
X30195Y132382D01*
X31024D01*
X31825Y132597D01*
X32098Y132754D01*
X42494Y122358D01*
Y120604D01*
X39679D01*
X39589Y120586D01*
X39447Y121303D01*
X38942Y122521D01*
X38210Y123617D01*
X37277Y124549D01*
X36181Y125282D01*
X34963Y125786D01*
X33670Y126043D01*
X32352D01*
X31059Y125786D01*
X29841Y125282D01*
X28745Y124549D01*
X27812Y123617D01*
X27080Y122521D01*
X26575Y121303D01*
X26433Y120586D01*
X26343Y120604D01*
X18378D01*
Y121850D01*
X18961Y122239D01*
X19403Y122901D01*
X19558Y123681D01*
Y224896D01*
X20079Y225323D01*
X31787D01*
X32201Y224323D01*
D02*
G37*
G36*
X166732Y166010D02*
Y163878D01*
X169882D01*
X169882Y163878D01*
X170669D01*
Y163878D01*
X170882Y163878D01*
X173819D01*
Y164241D01*
X189454D01*
X189925Y163241D01*
X189562Y162801D01*
X182264D01*
X181915Y162732D01*
X181620Y162534D01*
X176690Y157604D01*
X166421D01*
X164002Y160023D01*
Y164586D01*
X165808Y166393D01*
X166732Y166010D01*
D02*
G37*
G36*
X281988Y148917D02*
Y133760D01*
X279331D01*
Y140846D01*
X277264Y142913D01*
X242421D01*
X237205Y137697D01*
X237205Y130118D01*
X257579Y109744D01*
Y83563D01*
X267520Y73622D01*
X292520D01*
X301772Y82874D01*
X305512D01*
Y75492D01*
X300984Y70965D01*
Y67913D01*
X302559Y66339D01*
X305512D01*
Y61811D01*
X294783D01*
Y67716D01*
X293110Y69390D01*
X277658D01*
X267493Y59225D01*
X267024Y59287D01*
X266898Y59369D01*
X266330Y60369D01*
X266535Y61137D01*
Y62485D01*
X266187Y63787D01*
X265513Y64954D01*
X264560Y65907D01*
X263393Y66580D01*
X262091Y66929D01*
X260743D01*
X259442Y66580D01*
X258275Y65907D01*
X257322Y64954D01*
X256648Y63787D01*
X256299Y62485D01*
Y61137D01*
X256648Y59835D01*
X256749Y59661D01*
X256171Y58661D01*
X251851D01*
X251273Y59661D01*
X251374Y59835D01*
X251722Y61137D01*
Y62485D01*
X251374Y63787D01*
X250700Y64954D01*
X249747Y65907D01*
X248580Y66580D01*
X247278Y66929D01*
X245931D01*
X244629Y66580D01*
X243462Y65907D01*
X242509Y64954D01*
X241835Y63787D01*
X241486Y62485D01*
Y61137D01*
X241835Y59835D01*
X241935Y59661D01*
X241358Y58661D01*
X236950D01*
X236274Y59338D01*
X236561Y59835D01*
X236910Y61137D01*
Y62485D01*
X236561Y63787D01*
X235887Y64954D01*
X234934Y65907D01*
X233767Y66580D01*
X232465Y66929D01*
X231118D01*
X229816Y66580D01*
X228649Y65907D01*
X227696Y64954D01*
X227022Y63787D01*
X226673Y62485D01*
Y61137D01*
X227022Y59835D01*
X227122Y59661D01*
X226545Y58661D01*
X225590D01*
Y81004D01*
X197539D01*
Y82284D01*
X192224D01*
X191634Y81693D01*
Y70768D01*
X199213D01*
Y64862D01*
X177067D01*
X173622Y68307D01*
Y94390D01*
X179331Y100099D01*
X191071Y100099D01*
Y87205D01*
X191226Y86424D01*
X191634Y85815D01*
Y85039D01*
X207382D01*
X222342Y100000D01*
Y100924D01*
X222413Y101279D01*
Y112106D01*
X222342Y112462D01*
Y125241D01*
X232677Y133902D01*
X232677Y145571D01*
X230512Y147736D01*
X202953D01*
X193799Y138583D01*
X190945D01*
Y144088D01*
X198432Y151575D01*
X279331Y151575D01*
X281988Y148917D01*
D02*
G37*
G36*
X94390Y117857D02*
X94390Y115354D01*
X92913Y113878D01*
Y73917D01*
X19558D01*
Y115020D01*
X19403Y115800D01*
X18961Y116462D01*
X18378Y116851D01*
Y118564D01*
X26343D01*
X26575Y117398D01*
X27080Y116180D01*
X27812Y115084D01*
X28745Y114152D01*
X29841Y113419D01*
X31059Y112915D01*
X32352Y112658D01*
X33670D01*
X34963Y112915D01*
X36181Y113419D01*
X37277Y114152D01*
X38210Y115084D01*
X38942Y116180D01*
X39447Y117398D01*
X39679Y118564D01*
X42494D01*
Y115732D01*
X37348Y110585D01*
X37150Y110290D01*
X37081Y109941D01*
Y91634D01*
X37150Y91285D01*
X37348Y90990D01*
X41904Y86434D01*
Y82579D01*
X41973Y82230D01*
X42171Y81934D01*
X44336Y79769D01*
X44632Y79571D01*
X44980Y79502D01*
X50689D01*
X51038Y79571D01*
X51333Y79769D01*
X53597Y82033D01*
X53795Y82328D01*
X53864Y82677D01*
Y83930D01*
X54861Y83936D01*
X54902Y83784D01*
X55076Y83135D01*
X55491Y82417D01*
X56077Y81830D01*
X56795Y81416D01*
X57596Y81201D01*
X58426D01*
X59227Y81416D01*
X59945Y81830D01*
X60531Y82417D01*
X60946Y83135D01*
X61161Y83936D01*
Y84765D01*
X60946Y85566D01*
X60531Y86285D01*
X59945Y86871D01*
X59227Y87286D01*
X58426Y87500D01*
X57596D01*
X56795Y87286D01*
X56077Y86871D01*
X55491Y86285D01*
X55076Y85566D01*
X54902Y84917D01*
X54861Y84765D01*
X53864Y84771D01*
Y86138D01*
X59207Y91482D01*
X59405Y91777D01*
X59474Y92126D01*
Y92177D01*
X60474Y92445D01*
X60491Y92417D01*
X61077Y91830D01*
X61795Y91416D01*
X62596Y91201D01*
X63426D01*
X64227Y91416D01*
X64945Y91830D01*
X65531Y92417D01*
X65946Y93135D01*
X66161Y93936D01*
Y94765D01*
X65946Y95566D01*
X65531Y96285D01*
X64945Y96871D01*
X64227Y97285D01*
X63426Y97500D01*
X62596D01*
X61795Y97285D01*
X61077Y96871D01*
X60491Y96285D01*
X60474Y96256D01*
X59474Y96524D01*
Y99032D01*
X65753Y105310D01*
X65950Y105606D01*
X66019Y105955D01*
Y118564D01*
X71343D01*
X71575Y117398D01*
X72080Y116180D01*
X72812Y115084D01*
X73745Y114152D01*
X74841Y113419D01*
X76059Y112915D01*
X77352Y112658D01*
X78670D01*
X79963Y112915D01*
X81181Y113419D01*
X82278Y114152D01*
X83210Y115084D01*
X83942Y116180D01*
X84447Y117398D01*
X84679Y118564D01*
X93683D01*
X94390Y117857D01*
D02*
G37*
G36*
X220374Y101279D02*
X215354Y96260D01*
X212795D01*
Y112106D01*
X220374D01*
Y101279D01*
D02*
G37*
G36*
X297862Y106299D02*
X292350D01*
Y95276D01*
X284646D01*
Y106299D01*
X279134D01*
Y109843D01*
X297862D01*
Y106299D01*
D02*
G37*
G36*
X207185Y90059D02*
X204331Y87205D01*
X193110D01*
Y100099D01*
X207185D01*
X207185Y90059D01*
D02*
G37*
G36*
X139911Y82184D02*
X140748Y81791D01*
Y73819D01*
X120893D01*
X120510Y74743D01*
X125098Y79330D01*
X126378D01*
Y80610D01*
X127952Y82184D01*
X139911Y82184D01*
D02*
G37*
G36*
X223327Y58661D02*
X203150D01*
Y61811D01*
X208071Y66732D01*
Y69587D01*
X214961Y76476D01*
Y78839D01*
X223327D01*
Y58661D01*
D02*
G37*
%LPC*%
G36*
X12528Y389173D02*
X11094D01*
X9686Y388893D01*
X8361Y388344D01*
X7168Y387547D01*
X6154Y386533D01*
X5356Y385340D01*
X4808Y384014D01*
X4528Y382607D01*
Y381172D01*
X4808Y379765D01*
X5356Y378440D01*
X6154Y377247D01*
X7168Y376232D01*
X8361Y375435D01*
X9686Y374886D01*
X11094Y374606D01*
X12528D01*
X13936Y374886D01*
X15261Y375435D01*
X16454Y376232D01*
X17469Y377247D01*
X18266Y378440D01*
X18815Y379765D01*
X19094Y381172D01*
Y382607D01*
X18815Y384014D01*
X18266Y385340D01*
X17469Y386533D01*
X16454Y387547D01*
X15261Y388344D01*
X13936Y388893D01*
X12528Y389173D01*
D02*
G37*
G36*
X12281Y372441D02*
X11341D01*
X10473Y372081D01*
X9808Y371417D01*
X9449Y370549D01*
Y369609D01*
X9808Y368741D01*
X10473Y368076D01*
X11341Y367717D01*
X12281D01*
X13149Y368076D01*
X13814Y368741D01*
X14173Y369609D01*
Y370549D01*
X13814Y371417D01*
X13149Y372081D01*
X12281Y372441D01*
D02*
G37*
G36*
X212921Y357098D02*
X212040D01*
X211189Y356870D01*
X210425Y356429D01*
X209803Y355806D01*
X209362Y355043D01*
X209134Y354192D01*
Y353311D01*
X209362Y352460D01*
X209803Y351696D01*
X210425Y351073D01*
X211189Y350633D01*
X212040Y350405D01*
X212921D01*
X213772Y350633D01*
X214535Y351073D01*
X215158Y351696D01*
X215599Y352460D01*
X215827Y353311D01*
Y354192D01*
X215599Y355043D01*
X215158Y355806D01*
X214535Y356429D01*
X213772Y356870D01*
X212921Y357098D01*
D02*
G37*
G36*
X192921D02*
X192040D01*
X191189Y356870D01*
X190426Y356429D01*
X189803Y355806D01*
X189362Y355043D01*
X189134Y354192D01*
Y353311D01*
X189362Y352460D01*
X189803Y351696D01*
X190426Y351073D01*
X191189Y350633D01*
X192040Y350405D01*
X192921D01*
X193772Y350633D01*
X194535Y351073D01*
X195158Y351696D01*
X195599Y352460D01*
X195827Y353311D01*
Y354192D01*
X195599Y355043D01*
X195158Y355806D01*
X194535Y356429D01*
X193772Y356870D01*
X192921Y357098D01*
D02*
G37*
G36*
X172921D02*
X172040D01*
X171189Y356870D01*
X170425Y356429D01*
X169802Y355806D01*
X169362Y355043D01*
X169134Y354192D01*
Y353311D01*
X169362Y352460D01*
X169802Y351696D01*
X170425Y351073D01*
X171189Y350633D01*
X172040Y350405D01*
X172921D01*
X173772Y350633D01*
X174535Y351073D01*
X175158Y351696D01*
X175599Y352460D01*
X175827Y353311D01*
Y354192D01*
X175599Y355043D01*
X175158Y355806D01*
X174535Y356429D01*
X173772Y356870D01*
X172921Y357098D01*
D02*
G37*
G36*
X152921D02*
X152040D01*
X151189Y356870D01*
X150426Y356429D01*
X149802Y355806D01*
X149362Y355043D01*
X149134Y354192D01*
Y353311D01*
X149362Y352460D01*
X149802Y351696D01*
X150426Y351073D01*
X151189Y350633D01*
X152040Y350405D01*
X152921D01*
X153772Y350633D01*
X154535Y351073D01*
X155158Y351696D01*
X155599Y352460D01*
X155827Y353311D01*
Y354192D01*
X155599Y355043D01*
X155158Y355806D01*
X154535Y356429D01*
X153772Y356870D01*
X152921Y357098D01*
D02*
G37*
G36*
X132921D02*
X132040D01*
X131189Y356870D01*
X130426Y356429D01*
X129803Y355806D01*
X129362Y355043D01*
X129134Y354192D01*
Y353311D01*
X129362Y352460D01*
X129803Y351696D01*
X130426Y351073D01*
X131189Y350633D01*
X132040Y350405D01*
X132921D01*
X133772Y350633D01*
X134535Y351073D01*
X135158Y351696D01*
X135599Y352460D01*
X135827Y353311D01*
Y354192D01*
X135599Y355043D01*
X135158Y355806D01*
X134535Y356429D01*
X133772Y356870D01*
X132921Y357098D01*
D02*
G37*
G36*
X112921D02*
X112040D01*
X111189Y356870D01*
X110425Y356429D01*
X109802Y355806D01*
X109362Y355043D01*
X109134Y354192D01*
Y353311D01*
X109362Y352460D01*
X109802Y351696D01*
X110425Y351073D01*
X111189Y350633D01*
X112040Y350405D01*
X112921D01*
X113772Y350633D01*
X114535Y351073D01*
X115158Y351696D01*
X115599Y352460D01*
X115827Y353311D01*
Y354192D01*
X115599Y355043D01*
X115158Y355806D01*
X114535Y356429D01*
X113772Y356870D01*
X112921Y357098D01*
D02*
G37*
G36*
X92921D02*
X92040D01*
X91189Y356870D01*
X90425Y356429D01*
X89802Y355806D01*
X89362Y355043D01*
X89134Y354192D01*
Y353311D01*
X89362Y352460D01*
X89802Y351696D01*
X90425Y351073D01*
X91189Y350633D01*
X92040Y350405D01*
X92921D01*
X93772Y350633D01*
X94535Y351073D01*
X95158Y351696D01*
X95599Y352460D01*
X95827Y353311D01*
Y354192D01*
X95599Y355043D01*
X95158Y355806D01*
X94535Y356429D01*
X93772Y356870D01*
X92921Y357098D01*
D02*
G37*
G36*
X12281Y25984D02*
X11341D01*
X10473Y25625D01*
X9808Y24960D01*
X9449Y24092D01*
Y23152D01*
X9808Y22284D01*
X10473Y21620D01*
X11341Y21260D01*
X12281D01*
X13149Y21620D01*
X13814Y22284D01*
X14173Y23152D01*
Y24092D01*
X13814Y24960D01*
X13149Y25625D01*
X12281Y25984D01*
D02*
G37*
G36*
X12528Y19094D02*
X11094D01*
X9686Y18815D01*
X8361Y18266D01*
X7168Y17469D01*
X6154Y16454D01*
X5356Y15261D01*
X4808Y13936D01*
X4528Y12528D01*
Y11094D01*
X4808Y9686D01*
X5356Y8361D01*
X6154Y7168D01*
X7168Y6154D01*
X8361Y5356D01*
X9686Y4808D01*
X11094Y4528D01*
X12528D01*
X13936Y4808D01*
X15261Y5356D01*
X16454Y6154D01*
X17469Y7168D01*
X18266Y8361D01*
X18815Y9686D01*
X19094Y11094D01*
Y12528D01*
X18815Y13936D01*
X18266Y15261D01*
X17469Y16454D01*
X16454Y17469D01*
X15261Y18266D01*
X13936Y18815D01*
X12528Y19094D01*
D02*
G37*
G36*
X303867Y389173D02*
X302432D01*
X301025Y388893D01*
X299700Y388344D01*
X298507Y387547D01*
X297492Y386533D01*
X296695Y385340D01*
X296146Y384014D01*
X295866Y382607D01*
Y381172D01*
X296146Y379765D01*
X296695Y378440D01*
X297492Y377247D01*
X298507Y376232D01*
X299700Y375435D01*
X301025Y374886D01*
X302432Y374606D01*
X303867D01*
X305274Y374886D01*
X306600Y375435D01*
X307792Y376232D01*
X308807Y377247D01*
X309604Y378440D01*
X310153Y379765D01*
X310433Y381172D01*
Y382607D01*
X310153Y384014D01*
X309604Y385340D01*
X308807Y386533D01*
X307792Y387547D01*
X306600Y388344D01*
X305274Y388893D01*
X303867Y389173D01*
D02*
G37*
G36*
X303620Y372441D02*
X302680D01*
X301812Y372081D01*
X301147Y371417D01*
X300787Y370549D01*
Y369609D01*
X301147Y368741D01*
X301812Y368076D01*
X302680Y367717D01*
X303620D01*
X304488Y368076D01*
X305152Y368741D01*
X305512Y369609D01*
Y370549D01*
X305152Y371417D01*
X304488Y372081D01*
X303620Y372441D01*
D02*
G37*
G36*
X302524Y303741D02*
X232524D01*
X232222Y303616D01*
X232098Y303315D01*
Y256315D01*
X232222Y256014D01*
X232524Y255889D01*
X302524D01*
X302825Y256014D01*
X302950Y256315D01*
Y303315D01*
X302825Y303616D01*
X302524Y303741D01*
D02*
G37*
G36*
X206713Y260945D02*
X203012D01*
Y249173D01*
X206713D01*
Y260945D01*
D02*
G37*
G36*
X186713D02*
X183012D01*
Y249173D01*
X186713D01*
Y260945D01*
D02*
G37*
G36*
X236917Y243709D02*
X228130D01*
Y234921D01*
X236917D01*
Y243709D01*
D02*
G37*
G36*
X186713Y244921D02*
X183012D01*
Y233150D01*
X186713D01*
Y244921D01*
D02*
G37*
G36*
X181713D02*
X178012D01*
Y233150D01*
X181713D01*
Y244921D01*
D02*
G37*
G36*
X236917Y233709D02*
X228130D01*
Y230226D01*
X224221D01*
X224183Y230318D01*
X223685Y230817D01*
X223033Y231087D01*
X222329D01*
X221677Y230817D01*
X221179Y230318D01*
X220910Y229667D01*
Y228963D01*
X221179Y228311D01*
X221677Y227813D01*
X222329Y227543D01*
X223033D01*
X223685Y227813D01*
X224183Y228311D01*
X224221Y228404D01*
X228130D01*
Y224921D01*
X236917D01*
Y233709D01*
D02*
G37*
G36*
Y223709D02*
X228130D01*
Y220226D01*
X224221D01*
X224183Y220319D01*
X223685Y220817D01*
X223033Y221087D01*
X222329D01*
X221677Y220817D01*
X221179Y220319D01*
X220910Y219667D01*
Y218963D01*
X221179Y218311D01*
X221677Y217813D01*
X222329Y217543D01*
X223033D01*
X223685Y217813D01*
X224183Y218311D01*
X224221Y218404D01*
X228130D01*
Y214921D01*
X236917D01*
Y223709D01*
D02*
G37*
G36*
X306917D02*
X298130D01*
Y214921D01*
X306917D01*
Y223709D01*
D02*
G37*
G36*
X236917Y213709D02*
X228130D01*
Y210226D01*
X224221D01*
X224183Y210318D01*
X223685Y210817D01*
X223033Y211087D01*
X222329D01*
X221677Y210817D01*
X221179Y210318D01*
X220910Y209667D01*
Y208963D01*
X221179Y208311D01*
X221677Y207813D01*
X222329Y207543D01*
X223033D01*
X223685Y207813D01*
X224183Y208311D01*
X224221Y208404D01*
X228130D01*
Y204921D01*
X236917D01*
Y213709D01*
D02*
G37*
G36*
X257264Y178248D02*
X253917D01*
Y170177D01*
X257264D01*
Y178248D01*
D02*
G37*
G36*
X252264D02*
X248917D01*
Y170177D01*
X248917D01*
X248992Y169177D01*
X248819Y168758D01*
Y168053D01*
X249088Y167402D01*
X249587Y166904D01*
X250238Y166634D01*
X250943D01*
X251594Y166904D01*
X252092Y167402D01*
X252362Y168053D01*
Y168758D01*
X252188Y169177D01*
X252264Y170177D01*
X252264Y170177D01*
Y178248D01*
D02*
G37*
G36*
X303620Y144095D02*
X302680D01*
X301812Y143735D01*
X301147Y143070D01*
X300787Y142202D01*
Y141262D01*
X301147Y140394D01*
X301812Y139730D01*
X302680Y139370D01*
X303620D01*
X304488Y139730D01*
X305152Y140394D01*
X305512Y141262D01*
Y142202D01*
X305152Y143070D01*
X304488Y143735D01*
X303620Y144095D01*
D02*
G37*
G36*
X303867Y137205D02*
X302432D01*
X301025Y136925D01*
X299700Y136376D01*
X298507Y135579D01*
X297492Y134564D01*
X296695Y133371D01*
X296146Y132046D01*
X295866Y130639D01*
Y129204D01*
X296146Y127797D01*
X296695Y126471D01*
X297492Y125278D01*
X298507Y124264D01*
X299700Y123467D01*
X301025Y122918D01*
X302432Y122638D01*
X303867D01*
X305274Y122918D01*
X306600Y123467D01*
X307792Y124264D01*
X308807Y125278D01*
X309604Y126471D01*
X310153Y127797D01*
X310433Y129204D01*
Y130639D01*
X310153Y132046D01*
X309604Y133371D01*
X308807Y134564D01*
X307792Y135579D01*
X306600Y136376D01*
X305274Y136925D01*
X303867Y137205D01*
D02*
G37*
G36*
X259448Y21063D02*
X258048D01*
X256697Y20701D01*
X255485Y20001D01*
X254495Y19012D01*
X253795Y17799D01*
X253433Y16448D01*
Y15048D01*
X253795Y13697D01*
X254495Y12485D01*
X255485Y11495D01*
X256697Y10795D01*
X258048Y10433D01*
X259448D01*
X260800Y10795D01*
X262012Y11495D01*
X263001Y12485D01*
X263701Y13697D01*
X264063Y15048D01*
Y16448D01*
X263701Y17799D01*
X263001Y19012D01*
X262012Y20001D01*
X260800Y20701D01*
X259448Y21063D01*
D02*
G37*
G36*
X65433Y265846D02*
X60709D01*
Y256791D01*
X65433D01*
Y265846D01*
D02*
G37*
G36*
X135360Y176622D02*
X134420D01*
X133552Y176262D01*
X132887Y175598D01*
X132528Y174730D01*
Y173790D01*
X132887Y172922D01*
X133552Y172257D01*
X134420Y171898D01*
X135360D01*
X136228Y172257D01*
X136892Y172922D01*
X137252Y173790D01*
Y174730D01*
X136892Y175598D01*
X136228Y176262D01*
X135360Y176622D01*
D02*
G37*
G36*
X143701Y177557D02*
X141732D01*
Y170963D01*
X143701D01*
Y177557D01*
D02*
G37*
G36*
X53426Y97500D02*
X52596D01*
X51795Y97285D01*
X51077Y96871D01*
X50491Y96285D01*
X50076Y95566D01*
X49861Y94765D01*
Y93936D01*
X50076Y93135D01*
X50491Y92417D01*
X51077Y91830D01*
X51795Y91416D01*
X52596Y91201D01*
X53426D01*
X54227Y91416D01*
X54945Y91830D01*
X55531Y92417D01*
X55946Y93135D01*
X56161Y93936D01*
Y94765D01*
X55946Y95566D01*
X55531Y96285D01*
X54945Y96871D01*
X54227Y97285D01*
X53426Y97500D01*
D02*
G37*
G36*
X35217Y151673D02*
X31280D01*
Y148130D01*
X32345D01*
Y142893D01*
X32414Y142548D01*
X32609Y142254D01*
X37836Y137028D01*
X37674Y136747D01*
X37460Y135946D01*
Y135117D01*
X37674Y134316D01*
X38089Y133598D01*
X38676Y133011D01*
X39394Y132597D01*
X40195Y132382D01*
X41024D01*
X41825Y132597D01*
X42543Y133011D01*
X43130Y133598D01*
X43544Y134316D01*
X43759Y135117D01*
Y135946D01*
X43544Y136747D01*
X43130Y137466D01*
X42543Y138052D01*
X41825Y138467D01*
X41024Y138681D01*
X40195D01*
X39394Y138467D01*
X39114Y138305D01*
X34151Y143267D01*
Y148130D01*
X35217D01*
Y151673D01*
D02*
G37*
G36*
X73426Y97500D02*
X72596D01*
X71795Y97285D01*
X71077Y96871D01*
X70491Y96285D01*
X70076Y95566D01*
X69862Y94765D01*
Y93936D01*
X70076Y93135D01*
X70491Y92417D01*
X71077Y91830D01*
X71795Y91416D01*
X72596Y91201D01*
X73426D01*
X74227Y91416D01*
X74945Y91830D01*
X75531Y92417D01*
X75946Y93135D01*
X76161Y93936D01*
Y94765D01*
X75946Y95566D01*
X75531Y96285D01*
X74945Y96871D01*
X74227Y97285D01*
X73426Y97500D01*
D02*
G37*
G36*
X68426Y87500D02*
X67596D01*
X66795Y87286D01*
X66077Y86871D01*
X65491Y86285D01*
X65076Y85566D01*
X64862Y84765D01*
Y83936D01*
X65076Y83135D01*
X65491Y82417D01*
X66077Y81830D01*
X66795Y81416D01*
X67596Y81201D01*
X68426D01*
X69227Y81416D01*
X69945Y81830D01*
X70531Y82417D01*
X70946Y83135D01*
X71161Y83936D01*
Y84765D01*
X70946Y85566D01*
X70531Y86285D01*
X69945Y86871D01*
X69227Y87286D01*
X68426Y87500D01*
D02*
G37*
%LPD*%
D10*
X81791Y199705D02*
Y201575D01*
Y197343D02*
Y199705D01*
X81701Y199614D02*
X81791Y199705D01*
X69398Y199614D02*
X81701D01*
X81496Y201870D02*
X81791Y201575D01*
X81693Y197343D02*
X81791D01*
X66929Y197146D02*
X69398Y199614D01*
X63188Y197146D02*
X66929D01*
X226303Y193504D02*
X286713D01*
X302524Y209315D01*
X224414Y190945D02*
X294153D01*
X302524Y199315D01*
X167913Y186811D02*
X181988Y172736D01*
X192913D02*
X196555Y169095D01*
X181988Y172736D02*
X192913D01*
X167097Y184646D02*
X181368Y170374D01*
X191831D02*
X196653Y165551D01*
X181368Y170374D02*
X191831D01*
X180071Y205709D02*
X208169D01*
X219488Y191339D02*
Y194390D01*
X208169Y205709D02*
X219488Y194390D01*
X180071Y203740D02*
X206890D01*
X216831Y189665D02*
Y193799D01*
X206890Y203740D02*
X216831Y193799D01*
X180071Y201772D02*
X205512D01*
X213976Y188386D02*
Y193307D01*
X205512Y201772D02*
X213976Y193307D01*
X180071Y199803D02*
X204134D01*
X211221Y187008D02*
Y192717D01*
X204134Y199803D02*
X211221Y192717D01*
X198228Y186024D02*
Y191437D01*
X193602Y186024D02*
X198228D01*
X189214Y182621D02*
X190003D01*
X193405Y186024D02*
X193602D01*
X190003Y182621D02*
X193405Y186024D01*
X188878Y182285D02*
X189214Y182621D01*
X211221Y187008D02*
X217520Y180709D01*
X213976Y188386D02*
X219094Y183268D01*
X216831Y189665D02*
X220669Y185827D01*
X219488Y191339D02*
X222441Y188386D01*
X201181Y211221D02*
Y223803D01*
X204862Y227484D02*
Y228468D01*
X201181Y223803D02*
X204862Y227484D01*
X197638Y207677D02*
X201181Y211221D01*
X180071Y207677D02*
X197638D01*
X204378Y228952D02*
Y230484D01*
Y228952D02*
X204862Y228468D01*
X199862Y235000D02*
Y239035D01*
Y235000D02*
X204378Y230484D01*
X196878Y227484D02*
X197362Y227968D01*
X194862Y227484D02*
X196878D01*
X197362Y227968D02*
Y228468D01*
X194862Y235000D02*
Y239035D01*
X197362Y228468D02*
Y232500D01*
X194862Y235000D02*
X197362Y232500D01*
X174508Y228839D02*
X177854Y225492D01*
X164370Y228839D02*
X174508D01*
X177854Y225492D02*
X187894D01*
X190508Y223130D02*
X194862Y227484D01*
X172244Y221754D02*
X172335Y221845D01*
X176470D01*
X172244Y219441D02*
Y221754D01*
X176470Y221845D02*
X177755Y223130D01*
X190508D01*
X187894Y225492D02*
X189378Y226976D01*
Y227984D01*
X189862Y228468D01*
Y239035D01*
X160433Y224902D02*
X164370Y228839D01*
X160433Y219441D02*
Y224902D01*
X167815Y234311D02*
X173906D01*
X174862Y235268D01*
Y239035D01*
X165709Y234311D02*
X167815D01*
X154618Y223220D02*
X165709Y234311D01*
X154618Y219531D02*
Y223220D01*
X154527Y219441D02*
X154618Y219531D01*
X173906Y250335D02*
X174862Y251291D01*
X167815Y250335D02*
X173906D01*
X174862Y251291D02*
Y255059D01*
X167815Y249350D02*
Y250335D01*
X163779Y245315D02*
X167815Y249350D01*
X152559Y223425D02*
X163779Y234646D01*
Y245315D01*
X152559Y219441D02*
Y223425D01*
X159449Y239370D02*
X159476Y239343D01*
Y235927D02*
Y239343D01*
Y235927D02*
X159504Y235899D01*
X154527Y235773D02*
Y239370D01*
X149606Y226083D02*
Y239370D01*
X149606Y239370D02*
X149606Y239370D01*
X251094Y134536D02*
X251370Y134260D01*
X251468D02*
X260827Y124902D01*
X251370Y134260D02*
X251468D01*
X260827Y84941D02*
Y124902D01*
X251094Y134536D02*
Y136898D01*
X250590Y137402D02*
X251094Y136898D01*
X260827Y84941D02*
X269980Y75787D01*
X86515Y252894D02*
Y256410D01*
X97803Y228801D02*
Y236299D01*
X107803Y228801D02*
Y236299D01*
X117803Y228801D02*
Y236299D01*
X139469Y81102D02*
X141732Y83366D01*
X150886D01*
X152165Y84646D01*
X174705D01*
X148604Y87298D02*
Y91222D01*
X148622Y91240D01*
X129429Y84941D02*
X149409D01*
X148018Y86713D02*
X148604Y87298D01*
X149409Y84941D02*
X150591Y86122D01*
X132382Y86713D02*
X148018D01*
X129134Y85236D02*
X129429Y84941D01*
X129528Y89567D02*
X132382Y86713D01*
X129134Y89567D02*
X129528D01*
X131404Y278634D02*
Y278732D01*
X135663Y282992D01*
X145394D01*
X130219Y277548D02*
X130318D01*
X131404Y278634D01*
X124283Y277362D02*
X125555Y278634D01*
Y278732D01*
X131901Y285079D01*
X124184Y277362D02*
X124283D01*
X131901Y285079D02*
X144429D01*
X118335Y277362D02*
X118433D01*
X119705Y278732D02*
X128138Y287165D01*
X143169D01*
X119705Y278634D02*
Y278732D01*
X118433Y277362D02*
X119705Y278634D01*
X124376Y289252D02*
X142008D01*
X112486Y277362D02*
X112584D01*
X113856Y278732D02*
X124376Y289252D01*
X112584Y277362D02*
X113856Y278634D01*
Y278732D01*
X106637Y277362D02*
X106735D01*
X108007Y278634D01*
Y278732D01*
X120613Y291339D02*
X141147D01*
X108007Y278732D02*
X120613Y291339D01*
X100886Y277461D02*
X100984D01*
X102157Y278634D02*
Y278732D01*
X117618Y294193D02*
X139673D01*
X102157Y278732D02*
X117618Y294193D01*
X100984Y277461D02*
X102157Y278634D01*
X139673Y294193D02*
X139764Y294284D01*
Y295571D01*
X143701Y290945D02*
Y295571D01*
X142008Y289252D02*
X143701Y290945D01*
X143169Y287165D02*
X145669Y289665D01*
Y295571D01*
X147638Y288287D02*
Y295571D01*
X144429Y285079D02*
X147638Y288287D01*
X149606Y287205D02*
Y295571D01*
X145394Y282992D02*
X149606Y287205D01*
X151575Y285531D02*
Y295571D01*
X139525Y280906D02*
X146949D01*
X151575Y285531D01*
X135981Y277362D02*
X139525Y280906D01*
X141732Y277362D02*
X146855D01*
X148221Y278728D02*
X152957Y283465D01*
X146855Y277362D02*
X148221Y278728D01*
X148221D01*
X152957Y283465D02*
X152957D01*
X153543Y284050D02*
Y295571D01*
X152957Y283465D02*
X153543Y284050D01*
X139187Y119977D02*
X143902D01*
X152559Y111320D01*
Y91240D02*
Y111320D01*
X128695Y106398D02*
X132677D01*
X131123Y115457D02*
X144685Y101895D01*
Y91240D02*
Y101895D01*
X146653Y91240D02*
Y111611D01*
X132677Y106398D02*
X142717Y96358D01*
Y91240D02*
Y96358D01*
X134843Y116125D02*
X135546Y116828D01*
X141437D02*
X146653Y111611D01*
X129753Y116828D02*
X129851D01*
X141339D02*
X141437D01*
X139075Y91240D02*
X140748D01*
X129921Y100394D02*
X139075Y91240D01*
X123113Y100394D02*
X129921D01*
X118265Y116828D02*
X128695Y106398D01*
X131123Y115457D02*
Y115556D01*
X129851Y116828D02*
X131123Y115556D01*
X123960Y116828D02*
X129851D01*
X106580D02*
X106679D01*
X100787D02*
X106580D01*
X106679D02*
X123113Y100394D01*
X98133Y119977D02*
X116015D01*
X96850Y121260D02*
Y128937D01*
Y121260D02*
X98133Y119977D01*
X112373Y116828D02*
X118166D01*
X118265D01*
X143631Y130582D02*
X154527Y119685D01*
X168700Y109252D02*
Y116929D01*
X158465Y101870D02*
X159842Y103248D01*
Y116929D01*
X184350Y114075D02*
X187007Y116732D01*
Y116929D01*
X196358D02*
X200787D01*
X180118Y111909D02*
X191732D01*
X196358Y116535D01*
X197952Y109547D02*
X204941Y116535D01*
X180610Y109547D02*
X197952D01*
X204941Y116535D02*
Y116929D01*
X170965Y132382D02*
X187992D01*
X164173Y121653D02*
Y125590D01*
X170965Y132382D01*
X187992D02*
X189862Y130512D01*
X173425Y124311D02*
X179626Y130512D01*
X187106D02*
X189173Y128445D01*
X179626Y130512D02*
X187106D01*
X177952Y125787D02*
X180905Y128740D01*
X186122D02*
X188287Y126575D01*
X180905Y128740D02*
X186122D01*
X199409Y130512D02*
X203937Y135039D01*
X189862Y130512D02*
X199409D01*
X202343Y128445D02*
X208937Y135039D01*
X189173Y128445D02*
X202343D01*
X188287Y126575D02*
X205472D01*
X212907Y134010D01*
X208602Y124705D02*
X218937Y135039D01*
X187007Y121850D02*
X189862Y124705D01*
X208602D01*
X173425Y121653D02*
Y124311D01*
X177952Y121653D02*
Y125787D01*
X159842Y121653D02*
X164173D01*
X187007D02*
Y121850D01*
X208956Y121653D02*
Y121850D01*
X209834Y122728D01*
X211626D01*
X177952Y116929D02*
X182283D01*
X187007D02*
X191338D01*
X196358Y116535D02*
Y116929D01*
X204941D02*
X208956D01*
X168700D02*
X173425D01*
X173228Y295571D02*
Y297835D01*
X163878Y307087D02*
X169874Y301091D01*
X157264Y307087D02*
X157480D01*
X153543Y310808D02*
X157264Y307087D01*
X157480D02*
X163878D01*
X165419Y308628D01*
X63385Y185828D02*
Y186319D01*
Y185828D02*
X68799Y180413D01*
X63188Y186516D02*
X63385Y186319D01*
X63188Y186516D02*
Y189272D01*
Y199114D02*
X64271D01*
X65861Y200705D01*
X50689Y215846D02*
Y220371D01*
X46653Y215846D02*
X50689D01*
X202953Y182285D02*
Y186024D01*
X202756Y186221D02*
X202953Y186024D01*
X198937Y182285D02*
X202953D01*
X170185Y174350D02*
Y178108D01*
X168808Y179485D02*
X170185Y178108D01*
X168808Y179485D02*
Y179571D01*
X147933Y184646D02*
X167097D01*
X265590Y85396D02*
X273034Y77953D01*
X265590Y85396D02*
Y137402D01*
X270590Y86103D02*
Y137402D01*
Y86103D02*
X276279Y80413D01*
X169291Y291732D02*
X172441Y288583D01*
X182677D01*
X169291Y291732D02*
Y295571D01*
X172146Y284941D02*
X178051D01*
X167323Y289764D02*
X172146Y284941D01*
X167323Y289764D02*
Y295571D01*
X165354Y287894D02*
Y295571D01*
X172145Y279458D02*
Y281103D01*
Y279458D02*
X172761Y278842D01*
X165354Y287894D02*
X172145Y281103D01*
X168138Y279683D02*
X168980Y278842D01*
X161417Y287795D02*
X168138Y281074D01*
X161417Y287795D02*
Y295571D01*
X168138Y279683D02*
Y281074D01*
X159449Y284876D02*
X164124Y280201D01*
X159449Y284876D02*
Y295571D01*
X164124Y279523D02*
Y280201D01*
Y279523D02*
X164805Y278842D01*
X157480Y282385D02*
X161024Y278842D01*
X157480Y282385D02*
Y295571D01*
X178051Y284941D02*
X180782Y282210D01*
X182677Y288583D02*
X188607Y282653D01*
X275590Y123031D02*
Y137402D01*
Y89173D02*
Y123031D01*
X158465Y178197D02*
X160433Y180165D01*
X158465Y174260D02*
Y178197D01*
X75394Y137008D02*
X88779Y150394D01*
Y175000D01*
X84744Y179035D02*
X88779Y175000D01*
X91535Y146654D02*
Y182480D01*
X88197Y185819D02*
X91535Y182480D01*
X75697Y185819D02*
X88197D01*
X80413Y135532D02*
X91535Y146654D01*
X63188Y195177D02*
X68898D01*
X70669Y193405D01*
X76476D01*
X140013Y188717D02*
X140166D01*
X138769Y189961D02*
X140013Y188717D01*
X134890Y189961D02*
X138769D01*
X134890Y191929D02*
X140650D01*
X147933Y184646D01*
X148327Y186811D02*
X167913D01*
X141240Y193898D02*
X148327Y186811D01*
X134890Y193898D02*
X141240D01*
X134890Y195866D02*
X138827D01*
X140795Y197835D01*
X144595Y219531D02*
X144685Y219441D01*
X144595Y219531D02*
Y222478D01*
X142824Y224249D02*
X144595Y222478D01*
X142824Y224249D02*
Y224249D01*
X138779Y220571D02*
X148721Y210630D01*
X161713D01*
X138779Y220571D02*
Y227756D01*
X174165Y203776D02*
Y207925D01*
X175886Y209646D02*
X180071D01*
X174165Y207925D02*
X175886Y209646D01*
X175098Y211614D02*
X180071D01*
X164961Y207382D02*
X170866D01*
X180071Y211614D02*
X188878D01*
X170866Y207382D02*
X175098Y211614D01*
X140954Y169287D02*
Y178678D01*
X141539Y168701D02*
X143012D01*
X140954Y169287D02*
X141539Y168701D01*
X143012D02*
X144685Y170374D01*
Y174260D01*
X170185Y174350D02*
X170276Y174260D01*
X161713Y210630D02*
X164961Y207382D01*
X196653Y165551D02*
X212638D01*
X182264Y161890D02*
X191535D01*
X172244Y165847D02*
Y174260D01*
X196555Y169095D02*
X200984D01*
X148622Y189961D02*
X159449Y200787D01*
Y207677D01*
X144685Y180165D02*
Y183760D01*
X142421Y186024D02*
X144685Y183760D01*
X134890Y186024D02*
X142421D01*
X178543Y154232D02*
X183701Y159390D01*
X186713D01*
X177067Y156693D02*
X182264Y161890D01*
X166043Y156693D02*
X177067D01*
X165157Y154232D02*
X178543D01*
X185138Y156890D02*
X191535D01*
X164075Y151969D02*
X180217D01*
X185138Y156890D01*
X162894Y149803D02*
X182126D01*
X186713Y154390D01*
X163091Y159646D02*
X166043Y156693D01*
X212638Y165551D02*
X218937Y171850D01*
X200984Y169095D02*
X202961Y171071D01*
X228413Y169987D02*
Y173688D01*
X226437Y168012D02*
X228413Y169987D01*
Y173688D02*
X228937Y174213D01*
X226437Y168012D02*
Y168012D01*
X221437D02*
X223412Y169987D01*
Y173688D02*
X223937Y174213D01*
X223412Y169987D02*
Y173688D01*
X221437Y168012D02*
Y168012D01*
X213412Y169987D02*
Y173688D01*
X211437Y168012D02*
X213412Y169987D01*
X211437Y168012D02*
Y168012D01*
X213412Y173688D02*
X213937Y174213D01*
X208413Y173688D02*
X208937Y174213D01*
X208413Y169987D02*
Y173688D01*
X206437Y168012D02*
X208413Y169987D01*
X206437Y168012D02*
Y168012D01*
X203157Y171071D02*
X203937Y171850D01*
Y174213D01*
X202961Y171071D02*
X203157D01*
X170276Y187992D02*
X176181Y182087D01*
X218937Y171850D02*
Y174213D01*
X264811Y174992D02*
Y177354D01*
X261417Y180709D02*
X264772Y177354D01*
X217520Y180709D02*
X261417D01*
X264772Y177354D02*
X264811D01*
X274713D02*
X274811D01*
Y174992D02*
Y177354D01*
X222441Y188386D02*
X263681D01*
X274713Y177354D01*
X274811Y174992D02*
X275590Y174213D01*
X219094Y183268D02*
X263976D01*
X269811Y177433D01*
Y174992D02*
Y177433D01*
Y174992D02*
X270590Y174213D01*
X220669Y185827D02*
X250295D01*
Y185039D02*
X250590Y185335D01*
X222835Y192563D02*
X224414Y190984D01*
X250590Y168406D02*
Y174213D01*
X264811Y174992D02*
X265590Y174213D01*
X163091Y159646D02*
Y164964D01*
X160925Y165892D02*
X164370Y169337D01*
X160925Y158465D02*
Y165892D01*
X164370Y169337D02*
Y174260D01*
X162402Y170374D02*
Y174260D01*
X158760Y157283D02*
Y166732D01*
X162402Y170374D01*
X163091Y164964D02*
X166339Y168212D01*
Y174260D01*
X152559Y160138D02*
Y174260D01*
Y160138D02*
X162894Y149803D01*
X160925Y158465D02*
X165157Y154232D01*
X158760Y157283D02*
X164075Y151969D01*
X175394Y144685D02*
X182382D01*
X176181Y182087D02*
X180071D01*
X156458Y87243D02*
X158907Y84793D01*
X156458Y87243D02*
Y91202D01*
X156496Y91240D01*
X178051Y58563D02*
X180027Y56587D01*
X152650Y57977D02*
X153235Y58563D01*
X152650Y53732D02*
Y57977D01*
X153235Y58563D02*
X178051D01*
X146653Y58465D02*
X150197Y62008D01*
X176575D01*
X178347Y63779D01*
X150591Y58858D02*
X151961Y60228D01*
X181102D01*
X178780Y101811D02*
X209646D01*
X172335Y95366D02*
X178780Y101811D01*
X137707Y51106D02*
X140093Y48720D01*
X147933D01*
X148622Y49409D01*
Y53642D01*
X218937Y137402D02*
Y145276D01*
Y135039D02*
Y137402D01*
X211626Y122728D02*
X223937Y135039D01*
X213937D02*
Y137402D01*
X212907Y134010D02*
X213937Y135039D01*
Y137402D02*
Y145276D01*
X212907Y134010D02*
X212907D01*
X291831Y75787D02*
X295992Y79949D01*
X269980Y75787D02*
X291831D01*
X295992Y79949D02*
Y86122D01*
X288878Y77953D02*
X290992Y80067D01*
Y92126D01*
X273034Y77953D02*
X288878D01*
X284941Y80413D02*
X285992Y81465D01*
X276279Y80413D02*
X284941D01*
X285992Y81465D02*
Y86122D01*
Y92126D01*
X187008Y294291D02*
Y294685D01*
Y293898D02*
Y294291D01*
X189989Y288062D02*
Y290916D01*
X187008Y293898D02*
X189989Y290916D01*
Y288062D02*
X190551Y287500D01*
X177953Y302756D02*
Y308169D01*
X171260Y314862D02*
Y318602D01*
Y314862D02*
X177953Y308169D01*
Y317717D02*
Y322244D01*
X179437Y316232D02*
X180618D01*
X173837Y322835D02*
X177362D01*
X181496Y315158D02*
Y315354D01*
X177953Y317717D02*
X179437Y316232D01*
X180618D02*
X181496Y315354D01*
X177362Y322835D02*
X177953Y322244D01*
X193602Y308432D02*
Y321358D01*
X168701Y324606D02*
X190354D01*
X193602Y321358D01*
Y308432D02*
X198228Y303806D01*
X169291Y311122D02*
Y318602D01*
X166797Y308628D02*
X169291Y311122D01*
X165419Y308628D02*
X166797D01*
X153543Y310808D02*
Y318602D01*
X163386Y310808D02*
Y318602D01*
X159449Y295571D02*
Y305118D01*
X155512Y295571D02*
Y305118D01*
X168980Y269789D02*
Y274117D01*
X176673Y269789D02*
Y274117D01*
X188607Y269789D02*
Y274117D01*
X180782Y270374D02*
Y274117D01*
X181496Y294291D02*
Y294488D01*
X157480Y307087D02*
X159449Y305118D01*
X155512D02*
X157480Y307087D01*
X170276Y210583D02*
Y211058D01*
X171358Y212140D01*
X148622Y180165D02*
X150591Y178197D01*
Y174260D02*
Y178197D01*
X222835Y196973D02*
X226303Y193504D01*
X222681Y201337D02*
X230502D01*
X232524Y199315D01*
X76476Y189272D02*
X76772Y188976D01*
X67421Y215846D02*
Y220371D01*
X28150Y197310D02*
X28150Y197310D01*
Y193209D02*
Y197310D01*
X65108Y105955D02*
Y120325D01*
X75394Y130610D02*
Y137008D01*
X65108Y120325D02*
X75394Y130610D01*
X42815Y82579D02*
Y86811D01*
X37992Y91634D02*
Y109941D01*
Y91634D02*
X42815Y86811D01*
X43406Y115354D02*
Y122736D01*
X30610Y135532D02*
X43406Y122736D01*
X37992Y109941D02*
X43406Y115354D01*
X42815Y82579D02*
X44980Y80413D01*
X50689D01*
X52953Y82677D01*
Y86516D01*
X58563Y92126D02*
Y99410D01*
X52953Y86516D02*
X58563Y92126D01*
Y99410D02*
X65108Y105955D01*
X75000Y179035D02*
X84744D01*
X72047Y181988D02*
X75000Y179035D01*
X72047Y181988D02*
Y185827D01*
X66634Y191240D02*
X72047Y185827D01*
X63188Y191240D02*
X66634D01*
X63188Y193209D02*
X68307D01*
X74016Y187500D01*
Y187500D02*
Y187500D01*
Y187500D02*
X75697Y185819D01*
X60432Y185433D02*
X70177Y175689D01*
X76772D01*
X75697Y183260D02*
X76575Y182382D01*
X76772D01*
X76968D01*
X75697Y183260D02*
Y185819D01*
X50689Y211516D02*
X53846Y214673D01*
Y214968D01*
X54724Y215846D01*
X50689Y211122D02*
Y211516D01*
X60958Y149902D02*
Y152953D01*
X51240Y149902D02*
X54823D01*
X54142Y179536D02*
X55020Y180413D01*
X125886Y191929D02*
X129134D01*
Y197835D01*
X157087Y213535D02*
Y213660D01*
X158465Y215037D02*
Y219441D01*
X157087Y213660D02*
X158465Y215037D01*
X191732Y326378D02*
X195185Y322925D01*
X196169D02*
X198228Y320866D01*
X195185Y322925D02*
X196169D01*
X198228Y311352D02*
Y320866D01*
X167717Y326378D02*
X191732D01*
X165354Y324016D02*
X167717Y326378D01*
X167323Y323228D02*
X168701Y324606D01*
X176134Y193898D02*
X180071D01*
X174165Y191929D02*
X176134Y193898D01*
X174165Y195866D02*
X180071D01*
X176134Y197835D02*
X180071D01*
X174165Y199803D02*
X176134Y197835D01*
X156405Y216561D02*
Y219350D01*
X153716Y213871D02*
X156405Y216561D01*
Y219350D02*
X156496Y219441D01*
X170276Y215453D02*
X171358Y214370D01*
Y212140D02*
Y214370D01*
X165354Y212042D02*
Y214053D01*
Y212042D02*
X166339Y211058D01*
X165354Y214053D02*
X166339Y215037D01*
Y210583D02*
Y211058D01*
X162402Y213535D02*
X164370Y215504D01*
X170276Y215453D02*
Y219441D01*
X166339Y215037D02*
Y219441D01*
X168307Y213535D02*
Y219441D01*
X166311Y225319D02*
X166339Y225346D01*
X164296Y225319D02*
X166311D01*
X162402Y223425D02*
X164296Y225319D01*
X162402Y219441D02*
Y223425D01*
X222681Y229315D02*
X232524D01*
X164370Y215504D02*
Y219441D01*
X222681Y219315D02*
X232524D01*
X222681Y209315D02*
X232524D01*
X51370Y209149D02*
Y210441D01*
X53150Y208563D02*
X56495Y205217D01*
X51956Y208563D02*
X53150D01*
X50689Y211122D02*
X51370Y210441D01*
Y209149D02*
X51956Y208563D01*
X56495Y201870D02*
Y205217D01*
X47638Y206988D02*
X52264D01*
X54527Y201870D02*
Y204725D01*
X52264Y206988D02*
X54527Y204725D01*
X45276Y205217D02*
X51575D01*
X52558Y204233D01*
Y201870D02*
Y204233D01*
X42421Y208071D02*
X45276Y205217D01*
X46653Y207973D02*
X47638Y206988D01*
X148622Y225098D02*
X149606Y226083D01*
X148622Y219441D02*
Y225098D01*
X150591Y224213D02*
X151673Y225295D01*
X151681Y226878D02*
X152559Y227756D01*
X151681Y226103D02*
Y226878D01*
X150591Y219441D02*
Y224213D01*
X151673Y225295D02*
Y226095D01*
X151681Y226103D01*
X146653Y219441D02*
Y227756D01*
X174165Y187992D02*
X180071D01*
X188878Y186024D02*
Y191437D01*
X180071Y186024D02*
X188878D01*
X124606Y216339D02*
X129823Y211122D01*
Y209154D02*
X131287Y207690D01*
X129823Y209154D02*
Y211122D01*
X134877Y207690D02*
X134890Y207677D01*
X131287Y207690D02*
X134877D01*
X126202Y200713D02*
X128862D01*
X129921Y201772D02*
X134890D01*
X128862Y200713D02*
X129921Y201772D01*
X131102Y199803D02*
X134890D01*
X129134Y197835D02*
X131102Y199803D01*
X125591Y200102D02*
X126202Y200713D01*
X128248Y203740D02*
X134890D01*
X123225Y202759D02*
X127267D01*
X128248Y203740D01*
X124902Y216823D02*
Y220579D01*
X125583Y221260D02*
X125886D01*
X124417Y216339D02*
X124902Y216823D01*
Y220579D02*
X125583Y221260D01*
X124024Y216339D02*
X124508Y216823D01*
X123622Y216339D02*
X124024D01*
X130906Y205709D02*
X134890D01*
X124606Y212008D02*
X130906Y205709D01*
X122532Y203453D02*
X123225Y202759D01*
X122532Y203453D02*
Y204539D01*
X121654Y205416D02*
X122532Y204539D01*
X175197Y293307D02*
Y295571D01*
Y293307D02*
X175287Y293216D01*
X175197Y318602D02*
X175287Y318512D01*
Y315854D02*
Y318512D01*
Y293216D02*
X177256D01*
X141147Y291339D02*
X141732Y291924D01*
Y295571D01*
X165354Y318602D02*
Y324016D01*
X167323Y318602D02*
Y323228D01*
X173252Y318626D02*
Y322249D01*
X173837Y322835D01*
X198228Y294291D02*
Y302821D01*
Y303806D01*
X117126Y205515D02*
X117225Y205416D01*
X121654D01*
X117126Y211811D02*
X123425D01*
X123622Y212008D01*
X125591Y200102D02*
X125886Y199806D01*
Y195866D02*
Y199806D01*
X125886Y187992D02*
X134890D01*
X123622Y212008D02*
X124606D01*
X123622Y216339D02*
X124606D01*
X134890Y203740D02*
X134890Y203740D01*
X149606Y244094D02*
Y250689D01*
X154527Y244094D02*
Y250689D01*
X159449Y244094D02*
Y250689D01*
X164805Y274117D02*
X168980D01*
X172761Y278842D02*
X176673D01*
X54724Y211122D02*
X58956D01*
X59055Y211023D01*
X58956Y215846D02*
Y220371D01*
X60432Y205511D02*
X63189Y208268D01*
X58464Y207184D02*
X59055Y207776D01*
Y211023D01*
X63189Y208268D02*
Y211122D01*
X67421D01*
X58464Y201870D02*
Y207184D01*
X120866Y59449D02*
X120965D01*
X120866Y65748D02*
Y70669D01*
X120965Y59449D02*
X126772Y53642D01*
Y59449D02*
X126870D01*
X130807Y55512D01*
X132677Y59449D02*
X133465Y60236D01*
X130807Y55512D02*
X135433D01*
X126772Y53642D02*
X140748D01*
X135433Y55512D02*
X138189Y58268D01*
X133465Y60236D02*
X142913D01*
X138189Y58268D02*
X142126D01*
X142754Y57639D01*
X142717Y53642D02*
X142754Y53680D01*
X126772Y65748D02*
Y70669D01*
X132677Y65748D02*
Y70669D01*
X100787Y123127D02*
X100787Y123127D01*
X96850Y128937D02*
X100787Y132874D01*
Y123127D02*
Y128347D01*
Y132874D02*
Y133071D01*
X106580Y123127D02*
Y128347D01*
Y133071D02*
Y133268D01*
Y123127D02*
X106580Y123127D01*
X106580Y133268D02*
X111502Y138189D01*
X115243Y120749D02*
X116015Y119977D01*
X54142Y179339D02*
Y179536D01*
X50492Y175689D02*
X50689D01*
X51567Y176567D01*
Y176764D01*
X54142Y179339D01*
X60432Y201870D02*
Y205511D01*
X46653Y207973D02*
Y211122D01*
X44685Y201870D02*
X50590D01*
X42520Y204035D02*
X44685Y201870D01*
X38189Y211122D02*
X42421D01*
Y215846D02*
Y220371D01*
X43307Y189272D02*
X45276Y191240D01*
X43130Y192224D02*
X44115Y193209D01*
X47834D01*
X42520Y192224D02*
X43130D01*
X39567Y189272D02*
X43307D01*
X45669D02*
X47834D01*
X45276Y191240D02*
X47834D01*
X42421Y208071D02*
Y211122D01*
X32874Y205709D02*
X40846D01*
X42520Y204035D01*
X33038Y197146D02*
X47834D01*
X32874Y197310D02*
Y201476D01*
Y197310D02*
X33038Y197146D01*
X179527Y290945D02*
X184055D01*
X177256Y293216D02*
X179527Y290945D01*
X181496Y294488D02*
X182374Y295366D01*
X181496Y299016D02*
Y299213D01*
X182374Y300091D01*
X182571D01*
X177953Y302756D02*
X181496Y299213D01*
X181496Y304724D02*
Y304921D01*
X182374Y305799D01*
X180782Y278842D02*
X184695D01*
X180782D02*
Y282210D01*
X188607Y278842D02*
X192520D01*
X188607D02*
Y282653D01*
X181496Y309449D02*
Y309646D01*
X182374Y310524D01*
X175287Y315854D02*
X181496Y309646D01*
X184055Y290945D02*
X187008Y293898D01*
X182374Y295366D02*
X183752D01*
X187008Y294685D02*
X190551Y298228D01*
X183752Y295366D02*
X187008Y298622D01*
Y299016D01*
X190551Y298228D02*
Y305709D01*
X182571Y300091D02*
X187008Y304528D01*
Y304724D01*
X182374Y305799D02*
X183358D01*
X185933Y308374D01*
X187008Y309252D02*
X190551Y305709D01*
X185933Y308374D02*
X186130D01*
X187008Y309252D01*
Y309449D01*
X182374Y310524D02*
X182571D01*
X187008Y314961D01*
Y315158D01*
X134890Y182087D02*
X140795D01*
X116015Y119977D02*
X127601D01*
X126830Y120749D02*
X127601Y119977D01*
X128984Y184055D02*
X134890D01*
X118166Y123127D02*
X118166Y123127D01*
X118166Y133268D02*
X123088Y138189D01*
X123959Y123127D02*
X123960Y123127D01*
X123959Y132874D02*
Y133071D01*
Y123127D02*
Y128347D01*
Y132874D02*
X126830Y130004D01*
Y120749D02*
Y130004D01*
X123088Y138189D02*
X134674D01*
X129752Y133071D02*
Y133268D01*
X112373Y123127D02*
X112373Y123127D01*
X112373Y123127D02*
Y128347D01*
Y132874D02*
Y133071D01*
Y132874D02*
X115243Y130004D01*
Y120749D02*
Y130004D01*
X111502Y138189D02*
X123088D01*
X118166Y123127D02*
Y128347D01*
Y133071D02*
Y133268D01*
X154527Y174260D02*
Y178197D01*
X152559Y180165D02*
X154527Y178197D01*
X156496Y174260D02*
Y180165D01*
X76476Y189272D02*
Y193405D01*
X60432Y185433D02*
Y186516D01*
X65059Y171748D02*
Y175689D01*
X42717Y186319D02*
X45669Y189272D01*
X42717Y165158D02*
X46654D01*
X40004Y200098D02*
X40988Y199114D01*
X47834D01*
X39567Y200098D02*
X40004D01*
X194682Y75987D02*
Y80315D01*
Y75987D02*
X195473Y75197D01*
Y75394D01*
X196850Y76772D01*
X196260Y55807D02*
X198713Y58260D01*
Y59342D01*
X196850Y76772D02*
X200591D01*
X198819Y62205D02*
X200787Y64173D01*
X200591Y76772D02*
X200787Y76575D01*
X192126Y55807D02*
X196260D01*
Y55512D02*
X204331D01*
X212638D01*
X212776Y55374D01*
X213386D01*
X200787Y64173D02*
Y76575D01*
X198713Y59342D02*
X204331Y64961D01*
X200591Y76772D02*
X204331D01*
Y64961D02*
Y70079D01*
Y76772D02*
X210039D01*
X180177Y106162D02*
X209646D01*
Y93307D02*
Y97658D01*
Y101811D01*
Y106162D02*
Y110709D01*
X203937Y135039D02*
Y137402D01*
X280992Y96850D02*
Y101772D01*
Y86122D02*
Y92126D01*
X203937Y137402D02*
Y145276D01*
X208937Y135039D02*
Y137402D01*
X223937Y135039D02*
Y137402D01*
X168307Y165847D02*
Y174260D01*
X146653Y165847D02*
Y174260D01*
X141339Y132874D02*
Y133071D01*
Y123127D02*
X141339Y123127D01*
X141339Y133071D02*
Y133268D01*
Y132874D02*
X143631Y130582D01*
X143631D01*
X135545Y123127D02*
X135546Y123127D01*
X129752Y133268D02*
X134674Y138189D01*
X135545Y123127D02*
Y128347D01*
Y132874D02*
Y133071D01*
X134674Y138189D02*
X136417D01*
X135545Y132874D02*
X138416Y130004D01*
Y120749D02*
Y130004D01*
X136417Y138189D02*
X141339Y133268D01*
Y123127D02*
Y128347D01*
X129752Y123127D02*
X129753Y123127D01*
X129752Y123127D02*
Y128347D01*
X292390Y43898D02*
X296335Y39953D01*
X293748Y54232D02*
X298327Y49654D01*
X296335Y39953D02*
X297449D01*
X298327Y39075D01*
Y38878D02*
Y39075D01*
Y43602D02*
Y49654D01*
Y39075D02*
X298537Y38864D01*
Y15959D02*
Y38864D01*
Y15959D02*
X298748Y15748D01*
X298327Y39075D02*
X303838Y44587D01*
Y50689D01*
X273819D02*
X274213D01*
X284329Y45758D02*
Y53652D01*
Y45758D02*
X284910Y45177D01*
Y43898D02*
Y45177D01*
Y43898D02*
X285591Y43217D01*
X278748Y15748D02*
X293110Y30110D01*
X285591Y43217D02*
X288284D01*
X293110Y38391D01*
X292390Y43898D02*
Y45177D01*
X293110Y30110D02*
Y38391D01*
X285992Y63045D02*
Y64768D01*
X290992Y63045D02*
Y64768D01*
Y63045D02*
X296262Y57776D01*
X303838D01*
X295992Y96850D02*
Y101772D01*
X274213Y50689D02*
X277756Y54232D01*
X273819Y57776D02*
X280723D01*
X277756Y54232D02*
X283748D01*
X280723Y57776D02*
X285992Y63045D01*
X283748Y54232D02*
X284329Y53652D01*
X295992Y86122D02*
X303838D01*
X295992D02*
Y92126D01*
X275590Y89173D02*
X278642Y86122D01*
X280992D01*
X142754Y53680D02*
Y57639D01*
X142913Y60236D02*
X144685Y58465D01*
Y53642D02*
Y58465D01*
X146653Y53642D02*
Y58465D01*
X150591Y53642D02*
Y58858D01*
Y86122D02*
Y91240D01*
X181102Y55512D02*
Y55905D01*
X188287Y55512D02*
X192126D01*
X180027Y56587D02*
X180421D01*
X181102Y55905D01*
X178347Y63779D02*
X183465D01*
X181102Y60236D02*
X183563D01*
X183465Y63779D02*
X185039Y62205D01*
X183563Y60236D02*
X188287Y55512D01*
X185039Y62205D02*
X198819D01*
X127601Y119977D02*
X139187D01*
X135546Y116828D02*
X141339D01*
X138416Y120749D02*
X139187Y119977D01*
X154527Y91240D02*
Y119685D01*
X158465Y91240D02*
Y101870D01*
X160433Y91240D02*
Y100984D01*
X162402Y91240D02*
Y100000D01*
X164370Y91240D02*
Y99114D01*
X160433Y100984D02*
X168700Y109252D01*
X166339Y91240D02*
Y98130D01*
X168307Y91240D02*
Y97244D01*
X162402Y100000D02*
X177952Y115551D01*
X170276Y91240D02*
Y96260D01*
X164370Y99114D02*
X179331Y114075D01*
X172244Y91240D02*
X172335Y91331D01*
Y95366D01*
X166339Y98130D02*
X180118Y111909D01*
X168307Y97244D02*
X180610Y109547D01*
X170276Y96260D02*
X180177Y106162D01*
X179331Y114075D02*
X184350D01*
X152559Y53642D02*
X152650Y53732D01*
X150000Y79921D02*
X157480Y72441D01*
D12*
X77776Y142895D02*
Y149902D01*
X70413Y135532D02*
X77776Y142895D01*
X33248Y142893D02*
Y149902D01*
Y142893D02*
X40609Y135532D01*
D14*
X202559Y186417D02*
X202756Y186221D01*
D16*
X48193Y172561D02*
X49311Y171442D01*
X48192Y172561D02*
X48193D01*
X48607Y173561D02*
X48607D01*
X50492Y171676D01*
X46752Y174002D02*
X48192Y172561D01*
X49311Y164862D02*
Y171442D01*
X50492Y165256D02*
Y171676D01*
X47752Y174416D02*
Y177378D01*
X46752Y174002D02*
Y180413D01*
X47752Y174416D02*
X48607Y173561D01*
X57284Y108623D02*
Y108623D01*
X43011Y94351D02*
X57284Y108623D01*
X57262Y108645D02*
X57284Y108623D01*
X57262Y108645D02*
Y153203D01*
X48011Y97814D02*
X58094Y107897D01*
Y107957D02*
X58327Y108191D01*
X58305Y109077D02*
X58327Y109055D01*
Y108191D02*
Y109055D01*
X58094Y107897D02*
Y107957D01*
X48011Y84351D02*
Y97814D01*
X58305Y109077D02*
Y153636D01*
X57240Y153225D02*
X57262Y153203D01*
X58284Y153657D02*
X58305Y153636D01*
X58284Y153657D02*
Y153657D01*
X57240Y153225D02*
Y154090D01*
X60039Y156890D01*
X58284Y153657D02*
X61221Y156595D01*
X60039Y156890D02*
Y158878D01*
X46752Y180413D02*
Y181398D01*
X49163Y183809D01*
X52116D01*
X48917Y178543D02*
Y182087D01*
X49508Y182677D02*
X52756D01*
X48917Y182087D02*
X49508Y182677D01*
X51575Y158071D02*
Y162598D01*
X52558Y184251D02*
Y186516D01*
X52116Y183809D02*
X52558Y184251D01*
X52756Y182677D02*
X54464Y184386D01*
X47752Y177378D02*
X48917Y178543D01*
X49311Y164862D02*
X51575Y162598D01*
X50492Y165256D02*
X52264Y163484D01*
X52308D01*
X53616Y162176D01*
X48228Y154724D02*
X51575Y158071D01*
X54464Y186453D02*
X54527Y186516D01*
X54464Y184386D02*
Y186453D01*
X53616Y156549D02*
Y162176D01*
X51791Y154724D02*
X53616Y156549D01*
X59580Y165953D02*
X61221Y164313D01*
Y156595D02*
Y164313D01*
X57815Y175827D02*
X61073Y179085D01*
X56791Y176181D02*
X60316Y179706D01*
Y181251D01*
X57833Y173581D02*
Y175808D01*
X61091Y179067D02*
X61368Y179344D01*
X57447Y166635D02*
Y172322D01*
X56791Y172977D02*
X57447Y172322D01*
X56791Y172977D02*
Y176181D01*
X57833Y173581D02*
X58519Y172894D01*
X61368Y179344D02*
Y181742D01*
X58519Y171896D02*
X59272Y171143D01*
X58519Y171896D02*
Y172894D01*
X56836Y184731D02*
X60316Y181251D01*
X58804Y184306D02*
X61368Y181742D01*
X59272Y169882D02*
Y171143D01*
X58465Y169075D02*
X59272Y169882D01*
X58465Y167056D02*
Y169075D01*
Y167056D02*
X59567Y165953D01*
X57447Y166635D02*
X59146Y164936D01*
X58804Y184306D02*
Y186175D01*
X56495Y186516D02*
X56836Y186175D01*
Y184731D02*
Y186175D01*
X59567Y165953D02*
X59580D01*
X60138Y160512D02*
Y163956D01*
X59158Y164936D02*
X60138Y163956D01*
X59146Y164936D02*
X59158D01*
X59272Y159646D02*
X60039Y158878D01*
X59272Y159646D02*
X60138Y160512D01*
X60486Y175689D02*
X61614Y176817D01*
X60335Y175689D02*
X60486D01*
X58464Y186516D02*
X58804Y186175D01*
X53937Y165551D02*
X55532Y167146D01*
Y169882D01*
Y159646D02*
X55700Y159815D01*
Y162472D01*
X57205Y163977D01*
X228937Y137402D02*
Y145276D01*
D17*
X197362Y219019D02*
D03*
Y228468D02*
D03*
X204862Y219019D02*
D03*
Y228468D02*
D03*
X189862Y219019D02*
D03*
Y228468D02*
D03*
X167815Y243760D02*
D03*
Y234311D02*
D03*
Y259783D02*
D03*
Y250335D02*
D03*
D18*
X174862Y239035D02*
D03*
Y255059D02*
D03*
X179862Y239035D02*
D03*
Y255059D02*
D03*
X184862Y239035D02*
D03*
Y255059D02*
D03*
X189862Y239035D02*
D03*
Y255059D02*
D03*
X194862Y239035D02*
D03*
Y255059D02*
D03*
X199862Y239035D02*
D03*
Y255059D02*
D03*
X204862Y239035D02*
D03*
Y255059D02*
D03*
D19*
X207677Y191437D02*
D03*
X198228D02*
D03*
X123622Y212008D02*
D03*
Y216339D02*
D03*
D20*
X213386Y55374D02*
D03*
Y68248D02*
D03*
X86515Y252894D02*
D03*
Y240020D02*
D03*
D21*
X175394Y144685D02*
D03*
X139567D02*
D03*
D22*
X159842Y121752D02*
D03*
Y117028D02*
D03*
X187007Y121653D02*
D03*
Y116929D02*
D03*
X200787Y121653D02*
D03*
Y116929D02*
D03*
X208956Y121653D02*
D03*
Y116929D02*
D03*
X177952Y121653D02*
D03*
Y116929D02*
D03*
X173425Y121653D02*
D03*
Y116929D02*
D03*
X187008Y304724D02*
D03*
Y309449D02*
D03*
X188607Y278842D02*
D03*
Y274117D02*
D03*
X180782Y278842D02*
D03*
Y274117D02*
D03*
X176673Y278842D02*
D03*
Y274117D02*
D03*
X168980Y278842D02*
D03*
Y274117D02*
D03*
X161024D02*
D03*
Y278842D02*
D03*
X159449Y239370D02*
D03*
Y244094D02*
D03*
X154527Y239370D02*
D03*
Y244094D02*
D03*
X149606Y239370D02*
D03*
Y244094D02*
D03*
X152559Y232480D02*
D03*
Y227756D02*
D03*
X280992Y96850D02*
D03*
Y92126D02*
D03*
X285992Y96850D02*
D03*
Y92126D02*
D03*
X290992Y96850D02*
D03*
Y92126D02*
D03*
X295992Y96850D02*
D03*
Y92126D02*
D03*
X303838Y86122D02*
D03*
Y81397D02*
D03*
X298327Y43602D02*
D03*
Y38878D02*
D03*
X132677Y75394D02*
D03*
Y70669D02*
D03*
X126772Y75394D02*
D03*
Y70669D02*
D03*
X120866Y75394D02*
D03*
Y70669D02*
D03*
X141339Y133268D02*
D03*
Y128543D02*
D03*
X135545Y133268D02*
D03*
Y128543D02*
D03*
X129752Y133268D02*
D03*
Y128543D02*
D03*
X123959Y133268D02*
D03*
Y128543D02*
D03*
X118166Y133268D02*
D03*
Y128543D02*
D03*
X112373Y133268D02*
D03*
Y128543D02*
D03*
X106580Y133268D02*
D03*
Y128543D02*
D03*
X100787Y133268D02*
D03*
Y128543D02*
D03*
X54724Y215846D02*
D03*
Y211122D02*
D03*
X58956Y215846D02*
D03*
Y211122D02*
D03*
X63189Y215846D02*
D03*
Y211122D02*
D03*
X67421Y215846D02*
D03*
Y211122D02*
D03*
X42421Y215846D02*
D03*
Y211122D02*
D03*
X46653Y215846D02*
D03*
Y211122D02*
D03*
X38189Y215846D02*
D03*
Y211122D02*
D03*
X93012Y116988D02*
D03*
Y121713D02*
D03*
X18110Y116988D02*
D03*
Y121713D02*
D03*
X181496Y294291D02*
D03*
Y299016D02*
D03*
X181496Y309449D02*
D03*
Y304724D02*
D03*
X187008Y319882D02*
D03*
Y315158D02*
D03*
X181496Y315158D02*
D03*
Y319882D02*
D03*
D23*
X182283Y121653D02*
D03*
Y116929D02*
D03*
X191338Y121653D02*
D03*
Y116929D02*
D03*
X196358Y121653D02*
D03*
Y116929D02*
D03*
X204941D02*
D03*
Y121653D02*
D03*
X168700Y116929D02*
D03*
Y121653D02*
D03*
X164173D02*
D03*
Y116929D02*
D03*
X192520Y278842D02*
D03*
Y274117D02*
D03*
X184695D02*
D03*
Y278842D02*
D03*
X172761Y274117D02*
D03*
Y278842D02*
D03*
X164805Y274117D02*
D03*
Y278842D02*
D03*
X172244Y161122D02*
D03*
Y165847D02*
D03*
X168307Y161122D02*
D03*
Y165847D02*
D03*
X146653D02*
D03*
Y161122D02*
D03*
Y227756D02*
D03*
Y232480D02*
D03*
X142717D02*
D03*
Y227756D02*
D03*
X138779Y232480D02*
D03*
Y227756D02*
D03*
X117126Y216535D02*
D03*
Y211811D02*
D03*
Y205515D02*
D03*
Y200791D02*
D03*
X239764Y171457D02*
D03*
Y176181D02*
D03*
X193012Y135433D02*
D03*
Y140157D02*
D03*
X239764Y135433D02*
D03*
Y140157D02*
D03*
X286516Y171457D02*
D03*
Y176181D02*
D03*
X303838Y69492D02*
D03*
Y64768D02*
D03*
X204331Y60236D02*
D03*
Y55512D02*
D03*
X181102D02*
D03*
Y60236D02*
D03*
X115059Y75394D02*
D03*
Y70669D02*
D03*
X50689Y215846D02*
D03*
Y211122D02*
D03*
X71457D02*
D03*
Y215846D02*
D03*
X46654Y165158D02*
D03*
Y169882D02*
D03*
X28051Y235138D02*
D03*
Y230413D02*
D03*
X187008Y294291D02*
D03*
Y299016D02*
D03*
D24*
X303150Y370079D02*
D03*
Y141732D02*
D03*
X11811Y370079D02*
D03*
Y23622D02*
D03*
X190551Y287500D02*
D03*
X134890Y174260D02*
D03*
X180071Y219441D02*
D03*
X214370Y87500D02*
D03*
X77168Y220371D02*
D03*
X22343Y230413D02*
D03*
X72835Y342126D02*
D03*
D25*
X41634Y248524D02*
D03*
Y230413D02*
D03*
D26*
X67815Y239469D02*
D03*
D27*
X141732Y277362D02*
D03*
Y271063D02*
D03*
X135883Y277362D02*
D03*
Y271063D02*
D03*
X130034Y277362D02*
D03*
Y271063D02*
D03*
X124184Y277362D02*
D03*
Y271063D02*
D03*
X118335Y277362D02*
D03*
Y271063D02*
D03*
X112486Y277362D02*
D03*
Y271063D02*
D03*
X106637Y277362D02*
D03*
Y271063D02*
D03*
X100787Y277362D02*
D03*
Y271063D02*
D03*
X159449Y250689D02*
D03*
Y256988D02*
D03*
X154527Y250689D02*
D03*
Y256988D02*
D03*
X149606Y250689D02*
D03*
Y256988D02*
D03*
X123960Y123127D02*
D03*
Y116828D02*
D03*
X129753Y123127D02*
D03*
Y116828D02*
D03*
X135546Y123127D02*
D03*
Y116828D02*
D03*
X118166Y123127D02*
D03*
Y116828D02*
D03*
X112373Y123127D02*
D03*
Y116828D02*
D03*
X141339Y123127D02*
D03*
Y116828D02*
D03*
X106580Y123127D02*
D03*
Y116828D02*
D03*
X100787Y123127D02*
D03*
Y116828D02*
D03*
X280992Y101772D02*
D03*
Y108071D02*
D03*
X295992Y101772D02*
D03*
Y108071D02*
D03*
X132677Y65748D02*
D03*
Y59449D02*
D03*
X126772Y65748D02*
D03*
Y59449D02*
D03*
X120866Y65748D02*
D03*
Y59449D02*
D03*
D28*
X109646Y307087D02*
D03*
X125787D02*
D03*
X56185Y353740D02*
D03*
X40043D02*
D03*
Y341733D02*
D03*
X56185D02*
D03*
D29*
X142717Y219441D02*
D03*
X144685D02*
D03*
X146653D02*
D03*
X148622D02*
D03*
X150591D02*
D03*
X152559D02*
D03*
X154527D02*
D03*
X156496D02*
D03*
X158465D02*
D03*
X160433D02*
D03*
X162402D02*
D03*
X164370D02*
D03*
X166339D02*
D03*
X168307D02*
D03*
X170276D02*
D03*
X172244D02*
D03*
Y174260D02*
D03*
X170276D02*
D03*
X168307D02*
D03*
X166339D02*
D03*
X164370D02*
D03*
X162402D02*
D03*
X160433D02*
D03*
X158465D02*
D03*
X156496D02*
D03*
X154527D02*
D03*
X152559D02*
D03*
X150591D02*
D03*
X148622D02*
D03*
X146653D02*
D03*
X144685D02*
D03*
X142717D02*
D03*
D30*
X180071Y211614D02*
D03*
Y209646D02*
D03*
Y207677D02*
D03*
Y205709D02*
D03*
Y203740D02*
D03*
Y201772D02*
D03*
Y199803D02*
D03*
Y197835D02*
D03*
Y195866D02*
D03*
Y193898D02*
D03*
Y191929D02*
D03*
Y189961D02*
D03*
Y187992D02*
D03*
Y186024D02*
D03*
Y184055D02*
D03*
Y182087D02*
D03*
X134890D02*
D03*
Y184055D02*
D03*
Y186024D02*
D03*
Y187992D02*
D03*
Y189961D02*
D03*
Y191929D02*
D03*
Y193898D02*
D03*
Y195866D02*
D03*
Y197835D02*
D03*
Y199803D02*
D03*
Y201772D02*
D03*
Y203740D02*
D03*
Y205709D02*
D03*
Y207677D02*
D03*
Y209646D02*
D03*
Y211614D02*
D03*
D31*
X125886Y221260D02*
D03*
X121162D02*
D03*
X125886Y195866D02*
D03*
X121162D02*
D03*
X121162Y191929D02*
D03*
X125886D02*
D03*
Y187992D02*
D03*
X121162D02*
D03*
X188878Y211614D02*
D03*
X193602D02*
D03*
X188878Y191437D02*
D03*
X193602D02*
D03*
X214370Y106162D02*
D03*
X209646D02*
D03*
Y101811D02*
D03*
X214370D02*
D03*
X189957Y92717D02*
D03*
X194682D02*
D03*
Y88386D02*
D03*
X189957D02*
D03*
X189961Y97047D02*
D03*
X194685D02*
D03*
X194682Y79921D02*
D03*
X189957D02*
D03*
X129134Y80905D02*
D03*
X124409D02*
D03*
Y85236D02*
D03*
X129134D02*
D03*
X129134Y89567D02*
D03*
X124409D02*
D03*
X81496Y205709D02*
D03*
X76772D02*
D03*
Y201870D02*
D03*
X81496D02*
D03*
Y188976D02*
D03*
X76772D02*
D03*
X60958Y149902D02*
D03*
X65683D02*
D03*
X46516D02*
D03*
X51240D02*
D03*
X32874Y184613D02*
D03*
X28150D02*
D03*
X32874Y180446D02*
D03*
X28150D02*
D03*
Y176279D02*
D03*
X32874D02*
D03*
D32*
X121654Y205416D02*
D03*
Y200102D02*
D03*
X125591D02*
D03*
Y205416D02*
D03*
D33*
X188878Y186024D02*
D03*
X193602D02*
D03*
X202953D02*
D03*
X198228D02*
D03*
X209646Y110709D02*
D03*
X214370D02*
D03*
X209646Y97658D02*
D03*
X214370D02*
D03*
X209646Y93307D02*
D03*
X214370D02*
D03*
X76772Y182382D02*
D03*
X81496D02*
D03*
X76772Y175689D02*
D03*
X81496D02*
D03*
X50492Y175689D02*
D03*
X55216D02*
D03*
X65059Y175689D02*
D03*
X60335D02*
D03*
X55216Y180413D02*
D03*
X50492D02*
D03*
X37972Y149902D02*
D03*
X33248D02*
D03*
X77776D02*
D03*
X73051D02*
D03*
X40650Y180413D02*
D03*
X45374D02*
D03*
X28150Y205709D02*
D03*
X32874D02*
D03*
X28150Y201476D02*
D03*
X32874D02*
D03*
X28150Y197310D02*
D03*
X32874D02*
D03*
Y188976D02*
D03*
X28150D02*
D03*
D34*
X280590Y137402D02*
D03*
X275590D02*
D03*
X270590D02*
D03*
X265590D02*
D03*
X260590D02*
D03*
X255590D02*
D03*
X250590D02*
D03*
X245590D02*
D03*
Y174213D02*
D03*
X250590D02*
D03*
X255590D02*
D03*
X260590D02*
D03*
X265590D02*
D03*
X270590D02*
D03*
X275590D02*
D03*
X280590D02*
D03*
X233937D02*
D03*
X228937D02*
D03*
X223937D02*
D03*
X218937D02*
D03*
X213937D02*
D03*
X208937D02*
D03*
X203937D02*
D03*
X198937D02*
D03*
Y137402D02*
D03*
X203937D02*
D03*
X208937D02*
D03*
X213937D02*
D03*
X218937D02*
D03*
X223937D02*
D03*
X228937D02*
D03*
X233937D02*
D03*
D35*
X295992Y86122D02*
D03*
X290992D02*
D03*
X285992D02*
D03*
X280992D02*
D03*
Y64768D02*
D03*
X285992D02*
D03*
X290992D02*
D03*
X295992D02*
D03*
D36*
X303838Y50689D02*
D03*
Y57776D02*
D03*
X273819Y50689D02*
D03*
Y57776D02*
D03*
X28051Y241437D02*
D03*
Y248524D02*
D03*
X31595Y351378D02*
D03*
Y344291D02*
D03*
X232480Y337008D02*
D03*
Y344094D02*
D03*
X222480Y337008D02*
D03*
Y344094D02*
D03*
X212480Y337008D02*
D03*
Y344094D02*
D03*
X202480Y337008D02*
D03*
Y344094D02*
D03*
X192480Y337008D02*
D03*
Y344094D02*
D03*
X182480Y337008D02*
D03*
Y344094D02*
D03*
X172480Y337008D02*
D03*
Y344094D02*
D03*
X162480Y337008D02*
D03*
Y344094D02*
D03*
X152480Y337008D02*
D03*
Y344094D02*
D03*
X142480Y337008D02*
D03*
Y344094D02*
D03*
X132480Y337008D02*
D03*
Y344094D02*
D03*
X122480Y337008D02*
D03*
Y344094D02*
D03*
X112480Y337008D02*
D03*
Y344094D02*
D03*
X102480Y337008D02*
D03*
Y344094D02*
D03*
X92480Y337008D02*
D03*
Y344094D02*
D03*
X82480Y337008D02*
D03*
Y344094D02*
D03*
X71101Y324508D02*
D03*
Y317421D02*
D03*
D37*
X288650Y37303D02*
D03*
X284910Y45177D02*
D03*
X292390D02*
D03*
D38*
X216732Y76772D02*
D03*
X210039D02*
D03*
X195473Y75197D02*
D03*
X188779D02*
D03*
D39*
X204331Y76772D02*
D03*
Y70079D02*
D03*
D40*
X192126Y67815D02*
D03*
Y55807D02*
D03*
D41*
X157480Y72441D02*
D03*
D42*
X174213Y53642D02*
D03*
X172244D02*
D03*
X170276D02*
D03*
X168307D02*
D03*
X166339D02*
D03*
X164370D02*
D03*
X162402D02*
D03*
X160433D02*
D03*
X158465D02*
D03*
X156496D02*
D03*
X154527D02*
D03*
X152559D02*
D03*
X150591D02*
D03*
X148622D02*
D03*
X146653D02*
D03*
X144685D02*
D03*
X142717D02*
D03*
X140748D02*
D03*
Y91240D02*
D03*
X142717D02*
D03*
X144685D02*
D03*
X146653D02*
D03*
X148622D02*
D03*
X150591D02*
D03*
X152559D02*
D03*
X154527D02*
D03*
X156496D02*
D03*
X158465D02*
D03*
X160433D02*
D03*
X162402D02*
D03*
X164370D02*
D03*
X166339D02*
D03*
X168307D02*
D03*
X170276D02*
D03*
X172244D02*
D03*
X174213D02*
D03*
D43*
X232291Y37795D02*
D03*
X225205D02*
D03*
X212291D02*
D03*
X205205D02*
D03*
X192291D02*
D03*
X185205D02*
D03*
X172291D02*
D03*
X165205D02*
D03*
X152291D02*
D03*
X145205D02*
D03*
X112291D02*
D03*
X105205D02*
D03*
X92291D02*
D03*
X85205D02*
D03*
X132291D02*
D03*
X125205D02*
D03*
X71556Y258169D02*
D03*
X78642D02*
D03*
D44*
X55511Y194193D02*
D03*
D45*
X60432Y186516D02*
D03*
X58464D02*
D03*
X56495D02*
D03*
X54527D02*
D03*
X52558D02*
D03*
X50590D02*
D03*
Y201870D02*
D03*
X52558D02*
D03*
X54527D02*
D03*
X56495D02*
D03*
X58464D02*
D03*
X60432D02*
D03*
D46*
X47834Y189272D02*
D03*
Y191240D02*
D03*
Y193209D02*
D03*
Y195177D02*
D03*
Y197146D02*
D03*
Y199114D02*
D03*
X63188D02*
D03*
Y197146D02*
D03*
Y195177D02*
D03*
Y193209D02*
D03*
Y191240D02*
D03*
Y189272D02*
D03*
D47*
X76476Y197343D02*
D03*
X81791D02*
D03*
Y193405D02*
D03*
X76476D02*
D03*
D48*
X59272Y169882D02*
D03*
Y159646D02*
D03*
X55532Y169882D02*
D03*
X51791D02*
D03*
Y159646D02*
D03*
X55532D02*
D03*
D49*
X97803Y236299D02*
D03*
Y257795D02*
D03*
X107803Y236299D02*
D03*
Y257795D02*
D03*
X117803Y236299D02*
D03*
Y257795D02*
D03*
X127803Y236299D02*
D03*
Y257795D02*
D03*
D50*
X85138Y289173D02*
D03*
Y273425D02*
D03*
D51*
X63071Y301083D02*
D03*
X53071D02*
D03*
X33071D02*
D03*
Y261319D02*
D03*
X63071D02*
D03*
D52*
X62878Y315689D02*
D03*
X33350D02*
D03*
X62878Y325965D02*
D03*
X33350D02*
D03*
D53*
X65453Y342126D02*
D03*
Y353543D02*
D03*
D54*
X198228Y294291D02*
D03*
X209646D02*
D03*
Y302821D02*
D03*
X198228D02*
D03*
X209646Y311352D02*
D03*
X198228D02*
D03*
X209646Y319882D02*
D03*
X198228D02*
D03*
D55*
X302524Y209315D02*
D03*
Y249315D02*
D03*
Y239315D02*
D03*
Y229315D02*
D03*
Y219315D02*
D03*
Y199315D02*
D03*
X232524Y209315D02*
D03*
Y249315D02*
D03*
Y239315D02*
D03*
Y229315D02*
D03*
Y219315D02*
D03*
Y199315D02*
D03*
D56*
X175197Y318602D02*
D03*
X173228D02*
D03*
X171260D02*
D03*
X169291D02*
D03*
X167323D02*
D03*
X165354D02*
D03*
X163386D02*
D03*
X161417D02*
D03*
X159449D02*
D03*
X157480D02*
D03*
X155512D02*
D03*
X153543D02*
D03*
X151575D02*
D03*
X149606D02*
D03*
X147638D02*
D03*
X145669D02*
D03*
X143701D02*
D03*
X141732D02*
D03*
X139764D02*
D03*
Y295571D02*
D03*
X141732D02*
D03*
X143701D02*
D03*
X145669D02*
D03*
X147638D02*
D03*
X149606D02*
D03*
X151575D02*
D03*
X153543D02*
D03*
X155512D02*
D03*
X157480D02*
D03*
X159449D02*
D03*
X161417D02*
D03*
X163386D02*
D03*
X165354D02*
D03*
X167323D02*
D03*
X169291D02*
D03*
X171260D02*
D03*
X173228D02*
D03*
X175197D02*
D03*
D57*
X157480Y307087D02*
D03*
D114*
X72548Y201886D02*
X72564Y201870D01*
X76772D01*
X72548Y197343D02*
X76476D01*
X199587Y255335D02*
X199862Y255059D01*
X159449Y256988D02*
X159547D01*
X184449Y266240D02*
X184695Y266486D01*
Y274117D01*
X184449Y266240D02*
X189235D01*
X172528D02*
X184449D01*
X189235D02*
X192520Y269525D01*
X172761Y266473D02*
Y274117D01*
X163681Y266240D02*
X172528D01*
X172761Y266473D01*
X127803Y233799D02*
Y236299D01*
Y233799D02*
X133846Y227756D01*
X116077Y80830D02*
X119817D01*
X115059Y79812D02*
X116077Y80830D01*
X119817D02*
X119892Y80905D01*
X182283Y121653D02*
Y126303D01*
X193810Y121653D02*
X196358D01*
X200787D02*
X204941D01*
X196358D02*
X200787D01*
X168700D02*
Y126303D01*
X119892Y85236D02*
X124409D01*
X138779Y227756D02*
X142717D01*
X133846D02*
X138779D01*
X67815Y239469D02*
X73419Y233865D01*
Y224120D02*
X115453Y182087D01*
X73419Y224120D02*
Y233865D01*
X172244Y165847D02*
X192205D01*
X199606Y156595D02*
Y158445D01*
X192205Y165847D02*
X199606Y158445D01*
X280590Y156595D02*
X302067D01*
X310531Y165059D01*
X280590Y156595D02*
Y171850D01*
X233937Y156595D02*
X280590D01*
X233937D02*
Y171850D01*
X199606Y156595D02*
X233937D01*
X199606Y155020D02*
Y156595D01*
X183071Y138484D02*
X199606Y155020D01*
X140886Y144685D02*
X147087Y138484D01*
X183071D01*
X139567Y144685D02*
X140886D01*
X277264Y64768D02*
X280992D01*
X115059Y75394D02*
Y79812D01*
X119892Y80905D02*
Y85236D01*
Y89567D01*
Y80905D02*
X124409D01*
X119892Y89567D02*
X124409D01*
X115059Y65771D02*
Y70669D01*
X111133D02*
X115059D01*
X164173Y112425D02*
Y116929D01*
X198838Y135433D02*
X198937Y135531D01*
X196172Y135433D02*
X198838D01*
X198937Y135531D02*
Y137402D01*
X193012Y135433D02*
X196172D01*
X239764Y131027D02*
Y135433D01*
X245590Y131027D02*
Y137402D01*
X303838Y69492D02*
X307983D01*
X288650Y32366D02*
Y37303D01*
X285097D02*
X288650D01*
X192520Y269525D02*
Y274117D01*
X115453Y175000D02*
Y182087D01*
X124311D01*
X125886Y183662D01*
X115453Y175000D02*
X124606Y165847D01*
X146653D01*
X124606D02*
X139567Y150886D01*
Y144685D02*
Y150886D01*
X280689Y171752D02*
X286516D01*
X280590Y171850D02*
Y174213D01*
X286516Y171457D02*
Y171752D01*
X280590Y171850D02*
X280689Y171752D01*
X234035D02*
X239764D01*
X233937Y171850D02*
Y174213D01*
X239764Y171457D02*
Y171752D01*
X233937Y171850D02*
X234035Y171752D01*
X303098Y228740D02*
X309055D01*
X302524Y229315D02*
X303098Y228740D01*
X310531Y165059D02*
Y227264D01*
X309055Y228740D02*
X310531Y227264D01*
X125886Y183662D02*
Y187992D01*
D115*
X154527Y256988D02*
X157480D01*
X128531D02*
X154527D01*
X127803Y236299D02*
Y247350D01*
Y257716D02*
Y257795D01*
Y247350D02*
Y257716D01*
X127461Y247008D02*
X127803Y247350D01*
Y257716D02*
X128531Y256988D01*
D116*
X195770Y263327D02*
X199587Y259510D01*
X159547Y256988D02*
X165886Y263327D01*
X195770D01*
X94488Y225295D02*
X127264D01*
X86515Y233268D02*
X94488Y225295D01*
X127264D02*
X134890Y217669D01*
X86515Y233268D02*
Y240020D01*
X153740Y46654D02*
X156496Y49409D01*
X101150Y46654D02*
X153740D01*
X94547Y40051D02*
X101150Y46654D01*
X114547Y40051D02*
X118984Y44488D01*
X155905D02*
X158465Y47047D01*
X118984Y44488D02*
X155905D01*
X134547Y40051D02*
X136721Y42224D01*
X157579D02*
X160433Y45079D01*
X136721Y42224D02*
X157579D01*
X142028Y325590D02*
X145669Y321949D01*
Y318602D02*
Y321949D01*
X143504Y328839D02*
X147638Y324705D01*
X104291Y325590D02*
X142028D01*
X92874Y337008D02*
X104291Y325590D01*
X144488Y332677D02*
X149606Y327559D01*
Y318602D02*
Y327559D01*
X147638Y318602D02*
Y324705D01*
X121043Y328839D02*
X143504D01*
X112874Y337008D02*
X121043Y328839D01*
X134890Y211614D02*
Y217669D01*
X162598Y330610D02*
X195689D01*
X159449Y327461D02*
X162598Y330610D01*
X195689D02*
X202087Y337008D01*
X164567Y328346D02*
X213425D01*
X161417Y325197D02*
X164567Y328346D01*
X213425D02*
X222087Y337008D01*
X159449Y318602D02*
Y327461D01*
X160925Y332677D02*
X177756D01*
X157480Y318602D02*
Y329232D01*
X160925Y332677D01*
X155512Y318602D02*
Y331693D01*
X159055Y335236D02*
X160709D01*
X162480Y337008D01*
X155512Y331693D02*
X159055Y335236D01*
X162480Y337008D02*
X172480D01*
X182087D02*
X182480D01*
X202087D02*
X202480D01*
X182480D02*
X192480D01*
X202480D02*
X212480D01*
X222087D02*
X222480D01*
X182480Y344094D02*
Y353751D01*
X202480Y344094D02*
Y353751D01*
Y372953D01*
X182480Y353751D02*
Y372953D01*
X202480D02*
X207480Y377953D01*
X182480Y372953D02*
X187480Y377953D01*
X222480Y337008D02*
X232480D01*
X222480Y344094D02*
Y353751D01*
Y372953D01*
X227480Y377953D01*
X142480Y372953D02*
X147480Y377953D01*
X142480Y337008D02*
X152480D01*
X151575Y318602D02*
Y336102D01*
X152480Y337008D01*
X162480Y372953D02*
X167480Y377953D01*
X162480Y353751D02*
Y372953D01*
X122480D02*
X127480Y377953D01*
X122480Y337008D02*
X132480D01*
X132874D01*
X137205Y332677D01*
X144488D01*
X142480Y353751D02*
Y372953D01*
Y344094D02*
Y353751D01*
X161417Y318602D02*
Y325197D01*
X162480Y344094D02*
Y353751D01*
X82480Y337008D02*
X92480D01*
X92874D01*
X112480D02*
X112874D01*
X82480Y353751D02*
Y372953D01*
Y344094D02*
Y353751D01*
Y372953D02*
X87480Y377953D01*
X102480Y344094D02*
Y353751D01*
Y372953D01*
X107480Y377953D01*
X102480Y337008D02*
X112480D01*
X122480Y344094D02*
Y353751D01*
Y372953D01*
X92291Y38189D02*
X94153Y40051D01*
X94547D01*
X88748Y15748D02*
Y17742D01*
X92291Y21286D01*
Y37795D02*
Y38189D01*
Y21286D02*
Y37795D01*
X108748Y15748D02*
Y17742D01*
X112291Y21286D01*
Y37795D01*
Y38189D01*
X114154Y40051D01*
X114547D01*
X128748Y15748D02*
Y17742D01*
X132291Y21286D01*
Y37795D01*
Y38189D01*
X134153Y40051D01*
X134547D01*
X177756Y332677D02*
X182087Y337008D01*
X192291Y21286D02*
Y37795D01*
Y38189D01*
X172047Y47244D02*
X223236D01*
X208748Y15748D02*
Y16914D01*
X205598Y44882D02*
X212291Y38189D01*
X208748Y16914D02*
X212291Y20457D01*
Y38189D01*
X223236Y47244D02*
X232291Y38189D01*
X228748Y15748D02*
Y17742D01*
X232291Y21286D01*
Y37795D02*
Y38189D01*
Y21286D02*
Y37795D01*
X148748Y15748D02*
Y17742D01*
X152291Y21286D01*
Y37795D02*
Y38189D01*
Y21286D02*
Y37795D01*
Y38189D02*
X154154Y40051D01*
X164370Y46110D02*
Y53642D01*
X156496Y49409D02*
Y53642D01*
X154154Y40051D02*
X158949D01*
X158465Y47047D02*
Y53642D01*
X160433Y45079D02*
Y53642D01*
X158949Y40051D02*
X162402Y43504D01*
X166339Y47047D02*
Y53642D01*
X168307Y48228D02*
Y53642D01*
X164370Y46110D02*
X172291Y38189D01*
X166339Y47047D02*
X170866Y42520D01*
X168307Y48228D02*
X171653Y44882D01*
X170276Y49016D02*
Y53642D01*
Y49016D02*
X172047Y47244D01*
X172291Y37795D02*
Y38189D01*
Y21286D02*
Y37795D01*
X170866Y42520D02*
X187961D01*
X171653Y44882D02*
X205598D01*
X188748Y15748D02*
Y17742D01*
X187961Y42520D02*
X192291Y38189D01*
X188748Y17742D02*
X192291Y21286D01*
X168748Y15748D02*
Y17742D01*
X172291Y21286D01*
X162402Y43504D02*
Y53642D01*
D117*
X236614Y39173D02*
Y56988D01*
X231791Y61811D02*
Y63089D01*
Y61811D02*
X236614Y56988D01*
D118*
X75355Y247008D02*
X127461D01*
X71556Y243209D02*
X75355Y247008D01*
X67815Y239469D02*
X71556Y243209D01*
Y258169D01*
D119*
X223995Y329626D02*
X236221D01*
X241929Y335335D02*
Y348819D01*
X236221Y329626D02*
X241929Y335335D01*
X220997Y315301D02*
Y326628D01*
X223995Y329626D01*
X217999Y312303D02*
X220997Y315301D01*
X209646Y312303D02*
X217999D01*
X209646Y302821D02*
Y312303D01*
X232631Y353601D02*
X237148D01*
X232480Y353751D02*
X232631Y353601D01*
X237148D02*
X241929Y348819D01*
D120*
X63189Y234842D02*
X67815Y239469D01*
X209646Y294291D02*
X215116D01*
X209646Y319882D02*
X215116D01*
X187008Y319882D02*
X191043D01*
X181496D02*
X187008D01*
X181496Y319882D02*
Y319882D01*
X56004Y227658D02*
X63189Y234842D01*
X56004Y225296D02*
Y227658D01*
X54724Y224016D02*
X56004Y225296D01*
X54724Y215846D02*
Y224016D01*
X38189D02*
X54724D01*
X34449D02*
X38189D01*
Y215846D02*
Y224016D01*
X63189Y223031D02*
Y234842D01*
X63189Y223031D02*
X63189Y223031D01*
X63189Y215846D02*
Y223031D01*
X28150Y217717D02*
X34449Y224016D01*
X28150Y205709D02*
Y217717D01*
Y201476D02*
Y205709D01*
X24409Y199862D02*
X26024Y201476D01*
Y188976D02*
X28150D01*
X24409Y190591D02*
Y199862D01*
Y190591D02*
X26024Y188976D01*
Y201476D02*
X28150D01*
D121*
X73011Y94351D02*
D03*
X68011Y84351D02*
D03*
X63011Y94351D02*
D03*
X58011Y84351D02*
D03*
X53011Y94351D02*
D03*
X48011Y84351D02*
D03*
X43011Y94351D02*
D03*
X38011Y84351D02*
D03*
X30610Y135532D02*
D03*
X40609D02*
D03*
X70413D02*
D03*
X80413D02*
D03*
D122*
X33011Y119351D02*
D03*
X78011D02*
D03*
D123*
X24409Y104036D02*
D03*
X86613D02*
D03*
X258748Y15748D02*
D03*
X278748D02*
D03*
X298748D02*
D03*
X37480Y377953D02*
D03*
X57480D02*
D03*
X227480Y377953D02*
D03*
X207480D02*
D03*
X187480D02*
D03*
X167480D02*
D03*
X147480D02*
D03*
X127480D02*
D03*
X107480D02*
D03*
X87480D02*
D03*
X108748Y15748D02*
D03*
X88748D02*
D03*
X148748D02*
D03*
X128748D02*
D03*
X188748D02*
D03*
X168748D02*
D03*
X228748D02*
D03*
X208748D02*
D03*
D124*
X231791Y61811D02*
D03*
X246604D02*
D03*
X261417D02*
D03*
D125*
X303150Y129921D02*
D03*
X11811Y11811D02*
D03*
Y381890D02*
D03*
X303150D02*
D03*
D126*
X293748Y54232D02*
D03*
X283748D02*
D03*
X112480Y353751D02*
D03*
X102480D02*
D03*
X92480D02*
D03*
X82480D02*
D03*
X222480D02*
D03*
X232480D02*
D03*
X202480D02*
D03*
X212480D02*
D03*
X182480D02*
D03*
X192480D02*
D03*
X162480D02*
D03*
X172480D02*
D03*
X142480D02*
D03*
X152480D02*
D03*
X122480D02*
D03*
X132480D02*
D03*
D127*
X157480Y72441D02*
D03*
D128*
Y307087D02*
D03*
D129*
X72548Y201886D02*
D03*
Y197343D02*
D03*
X197362Y223744D02*
D03*
X204862D02*
D03*
X186131Y228453D02*
D03*
X157480Y231630D02*
D03*
X159504Y235899D02*
D03*
X167815Y255059D02*
D03*
X117126Y222772D02*
D03*
X117803Y228801D02*
D03*
X86515Y256410D02*
D03*
X193810Y121653D02*
D03*
X119892Y85236D02*
D03*
X139853Y308593D02*
D03*
Y305581D02*
D03*
Y302569D02*
D03*
Y311605D02*
D03*
X168808Y179571D02*
D03*
X296810Y150957D02*
D03*
X288148D02*
D03*
X292479D02*
D03*
X290117Y176181D02*
D03*
X160433Y180165D02*
D03*
X28150Y172280D02*
D03*
X87795Y180709D02*
D03*
X81496Y171296D02*
D03*
X86426Y193405D02*
D03*
Y201870D02*
D03*
X140166Y188717D02*
D03*
X78642Y264012D02*
D03*
X83965Y260554D02*
D03*
X80423Y278776D02*
D03*
Y267851D02*
D03*
X85138D02*
D03*
Y278776D02*
D03*
X89853D02*
D03*
X76190Y273425D02*
D03*
X89853Y267851D02*
D03*
X37509Y301083D02*
D03*
X33071Y294524D02*
D03*
Y307713D02*
D03*
X28552Y301083D02*
D03*
X142824Y224249D02*
D03*
X120657Y265587D02*
D03*
X110657D02*
D03*
X100657D02*
D03*
X174165Y203776D02*
D03*
X198937Y182285D02*
D03*
X202953D02*
D03*
X193602Y195410D02*
D03*
X246564Y168406D02*
D03*
X296170Y239315D02*
D03*
Y249315D02*
D03*
X229832Y255548D02*
D03*
X238976Y249315D02*
D03*
X194862Y247047D02*
D03*
X189862D02*
D03*
X179862D02*
D03*
X167815Y239035D02*
D03*
X146653Y236946D02*
D03*
X142717D02*
D03*
X138779D02*
D03*
X113198Y204760D02*
D03*
X117233Y191929D02*
D03*
Y187992D02*
D03*
X140954Y178678D02*
D03*
X175796Y161122D02*
D03*
X146653Y156988D02*
D03*
X117815Y149150D02*
D03*
X109162Y159528D02*
D03*
X23729Y184613D02*
D03*
X50689Y220371D02*
D03*
X32981Y241437D02*
D03*
X32095Y235138D02*
D03*
X41634Y253973D02*
D03*
X49713Y248524D02*
D03*
X33473D02*
D03*
X41634Y243146D02*
D03*
X191535Y161890D02*
D03*
X148622Y189961D02*
D03*
X144685Y180165D02*
D03*
X186713Y159390D02*
D03*
Y154390D02*
D03*
X191535Y156890D02*
D03*
X211437Y168012D02*
D03*
X206437D02*
D03*
X221437D02*
D03*
X226437D02*
D03*
X140795Y197835D02*
D03*
X170276Y187992D02*
D03*
X250590Y185728D02*
D03*
Y168406D02*
D03*
X188878Y182285D02*
D03*
X182382Y144685D02*
D03*
X198928Y97047D02*
D03*
Y92717D02*
D03*
Y88386D02*
D03*
X218908Y101811D02*
D03*
Y106162D02*
D03*
Y110709D02*
D03*
X208081Y60236D02*
D03*
X221467Y76772D02*
D03*
X213386Y64295D02*
D03*
Y72268D02*
D03*
X137707Y51106D02*
D03*
X119892Y80905D02*
D03*
Y89567D02*
D03*
X115059Y65771D02*
D03*
X111133Y70669D02*
D03*
X182283Y126303D02*
D03*
X168700D02*
D03*
X164173Y112425D02*
D03*
X196172Y135433D02*
D03*
X245590Y131027D02*
D03*
X239764D02*
D03*
X307983Y69492D02*
D03*
X288650Y32366D02*
D03*
X285097Y37303D02*
D03*
X290992Y101772D02*
D03*
Y108071D02*
D03*
X285992D02*
D03*
Y101772D02*
D03*
X277264Y64768D02*
D03*
X215116Y294291D02*
D03*
Y319882D02*
D03*
X191043Y319882D02*
D03*
X136556Y308593D02*
D03*
Y305581D02*
D03*
Y311605D02*
D03*
Y302569D02*
D03*
X133258Y308593D02*
D03*
Y305581D02*
D03*
Y311605D02*
D03*
Y302569D02*
D03*
X168980Y269789D02*
D03*
X176673D02*
D03*
X188607D02*
D03*
X180782D02*
D03*
X170010Y79518D02*
D03*
X170207Y65364D02*
D03*
X149046D02*
D03*
X165827Y79518D02*
D03*
X144912Y79518D02*
D03*
X144813Y65364D02*
D03*
X161644Y79518D02*
D03*
X149095D02*
D03*
X153278D02*
D03*
X157461D02*
D03*
X144891Y68902D02*
D03*
Y72441D02*
D03*
Y75980D02*
D03*
X170069D02*
D03*
Y72441D02*
D03*
Y68902D02*
D03*
X161742Y65364D02*
D03*
X157510D02*
D03*
X153278D02*
D03*
X165975D02*
D03*
X56386Y346850D02*
D03*
X63123D02*
D03*
X73228D02*
D03*
X69860D02*
D03*
X66491D02*
D03*
X59754D02*
D03*
X53017D02*
D03*
X170276Y210583D02*
D03*
X148622Y180165D02*
D03*
X222835Y192563D02*
D03*
X67421Y220371D02*
D03*
X28150Y193209D02*
D03*
X54823Y149902D02*
D03*
X60958Y152953D02*
D03*
X51791Y154724D02*
D03*
X48228D02*
D03*
X58098Y180413D02*
D03*
X107803Y228801D02*
D03*
X97803D02*
D03*
X128984Y191929D02*
D03*
X157087Y213535D02*
D03*
X174165Y195866D02*
D03*
Y191929D02*
D03*
Y199803D02*
D03*
X159449Y207677D02*
D03*
X162402Y213535D02*
D03*
X168307D02*
D03*
X166339Y225346D02*
D03*
X222681Y229315D02*
D03*
X166339Y210583D02*
D03*
X152559Y213535D02*
D03*
X222835Y196973D02*
D03*
X222681Y201337D02*
D03*
Y209315D02*
D03*
Y219315D02*
D03*
X213937Y145276D02*
D03*
X218937D02*
D03*
X52371Y191053D02*
D03*
X55511D02*
D03*
X58651Y197333D02*
D03*
X55511D02*
D03*
X52371D02*
D03*
X58651Y194193D02*
D03*
X55511D02*
D03*
X52371D02*
D03*
X58651Y191053D02*
D03*
X154527Y235773D02*
D03*
X57205Y163977D02*
D03*
X53937Y165551D02*
D03*
X203937Y145276D02*
D03*
X228937D02*
D03*
X156496Y180165D02*
D03*
X152559D02*
D03*
X42421Y220371D02*
D03*
X42717Y186319D02*
D03*
X39567Y200098D02*
D03*
X42520Y204035D02*
D03*
Y192224D02*
D03*
X39567Y189272D02*
D03*
X58956Y220371D02*
D03*
X68799Y180413D02*
D03*
X65059Y171748D02*
D03*
X37035Y176279D02*
D03*
Y180413D02*
D03*
X42717Y165158D02*
D03*
X174165Y187992D02*
D03*
X140795Y182087D02*
D03*
X128984Y184055D02*
D03*
M02*
